<svg width="40" height="38" viewBox="0 0 40 38" fill="none" xmlns="http://www.w3.org/2000/svg">
<path d="M10 27C10 27.7021 10 27.3191 10 28C20.0112 28 11.9552 28 22 28C22 27.3404 22 27.7021 22 27C12.0224 27 20.112 27 10 27Z" fill="white"/>
<path d="M8 19C13.9359 19 26.0341 19 32 19C32 18.3548 32 18.7097 32 18C26.154 18 14.0259 18 8 18C8 18.6237 8 18.2473 8 19Z" fill="white"/>
<path d="M17 10C17 10.6957 17 10.3043 17 11C19.0981 11 26.8591 11 29 11C29 10.3696 29 10.7174 29 10C26.9447 10 19.1838 10 17 10Z" fill="white"/>
<path d="M0.750019 37.25C0.750599 29.149 0.768894 23.0858 1.34351 18.3553C1.93361 13.4975 3.10082 10.1458 5.36219 7.49813C6.01712 6.7313 6.7313 6.01712 7.49813 5.36219C10.1458 3.10082 13.4975 1.93361 18.3553 1.34351C23.2306 0.751297 29.5216 0.75 38 0.75H39.25C39.2494 8.851 39.2311 14.9142 38.6565 19.6447C38.0664 24.5025 36.8992 27.8542 34.6378 30.5019C33.9829 31.2687 33.2687 31.9829 32.5019 32.6378C29.8542 34.8992 26.5025 36.0664 21.6447 36.6565C16.7694 37.2487 10.4784 37.25 2 37.25H0.750019Z" stroke="url(#paint0_linear_1677_16836)" stroke-width="1.5"/>
<defs>
<linearGradient id="paint0_linear_1677_16836" x1="-2.66666" y1="3.86649" x2="30.6344" y2="45.4926" gradientUnits="userSpaceOnUse">
<stop stop-color="#D61544"/>
<stop offset="1" stop-color="#F07E3D"/>
</linearGradient>
</defs>
</svg>
