<svg width="40" height="38" viewBox="0 0 40 38" fill="none" xmlns="http://www.w3.org/2000/svg">
<path d="M0.750019 37.25C0.750599 29.149 0.768894 23.0858 1.34351 18.3553C1.93361 13.4975 3.10082 10.1458 5.36219 7.49813C6.01712 6.7313 6.7313 6.01712 7.49813 5.36219C10.1458 3.10082 13.4975 1.93361 18.3553 1.34351C23.2306 0.751297 29.5216 0.75 38 0.75H39.25C39.2494 8.851 39.2311 14.9142 38.6565 19.6447C38.0664 24.5025 36.8992 27.8542 34.6378 30.5019C33.9829 31.2687 33.2687 31.9829 32.5019 32.6378C29.8542 34.8992 26.5025 36.0664 21.6447 36.6565C16.7694 37.2487 10.4784 37.25 2 37.25H0.750019Z" fill="url(#paint0_linear_1732_16900)"/>
<path d="M29 10.7603C24.7361 15.0241 16.0456 23.7145 11.7601 27.9999C11.2697 27.5095 11.5394 27.7792 11 27.2398C15.1994 23.0405 23.9114 14.3286 28.2399 10.0002C28.7139 10.4742 28.4279 10.1881 29 10.7603Z" fill="white"/>
<path d="M11 10.76C15.2639 15.0239 23.9544 23.7142 28.2399 27.9997C28.7303 27.5093 28.4606 27.779 29 27.2396C24.8006 23.0403 16.0886 14.3284 11.7601 9.99992C11.2861 10.474 11.5721 10.1879 11 10.76Z" fill="white"/>
<path d="M0.750019 37.25C0.750599 29.149 0.768894 23.0858 1.34351 18.3553C1.93361 13.4975 3.10082 10.1458 5.36219 7.49813C6.01712 6.7313 6.7313 6.01712 7.49813 5.36219C10.1458 3.10082 13.4975 1.93361 18.3553 1.34351C23.2306 0.751297 29.5216 0.75 38 0.75H39.25C39.2494 8.851 39.2311 14.9142 38.6565 19.6447C38.0664 24.5025 36.8992 27.8542 34.6378 30.5019C33.9829 31.2687 33.2687 31.9829 32.5019 32.6378C29.8542 34.8992 26.5025 36.0664 21.6447 36.6565C16.7694 37.2487 10.4784 37.25 2 37.25H0.750019Z" stroke="url(#paint1_linear_1732_16900)" stroke-width="1.5"/>
<defs>
<linearGradient id="paint0_linear_1732_16900" x1="-2.66666" y1="3.86649" x2="30.6344" y2="45.4926" gradientUnits="userSpaceOnUse">
<stop stop-color="#D61544"/>
<stop offset="1" stop-color="#F07E3D"/>
</linearGradient>
<linearGradient id="paint1_linear_1732_16900" x1="-2.66666" y1="3.86649" x2="30.6344" y2="45.4926" gradientUnits="userSpaceOnUse">
<stop stop-color="#D61544"/>
<stop offset="1" stop-color="#F07E3D"/>
</linearGradient>
</defs>
</svg>
