<svg width="25" height="24" viewBox="0 0 25 24" fill="none" xmlns="http://www.w3.org/2000/svg">
<path d="M13.25 12C13.25 11.5858 12.9142 11.25 12.5 11.25C12.0858 11.25 11.75 11.5858 11.75 12H13.25ZM11.75 16C11.75 16.4142 12.0858 16.75 12.5 16.75C12.9142 16.75 13.25 16.4142 13.25 16H11.75ZM14.75 6C14.75 6.41421 15.0858 6.75 15.5 6.75C15.9142 6.75 16.25 6.41421 16.25 6H14.75ZM8.75 6C8.75 6.41421 9.08579 6.75 9.5 6.75C9.91421 6.75 10.25 6.41421 10.25 6H8.75ZM13.25 14V12H11.75V14H13.25ZM11.75 14V16H13.25V14H11.75ZM18.5 19.25H6.5V20.75H18.5V19.25ZM6.5 19.25C5.80964 19.25 5.25 18.6904 5.25 18H3.75C3.75 19.5188 4.98122 20.75 6.5 20.75V19.25ZM19.75 18C19.75 18.6904 19.1904 19.25 18.5 19.25V20.75C20.0188 20.75 21.25 19.5188 21.25 18H19.75ZM21.25 18V12H19.75V18H21.25ZM3.75 12V18H5.25V12H3.75ZM6.5 6.75H18.5V5.25H6.5V6.75ZM6.5 13.25C5.80964 13.25 5.25 12.6904 5.25 12H3.75C3.75 13.5188 4.98122 14.75 6.5 14.75V13.25ZM19.75 12C19.75 12.6904 19.1904 13.25 18.5 13.25V14.75C20.0188 14.75 21.25 13.5188 21.25 12H19.75ZM18.5 6.75C19.1904 6.75 19.75 7.30964 19.75 8H21.25C21.25 6.48122 20.0188 5.25 18.5 5.25V6.75ZM6.5 5.25C4.98122 5.25 3.75 6.48122 3.75 8H5.25C5.25 7.30964 5.80964 6.75 6.5 6.75V5.25ZM18.5 13.25H12.5V14.75H18.5V13.25ZM12.5 13.25H6.5V14.75H12.5V13.25ZM21.25 12V8H19.75V12H21.25ZM3.75 8V12H5.25V8H3.75ZM16.25 6V5H14.75V6H16.25ZM13.5 2.25H11.5V3.75H13.5V2.25ZM8.75 5V6H10.25V5H8.75ZM11.5 2.25C9.98122 2.25 8.75 3.48122 8.75 5H10.25C10.25 4.30964 10.8096 3.75 11.5 3.75V2.25ZM16.25 5C16.25 3.48122 15.0188 2.25 13.5 2.25V3.75C14.1904 3.75 14.75 4.30964 14.75 5H16.25Z" fill="white"/>
</svg>
