<svg width="24" height="24" viewBox="0 0 24 24" fill="none" xmlns="http://www.w3.org/2000/svg">
<path d="M7 8.125C6.58579 8.125 6.25 8.46079 6.25 8.875C6.25 9.28921 6.58579 9.625 7 9.625V8.125ZM15.75 9.625C16.1642 9.625 16.5 9.28921 16.5 8.875C16.5 8.46079 16.1642 8.125 15.75 8.125V9.625ZM7 13.125C6.58579 13.125 6.25 13.4608 6.25 13.875C6.25 14.2892 6.58579 14.625 7 14.625V13.125ZM13.25 14.625C13.6642 14.625 14 14.2892 14 13.875C14 13.4608 13.6642 13.125 13.25 13.125V14.625ZM16.125 20.8751L16.3622 20.1635C16.1303 20.0862 15.8752 20.1268 15.6787 20.2723L16.125 20.8751ZM23.25 23.2501L23.0129 23.9616C23.2824 24.0514 23.5795 23.9813 23.7804 23.7804C23.9812 23.5795 24.0514 23.2824 23.9615 23.0129L23.25 23.2501ZM20.875 16.1251L20.2584 15.6982C20.124 15.8923 20.0889 16.1383 20.1635 16.3622L20.875 16.1251ZM7 9.625H15.75V8.125H7V9.625ZM7 14.625H13.25V13.125H7V14.625ZM15.8879 21.5866L23.0129 23.9616L23.4872 22.5385L16.3622 20.1635L15.8879 21.5866ZM23.9615 23.0129L21.5865 15.8879L20.1635 16.3622L22.5385 23.4872L23.9615 23.0129ZM11.375 21.25C5.92119 21.25 1.5 16.8288 1.5 11.375H0C0 17.6572 5.09276 22.75 11.375 22.75V21.25ZM1.5 11.375C1.5 5.92119 5.92119 1.5 11.375 1.5V0C5.09276 0 0 5.09276 0 11.375H1.5ZM11.375 1.5C16.8288 1.5 21.25 5.92119 21.25 11.375H22.75C22.75 5.09276 17.6572 0 11.375 0V1.5ZM16.125 20.8751C15.6787 20.2723 15.679 20.2721 15.6793 20.2719C15.6794 20.2718 15.6797 20.2716 15.6798 20.2715C15.6802 20.2712 15.6805 20.271 15.6808 20.2708C15.6814 20.2703 15.682 20.2699 15.6824 20.2696C15.6833 20.269 15.6838 20.2686 15.684 20.2685C15.6843 20.2682 15.6832 20.269 15.6806 20.2708C15.6755 20.2744 15.6646 20.2818 15.6479 20.2925C15.6144 20.314 15.5577 20.3488 15.4774 20.3928C15.3168 20.4806 15.0614 20.6049 14.7083 20.7316C14.0033 20.9846 12.9014 21.25 11.375 21.25V22.75C13.0794 22.75 14.3525 22.4529 15.2149 22.1434C15.6454 21.989 15.9718 21.832 16.197 21.7089C16.3095 21.6474 16.3967 21.5943 16.459 21.5543C16.4901 21.5343 16.515 21.5175 16.5337 21.5046C16.5431 21.4981 16.5509 21.4926 16.5572 21.4881C16.5603 21.4859 16.5631 21.4839 16.5654 21.4822C16.5666 21.4813 16.5677 21.4805 16.5687 21.4798C16.5692 21.4794 16.5696 21.4791 16.5701 21.4787C16.5703 21.4786 16.5706 21.4783 16.5707 21.4783C16.5711 21.478 16.5714 21.4778 16.125 20.8751ZM21.25 11.375C21.25 12.8458 20.9855 13.949 20.7303 14.6723C20.6025 15.0345 20.4766 15.3024 20.3866 15.4741C20.3415 15.5599 20.3055 15.6217 20.2827 15.6592C20.2713 15.6779 20.2632 15.6905 20.259 15.6971C20.2569 15.7003 20.2557 15.702 20.2556 15.7022C20.2555 15.7023 20.2557 15.702 20.2562 15.7014C20.2564 15.701 20.2567 15.7006 20.2571 15.7001C20.2573 15.6998 20.2575 15.6995 20.2577 15.6992C20.2578 15.699 20.258 15.6988 20.258 15.6987C20.2582 15.6984 20.2584 15.6982 20.875 16.1251C21.4917 16.5519 21.4919 16.5517 21.4921 16.5514C21.4921 16.5513 21.4923 16.551 21.4925 16.5508C21.4928 16.5504 21.4931 16.5499 21.4934 16.5495C21.494 16.5485 21.4947 16.5475 21.4955 16.5464C21.497 16.5441 21.4989 16.5415 21.5009 16.5384C21.5051 16.5322 21.5102 16.5244 21.5163 16.515C21.5286 16.4962 21.5447 16.4709 21.564 16.4391C21.6028 16.3755 21.6546 16.2859 21.7151 16.1705C21.836 15.9399 21.9913 15.6062 22.1448 15.1715C22.452 14.301 22.75 13.0292 22.75 11.375H21.25Z" fill="white"/>
</svg>
