<svg width="27" height="43" viewBox="0 0 27 43" fill="none" xmlns="http://www.w3.org/2000/svg">
<path d="M19.083 32.3846C19.083 32.4339 19.0813 32.483 19.0806 32.5322H16.7744C16.7762 32.4707 16.7776 32.409 16.7783 32.3474C16.7792 32.2966 16.7799 32.2458 16.78 32.1952C16.7817 31.4291 16.6055 30.6849 16.5845 30.3949C15.9791 25.9727 13.0921 24.08 13.0305 24.0402C12.8314 24.2123 10.0043 26.5081 9.46654 30.4537C9.44623 30.7432 9.2836 31.4938 9.27406 32.2604C9.27266 32.3112 9.27204 32.3622 9.27222 32.4132C9.27239 32.4529 9.27292 32.4925 9.27362 32.5322H6.9727C6.97182 32.483 6.97034 32.434 6.97034 32.3846C6.97034 28.4949 8.62213 25.7344 10.2004 23.984H10.1554C11.5046 21.1397 11.7477 17.9577 11.6088 14.7994C11.4759 11.7808 11.3766 7.88571 11.2629 4.86642C11.2009 3.21682 11.5963 1.68976 12.7142 0.357628C12.7819 0.276925 12.9932 0.074379 13.0511 0.0373535C13.0511 0.0373535 13.3199 0.2799 13.3875 0.360341C14.5053 1.69256 14.9007 3.21953 14.8386 4.86905C14.725 7.88824 14.6257 11.7834 14.4928 14.802C14.3546 17.945 14.5004 21.1625 15.8894 23.9656C17.4564 25.6958 19.083 28.441 19.083 32.3844V32.3846Z" fill="url(#paint0_linear_714_16420)"/>
<path d="M-7.38962e-05 4.34237C0.0663619 4.352 0.112399 4.34885 0.149162 4.36592C0.254637 4.41476 0.360027 4.46579 0.459024 4.52636C1.81391 5.35607 2.98551 6.39348 3.97355 7.63782C5.95639 10.1351 6.92246 13.0051 7.17298 16.1613C7.30628 17.8428 7.55093 19.5155 7.73948 21.1927C7.8348 22.0406 7.91664 22.89 8.00539 23.7457C7.17298 23.6086 6.52674 23.9135 5.97284 24.4175C5.21465 25.1075 5.08896 26.2249 5.73765 27.0202C6.03438 27.384 6.48376 27.6429 6.90417 27.8873C6.91993 27.8964 6.93533 27.905 6.95056 27.9133C6.71703 28.5688 6.52691 29.2758 6.39702 30.0355C6.34774 30.0175 6.29487 29.9982 6.26458 29.9876C4.50469 29.3703 3.42071 28.1721 3.15523 26.3026C2.92923 24.7108 3.80567 23.0233 5.29658 22.1684C5.55103 22.0225 5.63174 21.8858 5.59567 21.5928C5.36678 19.7295 5.12388 17.8667 4.95486 15.9974C4.79827 14.2662 4.31449 12.6654 3.5584 11.0914C3.20574 10.3571 2.20386 8.89379 2.20386 8.89379C2.20386 8.89379 2.20386 25.2699 2.20386 33.4146H11.0488V35.3884H9.56677C10.0112 37.5153 11.088 38.9384 11.9241 39.7635V33.0529C11.7991 32.5284 11.4039 31.8267 10.2246 31.4738C10.1652 31.4561 10.106 31.4355 10.0465 31.4148C10.0849 31.1006 10.1271 30.8429 10.136 30.7043C10.1931 30.2427 10.2773 29.812 10.3799 29.4091C10.585 29.4742 10.7551 29.5301 10.8765 29.5741C11.6194 29.8426 12.775 30.8137 13.0226 31.0138C13.27 30.8137 14.4256 29.8426 15.1686 29.5741C15.29 29.5301 15.4601 29.4742 15.6651 29.4091C15.7677 29.812 15.8519 30.2426 15.9091 30.7043C15.918 30.8429 15.9601 31.1006 15.9985 31.4148C15.9392 31.4355 15.8798 31.4561 15.8204 31.4738C14.6633 31.8201 14.261 32.5023 14.1282 33.0233V39.738C14.96 38.9 16.0311 37.472 16.4804 35.3883H14.9889V33.4146H23.8488V8.89371C23.8488 8.89371 22.847 10.3571 22.4943 11.0913C21.7382 12.6652 21.2544 14.2661 21.0978 15.9973C20.9287 17.8666 20.6859 19.7294 20.457 21.5927C20.4209 21.8858 20.5016 22.0224 20.7561 22.1683C22.247 23.0233 23.1234 24.7108 22.8974 26.3025C22.6319 28.1719 21.548 29.3702 19.7881 29.9876C19.7592 29.9977 19.7097 30.0157 19.6623 30.0331C19.5359 29.2684 19.3503 28.5586 19.1217 27.9022C19.1306 27.8972 19.1394 27.8924 19.1485 27.8872C19.5689 27.6428 20.0184 27.3839 20.315 27.0201C20.9637 26.2248 20.8381 25.1074 20.0798 24.4175C19.5259 23.9134 18.8797 23.6085 18.0473 23.7456C18.136 22.8899 18.2179 22.0406 18.3132 21.1926C18.5016 19.5154 18.7463 17.8428 18.8797 16.1612C19.1301 13.005 20.0962 10.135 22.0791 7.63773C23.0671 6.39339 24.2387 5.35607 25.5936 4.52628C25.6926 4.4657 25.798 4.41467 25.9035 4.36583C25.9403 4.34885 25.9863 4.352 26.0527 4.34229V35.3885H18.8509C17.7436 40.6103 13.0263 42.9627 13.0263 42.9627C13.0263 42.9627 8.28497 40.7137 7.1932 35.3885H-0.000341019V4.34229L-7.38962e-05 4.34237Z" fill="url(#paint1_linear_714_16420)"/>
<defs>
<linearGradient id="paint0_linear_714_16420" x1="19.8905" y1="3.34369" x2="-1.7163" y2="12.9079" gradientUnits="userSpaceOnUse">
<stop offset="0.0500988" stop-color="#F07E3D"/>
<stop offset="1" stop-color="#D61544"/>
</linearGradient>
<linearGradient id="paint1_linear_714_16420" x1="27.7896" y1="8.2719" x2="-6.06502" y2="35.392" gradientUnits="userSpaceOnUse">
<stop offset="0.0500988" stop-color="#F07E3D"/>
<stop offset="1" stop-color="#D61544"/>
</linearGradient>
</defs>
</svg>
