<svg width="20" height="19" viewBox="0 0 20 19" fill="none" xmlns="http://www.w3.org/2000/svg">
<path d="M10.4776 0.798595C10.4865 0.82524 10.4976 0.851088 10.5109 0.875864L12.7888 5.13584C12.812 5.17938 12.8416 5.21923 12.8766 5.2541L12.8886 5.26612C13.0223 5.39951 13.186 5.56293 13.3572 5.69101C13.5218 5.81418 13.7596 5.95687 14.049 5.96763L18.8633 6.53339C18.8827 6.53566 18.9022 6.5368 18.9216 6.53681C19.0561 6.53682 19.27 6.66982 19.3724 6.97622C19.4671 7.2596 19.3969 7.48687 19.2142 7.60841C19.1868 7.62664 19.1612 7.64752 19.138 7.67077L15.7241 11.0781C15.2907 11.5106 15.2919 11.9938 15.293 12.4953C15.2931 12.5195 15.2931 12.5437 15.2931 12.5679C15.2931 12.5971 15.2957 12.6263 15.3008 12.655L16.156 17.4828C16.1602 17.507 16.1663 17.5308 16.1741 17.5541C16.2257 17.7085 16.1706 17.9325 15.9097 18.1409C15.6623 18.3384 15.3566 18.4094 15.1327 18.351L10.9627 16.1315C10.7125 15.917 10.3904 15.8301 10.1026 15.8301C9.81477 15.83 9.49279 15.9168 9.24272 16.1313L5.03067 18.3729C5.01625 18.3806 5.00223 18.389 4.98864 18.398C4.76441 18.5472 4.49168 18.5228 4.27132 18.3688C4.04136 18.2082 3.9796 17.9943 4.03221 17.8367C4.03999 17.8134 4.04604 17.7895 4.05031 17.7653L4.90259 12.9378C4.90767 12.909 4.91021 12.8799 4.91021 12.8507L4.9102 12.8424C4.91018 12.7017 4.91014 12.4546 4.86761 12.2004C4.82615 11.9525 4.73178 11.6136 4.47837 11.3608C4.47366 11.3561 4.46884 11.3515 4.46394 11.347L0.76344 7.93877C0.744138 7.92099 0.723466 7.90476 0.701618 7.89022C0.518862 7.76864 0.448434 7.54135 0.543005 7.25799C0.645257 6.95162 0.859043 6.81867 0.993502 6.81869C1.02257 6.81869 1.05159 6.81616 1.08022 6.81112L5.88275 5.9659C6.13479 5.95237 6.41358 5.84332 6.62138 5.7189C6.73956 5.64814 6.86589 5.55432 6.96872 5.43589C7.04696 5.34578 7.13705 5.21134 7.17077 5.03996L9.11017 0.890351C9.29102 0.64229 9.60771 0.501124 9.92016 0.501161C10.2511 0.5012 10.4266 0.646034 10.4776 0.798595Z" stroke="#797A8D" stroke-miterlimit="10" stroke-linecap="round" stroke-linejoin="round"/>
</svg>
