<svg width="154" height="70" viewBox="0 0 154 70" fill="none" xmlns="http://www.w3.org/2000/svg">
<path fill-rule="evenodd" clip-rule="evenodd" d="M13 41.0872V41.0068C13 33.0865 19.1531 26.3792 27.8112 26.3792C32.1193 26.3792 34.9904 27.3884 37.6169 29.2475C37.9345 29.48 38.1929 29.784 38.3711 30.1349C38.5494 30.4859 38.6425 30.8739 38.643 31.2676C38.643 32.6021 37.5356 33.7337 36.1398 33.7337C35.4834 33.7337 34.9913 33.4503 34.5805 33.167C32.7346 31.8343 30.7243 30.9441 27.6058 30.9441C22.3136 30.9441 18.2931 35.5115 18.2931 40.9254V41.0068C18.2931 46.8256 22.1904 51.1088 28.0577 51.1088C30.7654 51.1088 33.2267 50.2606 34.9913 48.9672V43.6739H29.3294C28.0979 43.6739 27.0735 42.7452 27.0735 41.5332C27.0735 40.3203 28.0979 39.3505 29.3294 39.3505H37.3302C38.7654 39.3505 39.8736 40.4418 39.8736 41.8568V49.4123C39.8736 50.8264 39.2994 51.8373 38.1098 52.564C35.6477 54.1809 32.2014 55.6352 27.8942 55.6352C18.9075 55.6343 13 49.3319 13 41.0872ZM44.3984 27.8737C44.3984 26.5401 45.4648 25.4488 46.8588 25.4488C48.2546 25.4488 49.362 26.5401 49.362 27.8737V52.9278C49.362 54.3016 48.2538 55.3518 46.8588 55.3518C45.5058 55.3518 44.3984 54.3024 44.3984 52.9269V27.8729V27.8737ZM53.2077 44.6035V44.5213C53.2077 38.42 58.1302 33.369 64.7772 33.369C71.4233 33.369 76.3064 38.3396 76.3064 44.4417V44.5213C76.3064 50.5841 71.3831 55.6352 64.695 55.6352C58.0892 55.6352 53.2077 50.6646 53.2077 44.6035ZM71.342 44.6035V44.5213C71.342 40.7645 68.5923 37.6531 64.695 37.6531C60.7147 37.6531 58.1713 40.7243 58.1713 44.4417V44.5213C58.1713 48.2396 60.9201 51.3511 64.7772 51.3511C68.7977 51.3511 71.3411 48.2799 71.3411 44.6035H71.342ZM88.701 55.5538H88.4545C87.1015 55.5538 86.1978 54.7056 85.6244 53.4113L78.405 37.1267C78.2809 36.7629 78.1165 36.3606 78.1165 35.9146C78.1165 34.7026 79.2239 33.571 80.5778 33.571C81.9308 33.571 82.6283 34.3388 83.0391 35.3497L88.6188 49.4919L94.2808 35.2693C94.6505 34.4201 95.306 33.571 96.6196 33.571C97.9735 33.571 99.0398 34.5819 99.0398 35.9146C99.0398 36.3606 98.8764 36.8451 98.754 37.0864L91.5328 53.4122C90.956 54.6645 90.0557 55.5547 88.701 55.5547V55.5538ZM100.85 44.6035V44.5213C100.85 38.42 105.773 33.369 112.422 33.369C119.066 33.369 123.95 38.3396 123.95 44.4417V44.5213C123.95 50.5841 119.026 55.6352 112.338 55.6352C105.733 55.6352 100.85 50.6646 100.85 44.6035ZM118.986 44.6035V44.5213C118.986 40.7645 116.236 37.6531 112.338 37.6531C108.359 37.6531 105.815 40.7243 105.815 44.4417V44.5213C105.815 48.2396 108.563 51.3511 112.421 51.3511C116.441 51.3511 118.985 48.2799 118.985 44.6035H118.986Z" fill="#00A082"/>
<path fill-rule="evenodd" clip-rule="evenodd" d="M132.252 14C126.877 14 122.504 18.3086 122.504 23.6019C122.504 25.6184 123.14 27.5545 124.342 29.2003L124.602 29.5545L129.676 36.609C129.676 36.609 130.296 37.6059 131.646 37.6059H132.858C134.21 37.6059 134.827 36.609 134.827 36.609L139.903 29.5545L140.16 29.2003C141.355 27.5786 142 25.6167 142 23.6019C142 18.3086 137.627 14 132.252 14ZM136.264 26.4369L135.994 26.8095L132.253 32.01L128.517 26.82L128.243 26.4431C127.634 25.6207 127.306 24.6249 127.304 23.6019C127.304 20.9146 129.524 18.7283 132.251 18.7283C134.98 18.7283 137.199 20.9146 137.199 23.6019C137.199 24.6206 136.875 25.6009 136.264 26.4369ZM129.51 41.9372V41.918C129.51 40.4838 130.666 39.2954 132.228 39.2954C133.792 39.2954 134.939 40.4637 134.939 41.8987V41.918C134.939 43.3416 133.781 44.5292 132.21 44.5292C130.659 44.5292 129.509 43.3617 129.509 41.9372H129.51Z" fill="#F2CC38"/>
</svg>
