<svg width="40" height="40" viewBox="0 0 40 40" fill="none" xmlns="http://www.w3.org/2000/svg">
<path d="M39.5 20C39.5 30.7696 30.7696 39.5 20 39.5C9.23045 39.5 0.5 30.7696 0.5 20C0.5 9.23045 9.23045 0.5 20 0.5C30.7696 0.5 39.5 9.23045 39.5 20Z" fill="#F2CC39" stroke="#493F58" stroke-miterlimit="10"/>
<path d="M12.0417 36C9.74322 34.8561 7.71656 33.2513 6.09367 31.29C4.47078 29.3286 3.28803 27.0548 2.62242 24.6164C1.9568 22.178 1.82324 19.6297 2.23042 17.1375C2.6376 14.6452 3.5764 12.2648 4.98572 10.1512C6.39503 8.03759 8.24326 6.23817 10.4101 4.87005C12.577 3.50193 15.0139 2.59578 17.5622 2.21059C20.1105 1.82539 22.7132 1.96978 25.2007 2.63435C27.6883 3.29893 30.005 4.90099 32 6.5" stroke="white" stroke-linecap="round" stroke-linejoin="round"/>
<path d="M34.4197 23.2594H5.58008C6.40999 26.961 8.63473 30.2003 11.7917 32.3038C12.6187 30.8778 13.8217 29.7066 15.2693 28.9182C16.7169 28.1297 18.3533 27.7542 19.9999 27.8328C21.6464 27.7542 23.2829 28.1297 24.7304 28.9182C26.178 29.7066 27.381 30.8778 28.2081 32.3038C31.365 30.2003 33.5898 26.961 34.4197 23.2594Z" fill="#CE5E9A" stroke="#493F58" stroke-linecap="round" stroke-linejoin="round"/>
<path d="M19.9997 27.8328C18.3532 27.7542 16.7167 28.1296 15.2691 28.9181C13.8215 29.7066 12.6185 30.8778 11.7915 32.3038C14.2205 33.9289 17.0772 34.7964 19.9997 34.7964C22.9222 34.7964 25.7789 33.9289 28.2079 32.3038C27.3809 30.8778 26.1778 29.7066 24.7303 28.9181C23.2827 28.1296 21.6462 27.7542 19.9997 27.8328Z" fill="#DC97BE" stroke="#493F58" stroke-linecap="round" stroke-linejoin="round"/>
<path d="M23.8396 15.256C23.8035 14.6994 23.882 14.1412 24.0702 13.6161C24.2585 13.091 24.5524 12.6101 24.9339 12.2032C25.3153 11.7962 25.7762 11.4718 26.288 11.25C26.7999 11.0282 27.3517 10.9138 27.9096 10.9138C28.4674 10.9138 29.0192 11.0282 29.5311 11.25C30.0429 11.4718 30.5038 11.7962 30.8853 12.2032C31.2667 12.6101 31.5606 13.091 31.7489 13.6161C31.9371 14.1412 32.0156 14.6994 31.9795 15.256" fill="#F2CC39"/>
<path d="M23.8396 15.256C23.8035 14.6994 23.882 14.1412 24.0702 13.6161C24.2585 13.091 24.5524 12.6101 24.9339 12.2032C25.3153 11.7962 25.7762 11.4718 26.288 11.25C26.7999 11.0282 27.3517 10.9138 27.9096 10.9138C28.4674 10.9138 29.0192 11.0282 29.5311 11.25C30.0429 11.4718 30.5038 11.7962 30.8852 12.2032C31.2667 12.6101 31.5606 13.091 31.7489 13.6161C31.9371 14.1412 32.0156 14.6994 31.9795 15.256" stroke="#493F58" stroke-linecap="round" stroke-linejoin="round"/>
<path d="M8.24242 15.256C8.20636 14.6994 8.28486 14.1412 8.47308 13.6161C8.66129 13.091 8.95522 12.6101 9.33669 12.2032C9.71815 11.7962 10.179 11.4718 10.6909 11.25C11.2027 11.0282 11.7546 10.9138 12.3124 10.9138C12.8702 10.9138 13.4221 11.0282 13.9339 11.25C14.4457 11.4718 14.9066 11.7962 15.2881 12.2032C15.6695 12.6101 15.9635 13.091 16.1517 13.6161C16.3399 14.1412 16.4184 14.6994 16.3824 15.256" fill="#F2CC39"/>
<path d="M8.24242 15.256C8.20636 14.6994 8.28486 14.1412 8.47308 13.6161C8.66129 13.091 8.95522 12.6101 9.33669 12.2032C9.71815 11.7962 10.179 11.4718 10.6909 11.25C11.2027 11.0282 11.7546 10.9138 12.3124 10.9138C12.8702 10.9138 13.4221 11.0282 13.9339 11.25C14.4457 11.4718 14.9066 11.7962 15.2881 12.2032C15.6695 12.6101 15.9635 13.091 16.1517 13.6161C16.3399 14.1412 16.4184 14.6994 16.3824 15.256" stroke="#493F58" stroke-linecap="round" stroke-linejoin="round"/>
</svg>
