<svg width="40" height="40" viewBox="0 0 40 40" fill="none" xmlns="http://www.w3.org/2000/svg">
<rect width="40" height="40" rx="15" fill="url(#paint0_linear_603_14389)"/>
<path d="M23.375 11H16.625C13.5189 11 11 13.5189 11 16.625V23.375C11 26.4811 13.5189 29 16.625 29H23.375C26.4811 29 29 26.4811 29 23.375V16.625C29 13.5189 26.4811 11 23.375 11ZM27.3125 23.375C27.3125 25.5463 25.5463 27.3125 23.375 27.3125H16.625C14.4538 27.3125 12.6875 25.5463 12.6875 23.375V16.625C12.6875 14.4538 14.4538 12.6875 16.625 12.6875H23.375C25.5463 12.6875 27.3125 14.4538 27.3125 16.625V23.375Z" fill="white"/>
<path d="M20 15.5C17.5149 15.5 15.5 17.5149 15.5 20C15.5 22.4851 17.5149 24.5 20 24.5C22.4851 24.5 24.5 22.4851 24.5 20C24.5 17.5149 22.4851 15.5 20 15.5ZM20 22.8125C18.4497 22.8125 17.1875 21.5502 17.1875 20C17.1875 18.4486 18.4497 17.1875 20 17.1875C21.5502 17.1875 22.8125 18.4486 22.8125 20C22.8125 21.5502 21.5502 22.8125 20 22.8125Z" fill="white"/>
<path d="M24.836 15.7622C25.1671 15.7622 25.4356 15.4938 25.4356 15.1626C25.4356 14.8314 25.1671 14.563 24.836 14.563C24.5048 14.563 24.2363 14.8314 24.2363 15.1626C24.2363 15.4938 24.5048 15.7622 24.836 15.7622Z" fill="white"/>
<defs>
<linearGradient id="paint0_linear_603_14389" x1="-2.66666" y1="4.06999" x2="32.7393" y2="46.1143" gradientUnits="userSpaceOnUse">
<stop stop-color="#D61544"/>
<stop offset="1" stop-color="#F07E3D"/>
</linearGradient>
</defs>
</svg>
