<svg width="201" height="65" viewBox="0 0 201 65" fill="none" xmlns="http://www.w3.org/2000/svg">
<path fill-rule="evenodd" clip-rule="evenodd" d="M0.0712891 42.1487V42.024C0.0712891 29.7445 9.61106 19.3455 23.0345 19.3455C29.7137 19.3455 34.1651 20.9101 38.2372 23.7925C38.7295 24.1529 39.1302 24.6242 39.4065 25.1683C39.6829 25.7125 39.8273 26.3141 39.828 26.9244C39.828 28.9934 38.1111 30.7478 35.9471 30.7478C34.9294 30.7478 34.1665 30.3085 33.5296 29.8692C30.6677 27.803 27.551 26.4228 22.7161 26.4228C14.511 26.4228 8.27766 33.5041 8.27766 41.8979V42.024C8.27766 51.0454 14.32 57.6861 23.4166 57.6861C27.6147 57.6861 31.4306 56.371 34.1665 54.3658V46.1591H25.3883C23.479 46.1591 21.8908 44.7193 21.8908 42.8401C21.8908 40.9596 23.479 39.4561 25.3883 39.4561H37.7927C40.0177 39.4561 41.736 41.1481 41.736 43.3418V55.0559C41.736 57.2482 40.8457 58.8155 39.0014 59.9422C35.1842 62.449 29.8411 64.7037 23.1632 64.7037C9.23028 64.7024 0.0712891 54.9311 0.0712891 42.1487ZM48.7512 21.6626C48.7512 19.595 50.4044 17.903 52.5658 17.903C54.7298 17.903 56.4467 19.595 56.4467 21.6626V60.5062C56.4467 62.6361 54.7285 64.2645 52.5658 64.2645C50.4681 64.2645 48.7512 62.6375 48.7512 60.5048V21.6612V21.6626ZM62.4091 47.6003V47.4729C62.4091 38.0135 70.0409 30.1824 80.3463 30.1824C90.6503 30.1824 98.2212 37.8888 98.2212 47.3495V47.4729C98.2212 56.8726 90.588 64.7037 80.2189 64.7037C69.9772 64.7037 62.4091 56.9974 62.4091 47.6003ZM90.5243 47.6003V47.4729C90.5243 41.6484 86.2612 36.8245 80.2189 36.8245C74.0479 36.8245 70.1046 41.586 70.1046 47.3495V47.4729C70.1046 53.2378 74.3663 58.0617 80.3463 58.0617C86.5797 58.0617 90.523 53.3001 90.523 47.6003H90.5243ZM117.438 64.5776H117.055C114.958 64.5776 113.557 63.2625 112.668 61.2559L101.475 36.0083C101.282 35.4443 101.028 34.8206 101.028 34.1291C101.028 32.25 102.744 30.4956 104.843 30.4956C106.941 30.4956 108.022 31.686 108.659 33.2533L117.31 55.1793L126.088 33.1286C126.662 31.8121 127.678 30.4956 129.715 30.4956C131.814 30.4956 133.467 32.0629 133.467 34.1291C133.467 34.8206 133.213 35.5717 133.024 35.9459L121.828 61.2573C120.934 63.1988 119.538 64.579 117.438 64.579V64.5776ZM136.273 47.6003V47.4729C136.273 38.0135 143.906 30.1824 154.214 30.1824C164.516 30.1824 172.087 37.8888 172.087 47.3495V47.4729C172.087 56.8726 164.453 64.7037 154.084 64.7037C143.844 64.7037 136.273 56.9974 136.273 47.6003ZM164.391 47.6003V47.4729C164.391 41.6484 160.128 36.8245 154.084 36.8245C147.915 36.8245 143.971 41.586 143.971 47.3495V47.4729C143.971 53.2378 148.232 58.0617 154.213 58.0617C160.445 58.0617 164.39 53.3001 164.39 47.6003H164.391Z" fill="#00A082"/>
<path fill-rule="evenodd" clip-rule="evenodd" d="M184.958 0.152832C176.624 0.152832 169.845 6.83285 169.845 15.0395C169.845 18.166 170.831 21.1677 172.694 23.7193L173.097 24.2684L180.965 35.2056C180.965 35.2056 181.925 36.7512 184.019 36.7512H185.898C187.993 36.7512 188.95 35.2056 188.95 35.2056L196.82 24.2684L197.219 23.7193C199.072 21.2051 200.071 18.1633 200.071 15.0395C200.071 6.83285 193.292 0.152832 184.958 0.152832ZM191.178 19.435L190.759 20.0126L184.959 28.0755L179.168 20.0288L178.742 19.4445C177.799 18.1694 177.289 16.6257 177.287 15.0395C177.287 10.8731 180.729 7.48363 184.957 7.48363C189.187 7.48363 192.628 10.8731 192.628 15.0395C192.628 16.619 192.126 18.1388 191.178 19.435ZM180.707 43.4665V43.4367C180.707 41.2132 182.5 39.3706 184.921 39.3706C187.346 39.3706 189.123 41.182 189.123 43.4068V43.4367C189.123 45.6439 187.329 47.4851 184.893 47.4851C182.488 47.4851 180.706 45.6751 180.706 43.4665H180.707Z" fill="#00A082"/>
</svg>
