<svg width="378" height="70" viewBox="0 0 378 70" fill="none" xmlns="http://www.w3.org/2000/svg">
<path fill-rule="evenodd" clip-rule="evenodd" d="M42.6697 52.7864C42.6697 48.9182 42.5925 45.1257 42.5925 41.2575C34.7993 41.2575 27.0061 41.2575 19.2901 41.2575C15.0463 45.1257 10.8024 48.9182 6.55863 52.7864C4.39814 52.7864 2.16049 52.7864 0 52.7864C13.1944 40.8024 26.5431 28.7425 39.8147 16.7585C42.2067 16.7585 44.5215 16.7585 46.9135 16.7585C46.9135 28.7425 46.9135 40.7265 46.9135 52.7864C45.5246 52.7864 44.0585 52.7864 42.6697 52.7864ZM42.6697 19.9441C35.8795 26.0878 29.1666 32.3074 22.3765 38.3752C29.0894 38.3752 35.8795 38.3752 42.5925 38.3752C42.6697 32.3074 42.6697 26.0878 42.6697 19.9441ZM54.6295 52.7864C54.6295 40.8024 54.6295 28.8184 54.6295 16.7585C56.0184 16.7585 57.3301 16.7585 58.719 16.7585C58.719 27.6806 58.719 38.6028 58.719 49.4491C65.9721 49.4491 73.2251 49.4491 80.5554 49.4491C80.3239 50.511 80.1696 51.6487 79.9381 52.7106C71.5276 52.7864 63.1171 52.7864 54.6295 52.7864ZM87.0368 53.3174C88.4257 53.3174 89.8146 53.3174 91.1263 53.3174C91.1263 42.3952 91.1263 31.4731 91.1263 20.5509C95.5245 20.5509 99.8454 20.5509 104.244 20.5509C104.475 19.489 104.629 18.4271 104.861 17.3653C94.83 17.3653 84.722 17.3653 74.6912 17.3653C74.4597 18.4271 74.3054 19.489 74.0739 20.5509C78.3949 20.5509 82.7159 20.5509 87.0368 20.5509C87.0368 31.4731 87.0368 42.3952 87.0368 53.3174ZM138.657 51.1936C137.885 51.5728 136.882 51.9521 135.725 52.2555C134.568 52.5589 133.333 52.8623 132.021 53.1657C130.71 53.3932 129.398 53.6208 127.932 53.7725C126.466 53.9241 125.154 54 123.842 54C120.987 54 118.441 53.7724 116.281 53.3174C114.043 52.8623 112.191 51.9521 110.648 50.6627C109.105 49.3732 107.947 47.477 107.176 45.1257C106.404 42.6986 105.941 39.5888 105.941 35.7964C105.941 31.7764 106.327 28.515 107.176 25.9361C108.024 23.4331 109.259 21.5369 110.802 20.0958C112.345 18.6547 114.197 17.7445 116.281 17.2894C118.364 16.8343 120.756 16.5309 123.302 16.5309C126.08 16.5309 128.472 16.7585 130.555 17.2894C132.639 17.8204 134.413 18.7305 135.879 20.0958C137.345 21.4611 138.426 23.3573 139.197 25.6327C139.969 27.984 140.355 31.018 140.355 34.7345C140.355 35.1896 140.355 35.7206 140.355 36.1756C130.324 36.1756 120.216 36.1756 110.185 36.1756C110.262 39.2854 110.494 41.7884 111.034 43.6846C111.574 45.5808 112.423 47.022 113.503 48.0838C114.66 49.1457 116.126 49.8283 117.978 50.1317C119.753 50.511 122.068 50.6627 124.614 50.6627C125.771 50.6627 126.929 50.5868 128.086 50.3593C129.321 50.1317 130.401 49.9042 131.558 49.6008C132.639 49.3733 133.642 48.994 134.49 48.6906C135.416 48.3872 136.111 48.1597 136.574 47.9321C137.345 49.2216 137.963 50.2076 138.657 51.1936ZM136.111 33.1417C136.034 30.2595 135.648 27.9082 135.031 26.1637C134.413 24.4192 133.564 23.0539 132.561 22.1437C131.481 21.2335 130.247 20.5509 128.703 20.2475C127.16 19.9441 125.385 19.7924 123.379 19.7924C121.605 19.7924 119.984 19.8683 118.441 20.0958C116.898 20.3234 115.586 20.8543 114.429 21.6886C113.271 22.5988 112.345 23.8882 111.651 25.6327C110.879 27.3772 110.494 29.8802 110.339 33.0659C118.904 33.1417 127.469 33.1417 136.111 33.1417ZM178.086 53.3174C177.16 53.4691 176.234 53.5449 175.463 53.4691C174.691 53.3932 173.842 53.1657 172.993 52.7864C172.222 52.4072 171.373 51.7245 170.524 50.8902C169.676 50.0559 168.75 48.994 167.669 47.477C165.895 45.0499 164.043 42.6986 162.345 40.2715C162.037 40.2715 161.651 40.2715 161.342 40.2715C157.793 40.2715 154.243 40.2715 150.617 40.2715C150.617 44.5948 150.617 48.9182 150.617 53.2415C149.228 53.2415 147.839 53.2415 146.527 53.2415C146.527 41.2575 146.527 29.2735 146.527 17.2136C151.466 17.2136 156.404 17.2136 161.265 17.2136C163.966 17.2136 166.203 17.3653 168.055 17.5928C169.83 17.8204 171.373 18.4271 172.453 19.2615C173.534 20.0958 174.382 21.2335 174.845 22.7505C175.308 24.2675 175.54 26.2395 175.54 28.7425C175.54 30.7146 175.385 32.3832 175.154 33.7485C174.922 35.1138 174.382 36.1756 173.688 37.0858C172.993 37.9202 172.145 38.6028 171.064 39.0579C169.984 39.513 168.595 39.8164 167.052 40.0439C168.518 41.9401 169.984 43.7605 171.45 45.6567C172.376 46.7944 173.071 47.7046 173.688 48.3114C174.845 49.7525 176.697 50.511 178.626 50.2076C178.549 51.3453 178.317 52.3313 178.086 53.3174ZM161.419 37.2375C163.194 37.2375 164.737 37.1617 165.972 37.01C167.206 36.8583 168.209 36.5549 169.058 36.024C169.83 35.493 170.37 34.6587 170.756 33.5968C171.142 32.5349 171.296 30.9421 171.296 28.9701C171.296 26.9222 171.142 25.3293 170.756 24.1916C170.37 23.0539 169.83 22.2954 169.058 21.7645C168.287 21.2335 167.284 20.9301 165.972 20.8543C164.737 20.7784 163.194 20.7026 161.419 20.7026C157.793 20.7026 154.243 20.7026 150.617 20.7026C150.617 26.2395 150.617 31.7764 150.617 37.3134C154.243 37.2375 157.87 37.2375 161.419 37.2375ZM269.59 52.7864C269.59 40.8024 269.59 28.8184 269.59 16.7585C278.695 16.7585 287.877 16.7585 296.982 16.7585C296.75 17.8204 296.596 18.8822 296.364 19.9441C288.803 19.9441 281.241 19.9441 273.679 19.9441C273.679 24.1158 273.679 28.2874 273.679 32.4591C279.852 32.4591 285.948 32.4591 292.121 32.4591C292.121 33.521 292.121 34.5828 292.121 35.6447C285.948 35.6447 279.852 35.6447 273.679 35.6447C273.679 40.1956 273.679 44.8224 273.679 49.4491C281.472 49.4491 289.189 49.4491 296.982 49.4491C296.75 50.511 296.596 51.6487 296.364 52.7106C287.491 52.7864 278.54 52.7864 269.59 52.7864ZM330.469 35.7964C326.534 35.7964 322.676 35.7964 318.741 35.7964C318.972 34.7345 319.127 33.6727 319.358 32.6108C324.296 32.6108 329.389 32.6108 334.327 32.6108C334.327 38.4511 334.327 44.4431 334.327 50.2834C333.556 50.7385 332.63 51.1936 331.55 51.497C330.469 51.8762 329.235 52.1796 327.923 52.483C326.611 52.7106 325.222 53.014 323.833 53.0898C322.367 53.2415 321.056 53.3174 319.667 53.3174C316.735 53.3174 314.188 53.0898 312.028 52.6347C309.79 52.1796 307.938 51.2695 306.395 49.9042C304.929 48.5389 303.772 46.6427 302.923 44.2156C302.151 41.7884 301.766 38.5269 301.766 34.507C301.766 30.487 302.151 27.3014 303.077 24.9501C303.926 22.523 305.161 20.6267 306.781 19.3373C308.401 18.0479 310.33 17.1377 312.568 16.6826C314.806 16.2275 317.352 16 320.207 16C322.83 16 325.377 16.2275 327.537 16.6068C329.775 16.986 331.704 17.5928 333.324 18.3513C332.707 19.3373 332.09 20.3234 331.395 21.3094C330.855 21.0818 330.161 20.9301 329.389 20.7026C328.617 20.475 327.691 20.2475 326.766 20.02C325.84 19.7924 324.759 19.6407 323.679 19.4132C322.599 19.2615 321.441 19.1856 320.284 19.1856C318.201 19.1856 316.349 19.3373 314.574 19.5649C312.8 19.7924 311.256 20.475 310.022 21.4611C308.787 22.4471 307.784 24.0399 307.013 26.012C306.241 28.0599 305.932 30.8663 305.932 34.3553C305.932 37.7685 306.164 40.4232 306.704 42.4711C307.167 44.519 308.016 46.1118 309.173 47.1736C310.33 48.2355 311.796 48.994 313.648 49.3732C315.5 49.7525 317.738 49.98 320.438 49.98C321.364 49.98 322.213 49.9042 323.216 49.7525C324.142 49.6008 325.068 49.4491 325.994 49.2974C326.92 49.0699 327.769 48.9182 328.54 48.6148C329.312 48.3872 330.006 48.0838 330.546 47.8563C330.469 43.988 330.469 39.8922 330.469 35.7964ZM359.636 19.2615C357.784 19.2615 356.009 19.3373 354.312 19.489C352.614 19.6407 351.071 20.2475 349.837 21.2335C348.602 22.2196 347.522 23.7365 346.75 25.8603C345.978 27.984 345.593 30.9421 345.593 34.8104C345.593 37.3892 345.747 39.513 346.133 41.3333C346.519 43.0778 346.982 44.5948 347.599 45.7325C348.216 46.8703 348.988 47.7804 349.837 48.3872C350.762 48.994 351.688 49.4491 352.691 49.7525C353.772 49.98 354.852 50.2076 356.009 50.2834C357.167 50.3593 358.401 50.3593 359.636 50.3593C360.87 50.3593 362.105 50.2834 363.262 50.2834C364.42 50.2076 365.5 50.0559 366.58 49.7525C367.661 49.5249 368.586 48.994 369.512 48.3872C370.438 47.7804 371.133 46.8703 371.75 45.7325C372.367 44.5948 372.83 43.1537 373.216 41.3333C373.602 39.5888 373.756 37.3892 373.756 34.8104C373.756 30.9421 373.37 27.984 372.522 25.8603C371.75 23.7365 370.67 22.2196 369.358 21.2335C368.046 20.2475 366.58 19.6407 364.883 19.489C363.262 19.3373 361.488 19.2615 359.636 19.2615ZM341.272 34.7345C341.272 30.7146 341.735 27.4531 342.738 25.0259C343.664 22.5988 344.975 20.7026 346.673 19.3373C348.293 18.0479 350.299 17.1377 352.46 16.6826C354.698 16.3034 357.09 16.0758 359.636 16.0758C362.182 16.0758 364.574 16.3034 366.812 16.6826C369.049 17.0619 370.978 17.9721 372.599 19.3373C374.219 20.6267 375.531 22.5988 376.534 25.0259C377.46 27.4531 378 30.7146 378 34.7345C378 38.7545 377.537 42.016 376.534 44.4431C375.608 46.8703 374.296 48.7665 372.599 50.1317C370.978 51.4212 368.972 52.3313 366.812 52.7864C364.574 53.1657 362.182 53.3932 359.636 53.3932C357.09 53.3932 354.698 53.1657 352.46 52.7864C350.222 52.4072 348.293 51.497 346.673 50.1317C345.053 48.7665 343.741 46.8703 342.738 44.4431C341.735 42.016 341.272 38.8303 341.272 34.7345Z" fill="white"/>
<path fill-rule="evenodd" clip-rule="evenodd" d="M203.341 53.6419L211.756 57.4985L200.895 69.9993L196.756 65.2118L198.951 56.7973L203.341 53.6419Z" fill="#EC3758"/>
<path fill-rule="evenodd" clip-rule="evenodd" d="M219.938 41.8125V52.2395L217.151 63.4554L211.756 57.4985L219.938 41.8125Z" fill="#F07E3D"/>
<path fill-rule="evenodd" clip-rule="evenodd" d="M211.756 57.4985L219.938 52.2395L217.151 63.4554L211.756 57.4985Z" fill="#F07E3D"/>
<path fill-rule="evenodd" clip-rule="evenodd" d="M210.293 48.7335L211.756 57.4985L219.938 41.8125L210.293 48.7335Z" fill="#F9B70B"/>
<path fill-rule="evenodd" clip-rule="evenodd" d="M203.341 53.6419L211.756 57.4985L210.293 48.7335L203.341 53.6419Z" fill="#F07E3D"/>
<path fill-rule="evenodd" clip-rule="evenodd" d="M203.341 53.6419L200.049 47.3311L197.488 49.7853L196.756 51.8889L203.341 53.6419Z" fill="#EC3758"/>
<path fill-rule="evenodd" clip-rule="evenodd" d="M203.341 53.6419L198.951 56.7973V54.6937L200.049 52.5901L203.341 53.6419Z" fill="#D61544"/>
<path fill-rule="evenodd" clip-rule="evenodd" d="M217.152 63.4548L210.293 68.7178L200.895 70L211.756 57.4985L217.152 63.4548Z" fill="#D61544"/>
<path fill-rule="evenodd" clip-rule="evenodd" d="M212.321 2.2798L200.049 13.3228L216.878 14.024L212.321 2.2798Z" fill="#03A7CC"/>
<path fill-rule="evenodd" clip-rule="evenodd" d="M200.049 13.3228L192 16.1276L197.122 21.036L200.049 13.3228Z" fill="#03A7CC"/>
<path fill-rule="evenodd" clip-rule="evenodd" d="M200.049 13.3228L212.321 2.2798L199.683 9.11562L192 16.1276L200.049 13.3228Z" fill="#58C9E9"/>
<path fill-rule="evenodd" clip-rule="evenodd" d="M216.878 14.024L200.049 13.3228L197.122 21.036L216.878 14.024Z" fill="#0290B0"/>
<path fill-rule="evenodd" clip-rule="evenodd" d="M213.993 19.907C213.343 21.1288 212.785 22.4379 212.135 23.6596C213.993 24.2705 215.851 24.8814 217.709 25.4923C218.173 25.6668 218.73 25.7541 219.195 25.9286C218.916 23.5724 218.452 21.2161 217.987 18.7725C217.709 17.2017 217.244 15.6308 216.873 14.06C215.851 16.0672 214.922 17.8998 213.993 19.907C213.993 19.8198 213.993 19.907 213.993 19.907Z" fill="#58C9E9"/>
<path fill-rule="evenodd" clip-rule="evenodd" d="M213.528 24.184C214.922 24.6203 216.315 25.0567 217.616 25.493C218.08 25.6675 219.009 26.1911 219.474 26.3657C219.195 24.4457 218.545 21.3913 218.08 19.3841L212.042 23.7476C212.135 23.8348 212.796 23.9546 213.528 24.184Z" fill="#0290B0"/>
<path d="M200.78 35.0601L207.366 30.8529L197.122 32.2553L200.78 35.0601Z" fill="#0290B0"/>
<path d="M200.78 35.0601L207.366 30.8529L197.122 32.2553L200.78 35.0601Z" fill="#0290B0"/>
<path fill-rule="evenodd" clip-rule="evenodd" d="M224.119 15.7217L232.244 26.6457L226.39 37.1637C226.39 33.5 226.297 27.289 225.761 23.6632C225.27 21.1717 225.048 19.2124 224.119 15.7217Z" fill="#EC3758"/>
<path fill-rule="evenodd" clip-rule="evenodd" d="M226.024 52.9407L226.39 37.1637L229.317 41.0203L226.024 52.9407Z" fill="#F07E3D"/>
<path fill-rule="evenodd" clip-rule="evenodd" d="M224.195 59.6021L229.317 41.0203L230.621 53.248L224.195 59.6021Z" fill="#03A7CC"/>
<path fill-rule="evenodd" clip-rule="evenodd" d="M247.527 50.8905C247.527 50.8905 242.854 50.8905 239.195 53.6419L239.561 55.3949C239.561 55.3949 232.566 53.8309 230.621 53.2468L229.317 41.0203L238.098 51.8889L244.683 47.6817L248.642 47.0507L247.527 50.8905Z" fill="#58C9E9"/>
<path fill-rule="evenodd" clip-rule="evenodd" d="M239.195 64.5105C238.359 64.5105 226.756 61.0045 226.756 61.0045L224.195 59.6021L230.621 53.2468L239.195 64.5105Z" fill="#0290B0"/>
<path fill-rule="evenodd" clip-rule="evenodd" d="M235.916 19.8225L237.495 22.0042L232.244 26.6457L224.119 15.7208L235.916 19.8225Z" fill="#F07E3D"/>
<path fill-rule="evenodd" clip-rule="evenodd" d="M230.78 6.31081L224.118 15.722L218.593 0L230.78 6.31081Z" fill="#EC3758"/>
<path fill-rule="evenodd" clip-rule="evenodd" d="M232.244 26.6457L229.317 41.0203L226.39 37.1637L232.244 26.6457Z" fill="#D61544"/>
<path fill-rule="evenodd" clip-rule="evenodd" d="M246.512 31.9047L238.098 31.5541L246.146 29.0999L249.805 28.7493L246.512 31.9047Z" fill="#03A7CC"/>
<path fill-rule="evenodd" clip-rule="evenodd" d="M218.341 0L225.976 0.449688L248.341 5.60961L230.78 6.31081L218.341 0Z" fill="#F9B70B"/>
<path fill-rule="evenodd" clip-rule="evenodd" d="M243.22 56.7973L239.561 55.3949L230.621 53.2475L239.195 64.5106L242.488 63.8094L246.146 60.6539L245.049 55.7455L245.415 53.2913L242.883 54.347L243.22 56.7973Z" fill="#03A7CC"/>
<path fill-rule="evenodd" clip-rule="evenodd" d="M235.171 14.024L235.916 19.9097L224.119 15.7208L230.78 6.31082L235.171 14.024Z" fill="#D61544"/>
<path d="M248.341 5.60962L230.78 6.31082L235.171 14.024L248.341 5.60962Z" fill="#F07E3D"/>
<path d="M248.341 5.60962L252 9.81683L235.171 14.024L248.341 5.60962Z" fill="#F9B70B"/>
<path d="M251.634 15.4264L252 9.81682L239.195 12.9722L251.634 15.4264Z" fill="#F07E3D"/>
</svg>
