<svg width="183" height="34" viewBox="0 0 183 34" fill="none" xmlns="http://www.w3.org/2000/svg">
<path d="M21.4105 25.3738C21.4105 23.4767 21.4105 21.5796 21.3495 19.6825C17.4455 19.6825 13.6025 19.6825 9.69854 19.6825C7.56354 21.5796 5.48955 23.4767 3.35455 25.3738C2.25655 25.3738 1.15855 25.3738 0.0605469 25.3738C6.70954 19.4454 13.3585 13.5169 19.9465 7.58846C21.1055 7.58846 22.3255 7.58846 23.4845 7.58846C23.4845 13.5169 23.4845 19.4454 23.4845 25.3738C22.8745 25.3738 22.1425 25.3738 21.4105 25.3738ZM21.4105 9.12986C18.0555 12.1534 14.7005 15.2362 11.3455 18.2597C14.7005 18.2597 18.0555 18.2597 21.4105 18.2597C21.4105 15.2362 21.4105 12.2127 21.4105 9.12986ZM27.4495 25.3738C27.4495 19.4454 27.4495 13.5169 27.4495 7.58846C28.1205 7.58846 28.7915 7.58846 29.4625 7.58846C29.4625 12.9834 29.4625 18.3783 29.4625 23.7732C33.0615 23.7732 36.7215 23.7732 40.3205 23.7732C40.1985 24.3067 40.1375 24.8403 40.0155 25.3738C35.8065 25.3738 31.6585 25.3738 27.4495 25.3738ZM43.5535 25.611C44.2245 25.611 44.8955 25.611 45.6275 25.611C45.6275 20.2161 45.6275 14.8212 45.6275 9.42628C47.8235 9.42628 50.0195 9.42628 52.1545 9.42628C52.2765 8.89272 52.3375 8.35916 52.4595 7.82559C47.4575 7.82559 42.3945 7.82559 37.3925 7.82559C37.2705 8.35916 37.2095 8.89272 37.0875 9.42628C39.2225 9.42628 41.4185 9.42628 43.5535 9.42628C43.5535 14.8805 43.5535 20.2754 43.5535 25.611ZM69.2955 24.6031C68.8685 24.781 68.4415 24.9588 67.8315 25.1367C67.2825 25.3146 66.6725 25.4331 66.0015 25.611C65.3305 25.7295 64.6595 25.8481 63.9885 25.9074C63.2565 25.9667 62.5855 26.026 61.9145 26.026C60.5115 26.026 59.2305 25.9074 58.1325 25.6703C57.0345 25.4331 56.1195 25.0181 55.3265 24.366C54.5945 23.7139 53.9845 22.8246 53.6185 21.6389C53.2525 20.4532 53.0085 18.9118 53.0085 17.0147C53.0085 14.999 53.1915 13.3983 53.6185 12.1534C54.0455 10.9084 54.6555 9.95984 55.3875 9.24842C56.1805 8.53701 57.0345 8.12202 58.1325 7.88488C59.1695 7.64774 60.3285 7.52917 61.6095 7.52917C62.9515 7.52917 64.1715 7.64774 65.2085 7.94416C66.2455 8.1813 67.1605 8.65558 67.8925 9.36699C68.6245 10.0191 69.1735 10.9677 69.5395 12.1534C69.9055 13.3391 70.0885 14.8212 70.0885 16.659C70.0885 16.8961 70.0885 17.1333 70.0885 17.3704C65.0865 17.3704 60.0235 17.3704 55.0215 17.3704C55.0215 18.9118 55.2045 20.1568 55.4485 21.0461C55.6925 21.9946 56.1195 22.706 56.7295 23.2396C57.3395 23.7732 58.0105 24.1289 58.9255 24.3067C59.8405 24.4846 60.9385 24.5439 62.2805 24.5439C62.8295 24.5439 63.4395 24.4846 64.0495 24.366C64.6595 24.2474 65.2085 24.1289 65.7575 24.0103C66.3065 23.8917 66.7945 23.7139 67.2215 23.5953C67.6485 23.4767 68.0145 23.2989 68.3195 23.2396C68.6855 23.5953 68.9905 24.1289 69.2955 24.6031ZM68.0145 15.6512C67.9535 14.2283 67.7705 13.1019 67.4655 12.2127C67.1605 11.3234 66.7335 10.6713 66.2455 10.197C65.6965 9.7227 65.0865 9.42628 64.2935 9.24842C63.5005 9.07057 62.6465 9.01129 61.6095 9.01129C60.7555 9.01129 59.9015 9.07057 59.1695 9.18914C58.4375 9.30771 57.7665 9.54485 57.1565 9.95984C56.6075 10.3748 56.1195 11.027 55.7535 11.9162C55.3875 12.8055 55.2045 14.0505 55.0825 15.5919C59.4745 15.6512 63.7445 15.6512 68.0145 15.6512ZM88.9985 25.611C88.5105 25.6703 88.0835 25.7295 87.6565 25.6703C87.2295 25.6703 86.8635 25.5517 86.4365 25.3146C86.0705 25.1367 85.6435 24.781 85.2165 24.4253C84.7895 24.0103 84.3015 23.4767 83.7525 22.7653C82.8375 21.5796 81.9835 20.3939 81.0685 19.2082C80.8855 19.2082 80.7025 19.2082 80.5805 19.2082C78.8115 19.2082 77.0425 19.2082 75.2735 19.2082C75.2735 21.3425 75.2735 23.4767 75.2735 25.611C74.6025 25.611 73.9315 25.611 73.1995 25.611C73.1995 19.6825 73.1995 13.7541 73.1995 7.82559C75.6395 7.82559 78.1405 7.82559 80.5805 7.82559C81.9225 7.82559 83.0815 7.88488 83.9965 8.00345C84.9115 8.12202 85.6435 8.41844 86.1925 8.83343C86.7415 9.24843 87.1075 9.84127 87.3515 10.5527C87.5955 11.3234 87.7175 12.2719 87.7175 13.5169C87.7175 14.5248 87.6565 15.2955 87.5345 16.0069C87.4125 16.659 87.1685 17.1926 86.8025 17.6668C86.4975 18.0818 86.0095 18.4375 85.5215 18.6747C84.9725 18.9118 84.3015 19.0897 83.5085 19.149C84.2405 20.0975 84.9725 20.9868 85.7045 21.9353C86.1315 22.4689 86.4975 22.9432 86.8635 23.2396C87.1685 23.536 87.4735 23.7732 87.7785 23.951C88.0225 24.1289 88.3275 24.1881 88.5715 24.2474C88.8155 24.2474 89.1205 24.2474 89.3645 24.2474C89.2425 24.6624 89.1205 25.1367 88.9985 25.611ZM80.7025 17.6668C81.6175 17.6668 82.3495 17.6076 82.9595 17.5483C83.5695 17.489 84.1185 17.3111 84.4845 17.074C84.8505 16.7776 85.1555 16.4219 85.3385 15.829C85.5215 15.2955 85.5825 14.5248 85.5825 13.5169C85.5825 12.5091 85.5215 11.7384 85.3385 11.1455C85.1555 10.5527 84.8505 10.197 84.4845 9.90056C84.1185 9.66342 83.5695 9.48556 82.9595 9.42628C82.3495 9.367 81.5565 9.36699 80.7025 9.36699C78.9335 9.36699 77.1035 9.36699 75.3345 9.36699C75.3345 12.0941 75.3345 14.8212 75.3345 17.6076C77.1035 17.6668 78.8725 17.6668 80.7025 17.6668ZM128.771 25.611C128.771 19.6825 128.771 13.7541 128.771 7.82559C133.346 7.82559 137.86 7.82559 142.435 7.82559C142.374 8.35916 142.252 8.89272 142.13 9.42628C138.348 9.42628 134.566 9.42628 130.784 9.42628C130.784 11.5012 130.784 13.5762 130.784 15.6512C133.833 15.6512 136.945 15.6512 139.995 15.6512C139.995 16.1847 139.995 16.7183 139.995 17.2518C136.945 17.2518 133.833 17.2518 130.784 17.2518C130.784 19.5047 130.784 21.7575 130.784 24.0696C134.627 24.0696 138.531 24.0696 142.374 24.0696C142.312 24.6031 142.191 25.1367 142.068 25.6703C137.676 25.611 133.224 25.611 128.771 25.611ZM159.148 17.2518C157.197 17.2518 155.245 17.2518 153.293 17.2518C153.354 16.7183 153.476 16.1847 153.598 15.6512C156.098 15.6512 158.6 15.6512 161.101 15.6512C161.101 18.5561 161.101 21.4611 161.101 24.366C160.734 24.6031 160.246 24.781 159.697 24.9588C159.148 25.1367 158.538 25.3146 157.867 25.4331C157.196 25.5517 156.525 25.6703 155.794 25.7295C155.061 25.7888 154.391 25.8481 153.719 25.8481C152.256 25.8481 150.975 25.7295 149.876 25.4924C148.779 25.2553 147.864 24.8403 147.071 24.1881C146.339 23.536 145.729 22.5875 145.363 21.3425C144.997 20.0975 144.753 18.5561 144.753 16.5404C144.753 14.584 144.997 12.9834 145.424 11.7977C145.85 10.612 146.46 9.66342 147.253 9.01129C148.046 8.35916 149.023 7.94416 150.121 7.70703C151.219 7.46989 152.499 7.35132 153.902 7.35132C155.245 7.35132 156.464 7.46989 157.562 7.64774C158.66 7.8256 159.637 8.12202 160.43 8.47772C160.124 8.952 159.82 9.42628 159.514 9.95984C159.271 9.90056 158.904 9.78199 158.538 9.66342C158.111 9.54485 157.685 9.42628 157.197 9.30771C156.709 9.18914 156.221 9.12986 155.671 9.01129C155.122 8.952 154.574 8.89272 154.025 8.89272C152.988 8.89272 152.073 8.952 151.158 9.07057C150.303 9.18914 149.511 9.54485 148.901 10.0191C148.291 10.4934 147.742 11.2641 147.437 12.2719C147.07 13.2798 146.888 14.6433 146.888 16.4219C146.888 18.0818 147.01 19.4454 147.253 20.4532C147.497 21.4611 147.924 22.2318 148.473 22.7653C149.023 23.2989 149.816 23.6546 150.73 23.8324C151.646 24.0103 152.805 24.1289 154.146 24.1289C154.574 24.1289 155.061 24.0696 155.488 24.0103C155.977 23.951 156.404 23.8917 156.892 23.7732C157.319 23.6546 157.745 23.5953 158.173 23.4174C158.538 23.2989 158.904 23.1803 159.148 23.0025C159.148 21.2832 159.148 19.2675 159.148 17.2518ZM173.667 9.07057C172.752 9.07057 171.836 9.12986 170.982 9.18914C170.128 9.24843 169.396 9.54485 168.725 10.0191C168.116 10.4934 167.566 11.2641 167.201 12.3312C166.835 13.3983 166.59 14.8212 166.59 16.7183C166.59 17.9633 166.652 19.0897 166.896 19.9197C167.079 20.8089 167.322 21.5203 167.627 22.0539C167.932 22.5875 168.299 23.0617 168.725 23.3582C169.152 23.6546 169.641 23.8917 170.189 24.0103C170.738 24.1289 171.288 24.2474 171.837 24.2474C172.385 24.2474 173.057 24.3067 173.667 24.3067C174.277 24.3067 174.887 24.3067 175.436 24.2474C175.984 24.1881 176.594 24.1289 177.082 24.0103C177.631 23.8917 178.12 23.6546 178.547 23.3582C178.973 23.0617 179.4 22.5875 179.706 22.0539C180.01 21.5203 180.254 20.7496 180.437 19.9197C180.62 19.0304 180.682 17.9633 180.682 16.7183C180.682 14.8212 180.499 13.3391 180.072 12.3312C179.645 11.2641 179.156 10.5527 178.486 10.0191C177.814 9.54485 177.082 9.24843 176.228 9.18914C175.496 9.12986 174.581 9.07057 173.667 9.07057ZM164.517 16.7183C164.517 14.7026 164.76 13.1019 165.248 11.9162C165.736 10.7305 166.408 9.78199 167.201 9.12986C168.055 8.47773 168.969 8.06273 170.128 7.82559C171.226 7.58846 172.447 7.52917 173.667 7.52917C174.948 7.52917 176.107 7.64774 177.266 7.82559C178.424 8.00345 179.339 8.47773 180.193 9.12986C181.047 9.78199 181.658 10.7305 182.145 11.9162C182.633 13.1019 182.877 14.7026 182.877 16.7183C182.877 18.734 182.633 20.3346 182.145 21.5203C181.658 22.706 180.986 23.6546 180.193 24.3067C179.339 24.9588 178.424 25.3738 177.266 25.611C176.167 25.8481 174.948 25.9074 173.667 25.9074C172.385 25.9074 171.226 25.7888 170.128 25.611C169.03 25.3738 168.055 24.9588 167.201 24.3067C166.346 23.6546 165.736 22.706 165.248 21.5203C164.76 20.3346 164.517 18.734 164.517 16.7183Z" fill="white"/>
<path d="M118.645 7.52931C118.95 7.64788 119.316 7.82574 119.621 7.94431C119.987 8.12216 120.231 8.00359 120.536 7.82574C120.78 7.64788 121.024 7.41074 121.146 7.11432C120.475 6.69933 119.865 6.22505 119.194 5.81006C118.767 6.28434 118.34 6.75861 117.913 7.23289C118.157 7.35146 118.401 7.47003 118.645 7.52931Z" fill="#E6453B"/>
<path d="M109.373 27.5081C109.983 28.101 110.715 28.516 111.63 28.516C112.728 28.5753 113.765 28.6938 114.802 28.9903C115.839 29.2867 116.815 29.2274 117.73 28.6345C118.157 28.3381 118.462 27.9824 118.462 27.5081C118.462 26.9746 118.462 26.441 118.462 25.9074C118.462 25.4925 118.34 25.0182 118.462 24.6032C118.523 24.4846 118.401 24.3068 118.34 24.1289C118.096 24.2475 117.852 24.4253 117.669 24.4846C117.547 24.5439 117.486 24.6625 117.547 24.781C117.608 25.0775 117.608 25.3146 117.669 25.611C117.669 25.7296 117.669 25.8482 117.486 25.7889C117.12 25.6703 116.754 25.5517 116.449 25.4332C116.266 25.3739 116.144 25.196 116.144 24.9589C116.144 24.781 116.083 24.6032 116.083 24.4846C116.083 24.4253 116.144 24.3068 116.205 24.2475C116.266 24.1882 116.327 24.1882 116.449 24.1289C117.425 23.6546 118.401 23.2396 119.56 23.1804C119.621 23.1804 119.743 23.1211 119.743 23.0618C119.865 22.7061 119.987 22.2911 120.109 21.9354C120.17 21.7575 120.17 21.639 120.17 21.4018C118.34 21.639 116.937 22.3504 115.839 23.7139C115.656 23.4175 115.534 23.1804 115.351 22.9432C114.985 22.3504 114.436 21.8761 113.948 21.3425C112.972 20.2161 112.545 18.8526 112.362 17.3705C112.24 16.7183 112.362 16.0662 112.484 15.4141C112.667 14.5248 112.911 13.6948 113.704 13.102C114.314 12.6277 114.802 12.0348 115.168 11.3827C115.351 11.027 115.351 10.6713 115.107 10.3749C114.924 10.1377 114.741 9.95989 114.558 9.72275C114.497 9.60418 114.375 9.42632 114.375 9.30775C114.375 8.83348 114.436 8.3592 114.375 7.94421C114.375 7.52922 114.192 7.17351 113.826 6.99565C113.216 6.69923 112.667 6.40281 112.057 6.10638C110.898 5.57282 109.8 5.03926 108.58 4.62427C109.861 8.24063 110.654 12.6277 110.654 17.3705C110.654 21.0461 110.166 24.4846 109.373 27.5081Z" fill="white"/>
<path d="M116.876 15.0582C117.852 14.5247 119.438 14.0504 120.719 13.8726C120.841 13.9318 120.719 14.169 120.658 14.2283C120.597 14.2875 120.536 14.3468 120.475 14.4654C120.17 14.6433 120.048 14.9397 119.682 14.9397C118.767 14.999 118.218 14.999 117.486 15.0582C117.364 15.0582 116.937 15.0582 116.876 15.0582Z" fill="white"/>
<path d="M114.924 22.5282C113.704 22.8246 112.484 23.121 111.264 23.4767C112.911 23.7139 114.619 24.0103 116.266 24.2474C116.327 24.2474 116.327 24.2474 116.388 24.1882C117.242 23.7732 118.096 23.4175 119.072 23.2989C118.767 22.8839 118.462 22.4096 118.157 21.9946C117.242 22.4096 116.449 23.0025 115.839 23.8325C115.656 23.536 115.534 23.2989 115.351 23.0618C115.168 22.8246 115.046 22.706 114.924 22.5282Z" fill="#5EC4E7"/>
<path d="M113.338 20.5718C112.667 21.5203 111.935 22.4689 111.264 23.4174C112.484 23.121 113.704 22.8246 114.924 22.4689C114.619 22.1132 114.253 21.7575 113.948 21.4018C113.704 21.1646 113.521 20.8682 113.338 20.5718Z" fill="#08A7CD"/>
<path d="M111.447 11.3235C111.02 11.3828 110.654 11.4421 110.227 11.5013C110.471 13.3984 110.654 15.3548 110.654 17.4298C110.654 18.0226 110.654 18.6155 110.593 19.2083C110.776 20.6312 111.02 22.054 111.203 23.4768C111.874 22.5283 112.606 21.5797 113.277 20.6312C112.728 19.6826 112.484 18.6155 112.301 17.4891C112.179 16.837 112.301 16.1848 112.423 15.5327C112.545 14.9991 112.667 14.4656 112.972 13.9913C112.484 13.102 111.935 12.2128 111.447 11.3235Z" fill="#EB7032"/>
<path d="M110.227 11.5013C110.654 11.442 111.02 11.3827 111.447 11.3234C110.837 10.2563 110.227 9.18919 109.617 8.12207C109.861 9.18919 110.044 10.3156 110.227 11.5013Z" fill="#EB7032"/>
<path d="M114.863 11.9162C114.863 11.5605 114.802 11.1455 114.802 10.7898C113.704 10.9676 112.545 11.1455 111.447 11.3234C111.935 12.2126 112.484 13.1019 112.972 13.9912C113.155 13.6947 113.399 13.4576 113.704 13.2205C114.131 12.8055 114.558 12.3905 114.863 11.9162Z" fill="#F19326"/>
<path d="M114.802 10.7898C113.216 9.60409 111.691 8.47768 110.105 7.29199C109.922 7.46985 109.678 7.70698 109.495 7.88484C109.495 7.94412 109.556 8.00341 109.556 8.12198C110.166 9.1891 110.776 10.2562 111.386 11.3233C112.545 11.1455 113.704 10.9676 114.802 10.7898Z" fill="#F19326"/>
<path d="M114.741 26.856C115.961 26.7374 117.242 26.6188 118.462 26.5003C118.462 26.3224 118.462 26.1446 118.462 25.9667C118.462 25.7889 118.462 25.6703 118.401 25.4924C118.157 25.611 117.913 25.6703 117.669 25.7889C117.669 25.8481 117.608 25.9074 117.486 25.8481C116.571 26.1446 115.656 26.5003 114.741 26.856Z" fill="#1EA8B0"/>
<path d="M114.741 26.856C113.582 25.7296 112.423 24.6032 111.264 23.4768C110.959 25.0775 110.654 26.6189 110.288 28.2196C110.41 28.2789 110.532 28.3381 110.654 28.3974C111.996 27.8639 113.399 27.3303 114.741 26.856Z" fill="#5EC4E7"/>
<path d="M111.203 23.4175C112.362 24.5439 113.521 25.6703 114.68 26.7967C115.595 26.441 116.51 26.0853 117.425 25.7889C117.059 25.6703 116.754 25.5517 116.388 25.4332C116.205 25.3739 116.083 25.196 116.083 24.9589C116.083 24.781 116.022 24.6032 116.022 24.4846C116.022 24.4253 116.083 24.3068 116.144 24.2475C116.144 24.2475 116.205 24.1882 116.266 24.1882C114.558 23.951 112.911 23.7139 111.203 23.4175ZM118.462 24.5439C118.462 24.4253 118.401 24.2475 118.34 24.1289C118.096 24.2475 117.913 24.366 117.669 24.4846C117.547 24.5439 117.486 24.6625 117.547 24.781C117.608 25.0774 117.669 25.3146 117.669 25.611C117.669 25.6703 117.669 25.7296 117.669 25.7296C117.913 25.611 118.157 25.5517 118.401 25.4332C118.401 25.1367 118.34 24.8996 118.401 24.6032C118.462 24.6032 118.462 24.6032 118.462 24.5439Z" fill="#08A7CD"/>
<path d="M114.741 10.0784C114.741 10.3155 114.741 10.5526 114.802 10.7898C114.802 11.1455 114.863 11.5605 114.863 11.9162C115.046 11.6198 115.29 11.3233 115.29 10.9676C115.29 10.6119 114.985 10.3155 114.741 10.0784Z" fill="#EB7032"/>
<path d="M114.741 10.0784C114.741 10.3155 114.741 10.5526 114.802 10.7898C114.985 10.8491 115.107 10.9084 115.29 10.9084C115.229 10.5526 114.985 10.3155 114.741 10.0784Z" fill="#E6453B"/>
<path d="M110.349 22.3503C110.654 22.706 110.959 23.0617 111.203 23.4174C111.02 21.9946 110.776 20.5718 110.593 19.1489C110.532 20.2753 110.471 21.3425 110.349 22.3503Z" fill="#F19326"/>
<path d="M111.569 5.92847C111.081 6.40274 110.654 6.81774 110.166 7.29201C111.691 8.47771 113.277 9.60411 114.863 10.7898C114.863 10.5527 114.863 10.3155 114.802 10.0784C114.741 10.0191 114.68 9.90054 114.619 9.84125C114.558 9.72268 114.436 9.54483 114.436 9.42626C114.436 8.95198 114.497 8.4777 114.436 8.06271C114.436 7.64772 114.253 7.29201 113.887 7.11416C113.277 6.81774 112.728 6.46203 112.118 6.22489C111.874 6.04704 111.691 5.98775 111.569 5.92847Z" fill="#F8B21E"/>
<path d="M118.096 21.9945C118.401 22.4095 118.706 22.8838 119.011 23.2988C119.133 23.2988 119.255 23.2988 119.438 23.2988C119.499 23.2988 119.621 23.2395 119.621 23.1802C119.743 22.8245 119.865 22.4095 119.987 22.0538C120.048 21.876 120.048 21.7574 120.048 21.5203C119.377 21.5795 118.706 21.6981 118.096 21.9945Z" fill="#08A7CD"/>
<path d="M111.203 23.4175C110.898 23.0618 110.593 22.706 110.349 22.3503C110.288 23.0618 110.166 23.8325 110.044 24.5439C110.41 24.1882 110.837 23.7732 111.203 23.4175Z" fill="#F8B21E"/>
<path d="M114.741 26.856C114.436 27.5081 114.131 28.1602 113.826 28.8123C114.131 28.8716 114.497 28.9309 114.802 29.0495C115.534 29.2866 116.266 29.2866 116.998 29.0495C116.205 28.3381 115.473 27.5674 114.741 26.856Z" fill="#1EA8B0"/>
<path d="M114.741 26.856C115.473 27.5674 116.266 28.3381 116.998 29.0495C117.242 28.9309 117.486 28.8123 117.73 28.6938C118.157 28.3974 118.462 28.0416 118.462 27.5674C118.462 27.2117 118.462 26.856 118.462 26.5002C117.181 26.6188 115.961 26.7374 114.741 26.856Z" fill="#5EC4E7"/>
<path d="M111.203 23.4175C110.837 23.7732 110.41 24.1289 110.044 24.4846C109.861 25.5517 109.617 26.5596 109.373 27.5081C109.617 27.7453 109.922 27.9824 110.227 28.1602C110.593 26.6188 110.898 25.0182 111.203 23.4175Z" fill="#F19326"/>
<path d="M113.826 28.8123C114.131 28.1602 114.436 27.5081 114.741 26.856C113.399 27.3895 112.057 27.8638 110.715 28.3974C111.02 28.5159 111.325 28.5752 111.691 28.5752C112.362 28.5752 113.094 28.6938 113.826 28.8123Z" fill="#08A7CD"/>
<path d="M109.556 7.88483C109.739 7.70697 109.983 7.46984 110.166 7.29198C109.861 7.05484 109.556 6.8177 109.19 6.58057C109.312 6.99556 109.434 7.41055 109.556 7.88483Z" fill="#EF8323"/>
<path d="M110.105 7.29212C110.593 6.81784 111.02 6.40285 111.508 5.92857C110.532 5.45429 109.556 5.0393 108.519 4.68359C108.763 5.27644 108.946 5.92857 109.129 6.5807C109.495 6.81784 109.8 7.05498 110.105 7.29212Z" fill="#F19326"/>
<path d="M117.181 4.68345C116.266 4.14989 115.351 3.61633 114.375 3.08276C114.436 4.38703 114.497 5.75057 114.558 7.05483C114.741 6.93626 114.924 6.87698 115.046 6.87698C115.473 6.81769 115.9 6.81769 116.327 6.87698C116.632 6.16556 116.937 5.45415 117.181 4.68345Z" fill="#E6453B"/>
<path d="M114.375 3.14209C113.399 4.09064 112.423 5.0392 111.447 5.98775C112.484 6.5806 114.314 7.88486 114.253 7.64772C114.192 7.46987 114.375 7.23273 114.558 7.11416C114.558 5.75061 114.497 4.44635 114.375 3.14209Z" fill="#F9B70B"/>
<path d="M116.937 2.66797C117.181 2.96439 117.425 3.3201 117.608 3.61652C117.669 3.37938 117.791 3.14225 117.852 2.96439C117.547 2.84582 117.242 2.78654 116.937 2.66797Z" fill="#E85A34"/>
<path d="M117.181 4.68355C117.425 4.09071 117.669 3.55714 117.852 2.9643C117.547 2.84573 117.181 2.78644 116.876 2.66788C116.449 2.54931 116.022 2.43074 115.595 2.37145C114.68 2.1936 113.765 1.95646 112.85 1.83789C113.338 2.25288 113.826 2.72716 114.375 3.14215C115.351 3.67571 116.266 4.20928 117.181 4.68355Z" fill="#E32340"/>
<path d="M111.508 5.98775C112.484 5.0392 113.46 4.09064 114.436 3.14209C112.362 3.37923 110.349 3.61637 108.275 3.91279C108.397 4.20921 108.458 4.44635 108.58 4.68349C109.556 5.09848 110.166 5.3949 111.142 5.8099C111.264 5.8099 111.386 5.86918 111.508 5.98775Z" fill="#F19326"/>
<path d="M114.375 3.14219C113.887 2.7272 113.399 2.25292 112.85 1.83793C112.362 1.77864 111.935 1.66007 111.447 1.60079C111.325 1.60079 111.203 1.5415 111.081 1.5415C112.24 2.07507 113.338 2.60863 114.375 3.14219Z" fill="#E6453B"/>
<path d="M108.275 3.85356C110.349 3.61642 112.362 3.37928 114.436 3.08286C113.338 2.5493 112.301 2.01573 111.203 1.48217C110.349 1.3636 109.495 1.24503 108.641 1.18575C108.153 1.18575 107.604 1.12646 107.116 1.12646C107.421 1.95645 107.909 2.96429 108.275 3.85356Z" fill="#EB7032"/>
<path d="M121.39 6.28432C121.39 6.10647 121.39 5.92861 121.329 5.75076C121.207 5.33577 121.085 5.03934 120.841 4.74292C120.292 5.09863 119.743 5.51362 119.194 5.86933C119.56 6.58074 119.987 7.29216 120.353 7.94429C120.414 7.94429 120.414 7.885 120.475 7.82572C120.719 7.64787 120.963 7.41073 121.085 7.1143C121.268 6.87717 121.39 6.58074 121.39 6.28432Z" fill="#E32340"/>
<path d="M117.852 2.96436C117.608 3.5572 117.364 4.09076 117.181 4.68361C117.852 5.03932 118.523 5.45431 119.194 5.81002C118.767 4.92075 118.34 3.91291 117.852 2.96436Z" fill="#D61D43"/>
<path d="M117.181 4.68359C116.876 5.39501 116.632 6.10642 116.327 6.81784C116.815 6.87712 117.242 6.99569 117.669 7.17355C117.73 7.17355 117.852 7.23283 117.913 7.29212C118.34 6.81784 118.767 6.34356 119.194 5.86929C118.523 5.45429 117.852 5.09859 117.181 4.68359Z" fill="#E32340"/>
<path d="M117.852 2.96436C118.279 3.91291 118.706 4.86146 119.194 5.81002C119.743 5.45431 120.292 5.03932 120.841 4.68361C120.719 4.56504 120.658 4.44647 120.536 4.3279C120.353 4.15005 120.109 3.97219 119.865 3.85362C119.194 3.49792 118.523 3.20149 117.852 2.96436Z" fill="#E6453B"/>
<path d="M117.425 15.0582C118.157 15.0582 118.767 15.0582 119.621 14.9397C119.987 14.9397 120.17 14.6433 120.414 14.4654C120.475 14.4061 120.536 14.3468 120.597 14.2283C120.658 14.169 120.78 13.9318 120.658 13.8726C119.377 13.9911 117.852 14.5247 116.815 15.0582C116.937 15.0582 117.364 15.0582 117.425 15.0582Z" fill="#08A7CD"/>
<path d="M107.787 20.2161C107.787 20.0976 107.787 19.9197 107.787 19.8011C107.787 19.7419 107.787 19.6826 107.787 19.6233C107.726 19.6826 107.604 19.7419 107.543 19.8011C107.116 20.0976 106.689 20.4533 106.201 20.7497C106.75 20.6904 107.238 20.5718 107.726 20.5126C107.787 20.394 107.787 20.2754 107.787 20.2161Z" fill="#EB7032"/>
<path d="M105.225 21.4612C106.018 22.054 106.811 22.6469 107.604 23.2397C107.665 22.2912 107.726 21.4019 107.787 20.4534C107.238 20.5127 106.75 20.6312 106.201 20.6905C105.896 20.9276 105.591 21.2241 105.225 21.4612Z" fill="#F19326"/>
<path d="M102.236 27.0338C103.151 27.5673 104.066 28.1009 104.981 28.6345C104.859 26.3817 104.737 24.1288 104.615 21.9353C104.432 22.0539 104.249 22.1724 104.066 22.3503C103.517 23.8324 102.846 25.4331 102.236 27.0338Z" fill="#E6453B"/>
<path d="M105.042 28.5753C105.774 27.8639 106.506 27.1525 107.238 26.4411C107.36 25.7297 107.482 25.0183 107.543 24.2476C107.604 23.8919 107.604 23.5954 107.665 23.2397C106.872 22.6469 106.079 22.054 105.286 21.4612C105.103 21.5798 104.92 21.7576 104.676 21.8762C104.798 24.129 104.92 26.3225 105.042 28.5753Z" fill="#F8B21E"/>
<path d="M104.127 31.3024C103.334 30.2353 102.602 29.1682 101.809 28.0417C101.26 29.4053 100.772 30.7096 100.223 32.0731C100.65 32.1324 101.077 32.1917 101.504 32.251C101.626 32.251 101.748 32.251 101.87 32.1917C102.358 32.0138 102.846 31.836 103.334 31.6581C103.639 31.5395 103.883 31.4803 104.127 31.3024Z" fill="#D61D43"/>
<path d="M102.236 27.0339C102.114 27.3896 101.931 27.7454 101.809 28.1011C102.602 29.1682 103.334 30.2353 104.127 31.3617C104.371 31.2431 104.554 31.0653 104.737 30.8281C105.164 30.3539 105.591 29.9389 106.018 29.5239C105.652 29.2275 105.347 28.931 104.981 28.6346C104.066 28.0418 103.151 27.5082 102.236 27.0339Z" fill="#E32340"/>
<path d="M105.042 28.5752C105.408 28.8716 105.713 29.168 106.079 29.4645C106.14 29.3459 106.262 29.2866 106.323 29.2273C105.896 28.9902 105.469 28.8123 105.042 28.5752Z" fill="#E6453B"/>
<path d="M105.042 28.5754C105.469 28.8125 105.896 28.9904 106.323 29.2275C106.323 29.2275 106.323 29.2275 106.384 29.1682C106.445 29.0496 106.628 29.0496 106.689 28.9311C106.75 28.8125 106.811 28.6939 106.872 28.5161C106.872 28.4568 106.872 28.3975 106.933 28.3382C107.055 27.6861 107.177 27.034 107.299 26.3818C106.506 27.1525 105.774 27.8639 105.042 28.5754Z" fill="#EB7032"/>
<path d="M98.6372 27.686C99.1862 27.0932 99.7352 26.5004 100.223 25.9075C99.6742 25.7889 99.1252 25.6704 98.5762 25.6111C98.6982 25.9075 98.8812 26.1446 98.8202 26.5004C98.7592 26.8561 98.6982 27.2711 98.6372 27.686Z" fill="#E32340"/>
<path d="M98.5763 25.5517C99.1253 25.6702 99.6743 25.7888 100.223 25.8481C99.5523 24.781 98.8203 23.7139 98.1493 22.6467V22.706C98.0883 23.0024 98.0273 23.3581 97.9053 23.6546C97.9053 23.7731 97.9053 23.8324 98.0273 23.8324C98.2713 23.951 98.5153 24.1288 98.8203 24.2474C98.9423 24.3067 98.9423 24.366 98.8203 24.4846C98.6983 24.6031 98.5153 24.781 98.3933 24.8995C98.4543 25.196 98.5153 25.3738 98.5763 25.5517Z" fill="#D61D43"/>
<path d="M101.809 28.0417C101.931 27.686 102.053 27.3303 102.236 26.9746C101.565 26.6188 100.894 26.2039 100.223 25.8481C100.772 26.6188 101.321 27.3303 101.809 28.0417Z" fill="#D61D43"/>
<path d="M102.236 27.0338C102.846 25.4331 103.456 23.8917 104.127 22.291C103.517 22.706 102.968 23.1803 102.358 23.5953C101.687 24.366 100.955 25.1367 100.284 25.9074C100.894 26.2631 101.565 26.6188 102.236 27.0338Z" fill="#E32340"/>
<path d="M98.7586 30.5316C99.2466 28.9902 99.7346 27.4488 100.284 25.8481C99.7346 26.441 99.1856 27.0338 98.6976 27.6267C98.5756 28.2788 98.5146 28.9902 98.3926 29.6424C98.3926 29.7016 98.3926 29.8202 98.4536 29.8795C98.5146 30.1166 98.6366 30.3538 98.7586 30.5316Z" fill="#E6453B"/>
<path d="M100.589 24.7811C100.467 25.1368 100.345 25.4925 100.223 25.8482C100.894 25.0775 101.626 24.3068 102.297 23.5361C101.748 23.9511 101.199 24.3661 100.589 24.7811Z" fill="#E6453B"/>
<path d="M100.223 32.073C100.772 30.7095 101.26 29.4052 101.809 28.0417C101.26 27.3303 100.772 26.5596 100.223 25.8481C99.7352 27.3895 99.2472 28.9309 98.6982 30.5316C98.9422 31.0059 99.2472 31.4209 99.5522 31.8359C99.6132 31.8952 99.6742 31.9545 99.7962 32.0137C99.9792 32.0137 100.101 32.073 100.223 32.073Z" fill="#E32340"/>
<path d="M100.284 25.9074C100.406 25.5517 100.528 25.196 100.65 24.8403C100.589 24.8996 100.528 24.8996 100.467 24.9589C99.9794 23.951 99.4914 23.0025 99.0034 21.9946C98.8204 22.1132 98.6984 22.1725 98.5154 22.2911C98.3934 22.4096 98.3324 22.5282 98.2104 22.5875L98.1494 22.6468C98.8814 23.7732 99.5524 24.8403 100.284 25.9074Z" fill="#E32340"/>
<path d="M98.5146 22.291C98.6976 22.1724 98.8196 22.1131 99.0026 21.9945C99.0026 21.9353 98.9416 21.876 98.9416 21.876C98.7586 21.9945 98.6366 22.1724 98.5146 22.291Z" fill="#E32144"/>
<path d="M104.676 7.94416C102.602 7.64774 100.528 7.29203 98.4541 6.99561C99.0641 7.88487 99.6741 8.71486 100.284 9.60413C100.65 9.42628 101.016 9.24842 101.382 9.01128C101.504 8.952 101.626 8.89272 101.748 8.83343C102.724 8.53701 103.7 8.24058 104.676 7.94416Z" fill="#5EC4E7"/>
<path d="M103.822 4.97998C102.236 5.15783 100.589 5.2764 99.003 5.45426C98.82 5.57283 98.576 5.75068 98.393 5.92853C98.332 5.98782 98.271 6.0471 98.21 6.10639C98.271 6.40281 98.393 6.75852 98.454 7.05494C100.223 6.34353 102.053 5.63211 103.822 4.97998Z" fill="#1EA8B0"/>
<path d="M103.822 4.98005C104.676 5.81004 105.469 6.64002 106.323 7.41072C106.018 6.40288 105.713 5.39505 105.347 4.38721C104.859 4.62435 104.371 4.8022 103.822 4.98005Z" fill="#5EC4E7"/>
<path d="M98.4541 6.99567C98.3931 6.69925 98.2711 6.34354 98.2101 6.04712C98.0271 6.16569 97.8441 6.34354 97.6611 6.5214C97.9661 6.63996 98.2101 6.81782 98.4541 6.99567Z" fill="#08A7CD"/>
<path d="M106.323 7.46997C105.469 6.63999 104.676 5.81001 103.822 5.03931C102.053 5.69144 100.223 6.40285 98.4541 7.05498C100.528 7.35141 102.602 7.70711 104.676 8.00354C105.164 7.82568 105.713 7.70711 106.201 7.52926C106.262 7.46998 106.323 7.46997 106.323 7.46997Z" fill="#08A7CD"/>
<path d="M100.284 9.60413C99.6744 8.71486 99.0644 7.88487 98.4544 6.99561C98.0884 8.24058 97.7224 9.42628 97.3564 10.6713C97.4174 10.7305 97.4784 10.8491 97.5394 10.9084C97.7224 10.8491 97.9054 10.7898 98.0884 10.7898C98.8204 10.3155 99.5524 9.95984 100.284 9.60413Z" fill="#08A7CD"/>
<path d="M98.454 6.99576C98.21 6.81791 97.966 6.64005 97.661 6.52148C97.6 6.58077 97.539 6.64005 97.417 6.69934C97.112 6.93648 96.807 7.2329 96.502 7.47004C96.563 8.18145 96.624 8.89287 96.624 9.66357C96.868 10.0193 97.112 10.3157 97.295 10.6714C97.722 9.42643 98.088 8.18145 98.454 6.99576Z" fill="#5EC4E7"/>
<path d="M96.685 9.6635C96.624 8.95209 96.624 8.24067 96.563 7.46997C96.258 7.70711 96.014 7.94425 95.709 8.18139C96.014 8.71495 96.319 9.18923 96.685 9.6635Z" fill="#1EA8B0"/>
<path d="M103.822 4.9799C104.127 4.32777 104.432 3.61636 104.737 2.96423C104.676 2.78637 104.554 2.60852 104.493 2.43066C104.249 2.43066 104.188 2.48995 103.944 2.54923C103.822 2.54923 103.212 2.90494 103.151 2.90494C102.846 3.08279 102.602 3.26065 102.297 3.4385C102.785 3.97206 103.334 4.50562 103.822 4.9799Z" fill="#1EA8B0"/>
<path d="M103.822 4.97992C103.334 4.44636 102.785 3.97208 102.297 3.4978C101.382 4.03136 100.528 4.56493 99.4915 5.21706C99.3695 5.27634 99.1865 5.39491 99.0645 5.51348C100.65 5.27634 102.236 5.15777 103.822 4.97992Z" fill="#08A7CD"/>
<path d="M104.798 2.96436C104.493 3.61649 104.188 4.3279 103.883 4.98003C104.371 4.80218 104.92 4.62433 105.408 4.38719C105.164 3.91291 104.981 3.43863 104.798 2.96436Z" fill="#08A7CD"/>
<path d="M98.0881 10.7305C97.9051 10.7898 97.7221 10.849 97.5391 10.849C97.5391 10.9083 97.6001 10.9083 97.6001 10.9676C97.7831 10.9083 97.9051 10.7898 98.0881 10.7305Z" fill="#2FB5D2"/>
<path d="M105.225 10.0784C105.774 9.9598 106.323 9.78195 106.872 9.66338C106.75 9.01125 106.567 8.29984 106.384 7.64771C106.018 8.41841 105.652 9.24839 105.225 10.0784Z" fill="#08A7CD"/>
<path d="M106.811 12.5684C106.262 11.7384 105.774 10.9677 105.225 10.1377C104.981 10.6713 104.676 11.2641 104.432 11.7977C105.225 12.0348 106.018 12.2719 106.811 12.5684Z" fill="#08A7CD"/>
<path d="M106.933 9.66333C106.384 9.7819 105.835 9.95975 105.286 10.0783C105.286 10.0783 105.286 10.0783 105.286 10.1376C105.835 10.9676 106.323 11.7383 106.872 12.5683C107.055 12.6276 107.299 12.6868 107.482 12.7461C107.299 11.679 107.116 10.6712 106.933 9.66333Z" fill="#5EC4E7"/>
<path d="M98.5761 16.0662C98.2711 15.7698 97.9661 15.5326 97.6611 15.2362C98.8811 15.0583 100.04 14.8805 101.26 14.7026C100.345 15.1769 99.4301 15.5919 98.5761 16.0662Z" fill="#08A7CD"/>
<path d="M118.645 7.52931C118.95 7.64788 119.316 7.82574 119.621 7.94431C119.987 8.12216 120.231 8.00359 120.536 7.82574C120.78 7.64788 121.024 7.41074 121.146 7.11432C120.475 6.69933 119.865 6.22505 119.194 5.81006C118.767 6.28434 118.34 6.75861 117.913 7.23289C118.157 7.35146 118.401 7.47003 118.645 7.52931Z" fill="#E6453B"/>
<path d="M109.373 27.5081C109.983 28.101 110.715 28.516 111.63 28.516C112.728 28.5753 113.765 28.6938 114.802 28.9903C115.839 29.2867 116.815 29.2274 117.73 28.6345C118.157 28.3381 118.462 27.9824 118.462 27.5081C118.462 26.9746 118.462 26.441 118.462 25.9074C118.462 25.4925 118.34 25.0182 118.462 24.6032C118.523 24.4846 118.401 24.3068 118.34 24.1289C118.096 24.2475 117.852 24.4253 117.669 24.4846C117.547 24.5439 117.486 24.6625 117.547 24.781C117.608 25.0775 117.608 25.3146 117.669 25.611C117.669 25.7296 117.669 25.8482 117.486 25.7889C117.12 25.6703 116.754 25.5517 116.449 25.4332C116.266 25.3739 116.144 25.196 116.144 24.9589C116.144 24.781 116.083 24.6032 116.083 24.4846C116.083 24.4253 116.144 24.3068 116.205 24.2475C116.266 24.1882 116.327 24.1882 116.449 24.1289C117.425 23.6546 118.401 23.2396 119.56 23.1804C119.621 23.1804 119.743 23.1211 119.743 23.0618C119.865 22.7061 119.987 22.2911 120.109 21.9354C120.17 21.7575 120.17 21.639 120.17 21.4018C118.34 21.639 116.937 22.3504 115.839 23.7139C115.656 23.4175 115.534 23.1804 115.351 22.9432C114.985 22.3504 114.436 21.8761 113.948 21.3425C112.972 20.2161 112.545 18.8526 112.362 17.3705C112.24 16.7183 112.362 16.0662 112.484 15.4141C112.667 14.5248 112.911 13.6948 113.704 13.102C114.314 12.6277 114.802 12.0348 115.168 11.3827C115.351 11.027 115.351 10.6713 115.107 10.3749C114.924 10.1377 114.741 9.95989 114.558 9.72275C114.497 9.60418 114.375 9.42632 114.375 9.30775C114.375 8.83348 114.436 8.3592 114.375 7.94421C114.375 7.52922 114.192 7.17351 113.826 6.99565C113.216 6.69923 112.667 6.40281 112.057 6.10638C110.898 5.57282 109.8 5.03926 108.58 4.62427C109.861 8.24063 110.654 12.6277 110.654 17.3705C110.654 21.0461 110.166 24.4846 109.373 27.5081Z" fill="white"/>
<path d="M116.876 15.0582C117.852 14.5247 119.438 14.0504 120.719 13.8726C120.841 13.9318 120.719 14.169 120.658 14.2283C120.597 14.2875 120.536 14.3468 120.475 14.4654C120.17 14.6433 120.048 14.9397 119.682 14.9397C118.767 14.999 118.218 14.999 117.486 15.0582C117.364 15.0582 116.937 15.0582 116.876 15.0582Z" fill="white"/>
<path d="M114.924 22.5282C113.704 22.8246 112.484 23.121 111.264 23.4767C112.911 23.7139 114.619 24.0103 116.266 24.2474C116.327 24.2474 116.327 24.2474 116.388 24.1882C117.242 23.7732 118.096 23.4175 119.072 23.2989C118.767 22.8839 118.462 22.4096 118.157 21.9946C117.242 22.4096 116.449 23.0025 115.839 23.8325C115.656 23.536 115.534 23.2989 115.351 23.0618C115.168 22.8246 115.046 22.706 114.924 22.5282Z" fill="#5EC4E7"/>
<path d="M113.338 20.5718C112.667 21.5203 111.935 22.4689 111.264 23.4174C112.484 23.121 113.704 22.8246 114.924 22.4689C114.619 22.1132 114.253 21.7575 113.948 21.4018C113.704 21.1646 113.521 20.8682 113.338 20.5718Z" fill="#08A7CD"/>
<path d="M111.447 11.3235C111.02 11.3828 110.654 11.4421 110.227 11.5013C110.471 13.3984 110.654 15.3548 110.654 17.4298C110.654 18.0226 110.654 18.6155 110.593 19.2083C110.776 20.6312 111.02 22.054 111.203 23.4768C111.874 22.5283 112.606 21.5797 113.277 20.6312C112.728 19.6826 112.484 18.6155 112.301 17.4891C112.179 16.837 112.301 16.1848 112.423 15.5327C112.545 14.9991 112.667 14.4656 112.972 13.9913C112.484 13.102 111.935 12.2128 111.447 11.3235Z" fill="#EB7032"/>
<path d="M110.227 11.5013C110.654 11.442 111.02 11.3827 111.447 11.3234C110.837 10.2563 110.227 9.18919 109.617 8.12207C109.861 9.18919 110.044 10.3156 110.227 11.5013Z" fill="#EB7032"/>
<path d="M114.863 11.9162C114.863 11.5605 114.802 11.1455 114.802 10.7898C113.704 10.9676 112.545 11.1455 111.447 11.3234C111.935 12.2126 112.484 13.1019 112.972 13.9912C113.155 13.6947 113.399 13.4576 113.704 13.2205C114.131 12.8055 114.558 12.3905 114.863 11.9162Z" fill="#F19326"/>
<path d="M114.802 10.7898C113.216 9.60409 111.691 8.47768 110.105 7.29199C109.922 7.46985 109.678 7.70698 109.495 7.88484C109.495 7.94412 109.556 8.00341 109.556 8.12198C110.166 9.1891 110.776 10.2562 111.386 11.3233C112.545 11.1455 113.704 10.9676 114.802 10.7898Z" fill="#F19326"/>
<path d="M114.741 26.856C115.961 26.7374 117.242 26.6188 118.462 26.5003C118.462 26.3224 118.462 26.1446 118.462 25.9667C118.462 25.7889 118.462 25.6703 118.401 25.4924C118.157 25.611 117.913 25.6703 117.669 25.7889C117.669 25.8481 117.608 25.9074 117.486 25.8481C116.571 26.1446 115.656 26.5003 114.741 26.856Z" fill="#1EA8B0"/>
<path d="M114.741 26.856C113.582 25.7296 112.423 24.6032 111.264 23.4768C110.959 25.0775 110.654 26.6189 110.288 28.2196C110.41 28.2789 110.532 28.3381 110.654 28.3974C111.996 27.8639 113.399 27.3303 114.741 26.856Z" fill="#5EC4E7"/>
<path d="M111.203 23.4175C112.362 24.5439 113.521 25.6703 114.68 26.7967C115.595 26.441 116.51 26.0853 117.425 25.7889C117.059 25.6703 116.754 25.5517 116.388 25.4332C116.205 25.3739 116.083 25.196 116.083 24.9589C116.083 24.781 116.022 24.6032 116.022 24.4846C116.022 24.4253 116.083 24.3068 116.144 24.2475C116.144 24.2475 116.205 24.1882 116.266 24.1882C114.558 23.951 112.911 23.7139 111.203 23.4175ZM118.462 24.5439C118.462 24.4253 118.401 24.2475 118.34 24.1289C118.096 24.2475 117.913 24.366 117.669 24.4846C117.547 24.5439 117.486 24.6625 117.547 24.781C117.608 25.0774 117.669 25.3146 117.669 25.611C117.669 25.6703 117.669 25.7296 117.669 25.7296C117.913 25.611 118.157 25.5517 118.401 25.4332C118.401 25.1367 118.34 24.8996 118.401 24.6032C118.462 24.6032 118.462 24.6032 118.462 24.5439Z" fill="#08A7CD"/>
<path d="M114.741 10.0784C114.741 10.3155 114.741 10.5526 114.802 10.7898C114.802 11.1455 114.863 11.5605 114.863 11.9162C115.046 11.6198 115.29 11.3233 115.29 10.9676C115.29 10.6119 114.985 10.3155 114.741 10.0784Z" fill="#EB7032"/>
<path d="M114.741 10.0784C114.741 10.3155 114.741 10.5526 114.802 10.7898C114.985 10.8491 115.107 10.9084 115.29 10.9084C115.229 10.5526 114.985 10.3155 114.741 10.0784Z" fill="#E6453B"/>
<path d="M110.349 22.3503C110.654 22.706 110.959 23.0617 111.203 23.4174C111.02 21.9946 110.776 20.5718 110.593 19.1489C110.532 20.2753 110.471 21.3425 110.349 22.3503Z" fill="#F19326"/>
<path d="M111.569 5.92847C111.081 6.40274 110.654 6.81774 110.166 7.29201C111.691 8.47771 113.277 9.60411 114.863 10.7898C114.863 10.5527 114.863 10.3155 114.802 10.0784C114.741 10.0191 114.68 9.90054 114.619 9.84125C114.558 9.72268 114.436 9.54483 114.436 9.42626C114.436 8.95198 114.497 8.4777 114.436 8.06271C114.436 7.64772 114.253 7.29201 113.887 7.11416C113.277 6.81774 112.728 6.46203 112.118 6.22489C111.874 6.04704 111.691 5.98775 111.569 5.92847Z" fill="#F8B21E"/>
<path d="M118.096 21.9945C118.401 22.4095 118.706 22.8838 119.011 23.2988C119.133 23.2988 119.255 23.2988 119.438 23.2988C119.499 23.2988 119.621 23.2395 119.621 23.1802C119.743 22.8245 119.865 22.4095 119.987 22.0538C120.048 21.876 120.048 21.7574 120.048 21.5203C119.377 21.5795 118.706 21.6981 118.096 21.9945Z" fill="#08A7CD"/>
<path d="M111.203 23.4175C110.898 23.0618 110.593 22.706 110.349 22.3503C110.288 23.0618 110.166 23.8325 110.044 24.5439C110.41 24.1882 110.837 23.7732 111.203 23.4175Z" fill="#F8B21E"/>
<path d="M114.741 26.856C114.436 27.5081 114.131 28.1602 113.826 28.8123C114.131 28.8716 114.497 28.9309 114.802 29.0495C115.534 29.2866 116.266 29.2866 116.998 29.0495C116.205 28.3381 115.473 27.5674 114.741 26.856Z" fill="#1EA8B0"/>
<path d="M114.741 26.856C115.473 27.5674 116.266 28.3381 116.998 29.0495C117.242 28.9309 117.486 28.8123 117.73 28.6938C118.157 28.3974 118.462 28.0416 118.462 27.5674C118.462 27.2117 118.462 26.856 118.462 26.5002C117.181 26.6188 115.961 26.7374 114.741 26.856Z" fill="#5EC4E7"/>
<path d="M111.203 23.4175C110.837 23.7732 110.41 24.1289 110.044 24.4846C109.861 25.5517 109.617 26.5596 109.373 27.5081C109.617 27.7453 109.922 27.9824 110.227 28.1602C110.593 26.6188 110.898 25.0182 111.203 23.4175Z" fill="#F19326"/>
<path d="M113.826 28.8123C114.131 28.1602 114.436 27.5081 114.741 26.856C113.399 27.3895 112.057 27.8638 110.715 28.3974C111.02 28.5159 111.325 28.5752 111.691 28.5752C112.362 28.5752 113.094 28.6938 113.826 28.8123Z" fill="#08A7CD"/>
<path d="M109.556 7.88483C109.739 7.70697 109.983 7.46984 110.166 7.29198C109.861 7.05484 109.556 6.8177 109.19 6.58057C109.312 6.99556 109.434 7.41055 109.556 7.88483Z" fill="#EF8323"/>
<path d="M110.105 7.29212C110.593 6.81784 111.02 6.40285 111.508 5.92857C110.532 5.45429 109.556 5.0393 108.519 4.68359C108.763 5.27644 108.946 5.92857 109.129 6.5807C109.495 6.81784 109.8 7.05498 110.105 7.29212Z" fill="#F19326"/>
<path d="M117.181 4.68345C116.266 4.14989 115.351 3.61633 114.375 3.08276C114.436 4.38703 114.497 5.75057 114.558 7.05483C114.741 6.93626 114.924 6.87698 115.046 6.87698C115.473 6.81769 115.9 6.81769 116.327 6.87698C116.632 6.16556 116.937 5.45415 117.181 4.68345Z" fill="#E6453B"/>
<path d="M114.375 3.14209C113.399 4.09064 112.423 5.0392 111.447 5.98775C112.484 6.5806 114.314 7.88486 114.253 7.64772C114.192 7.46987 114.375 7.23273 114.558 7.11416C114.558 5.75061 114.497 4.44635 114.375 3.14209Z" fill="#F9B70B"/>
<path d="M116.937 2.66797C117.181 2.96439 117.425 3.3201 117.608 3.61652C117.669 3.37938 117.791 3.14225 117.852 2.96439C117.547 2.84582 117.242 2.78654 116.937 2.66797Z" fill="#E85A34"/>
<path d="M117.181 4.68355C117.425 4.09071 117.669 3.55714 117.852 2.9643C117.547 2.84573 117.181 2.78644 116.876 2.66788C116.449 2.54931 116.022 2.43074 115.595 2.37145C114.68 2.1936 113.765 1.95646 112.85 1.83789C113.338 2.25288 113.826 2.72716 114.375 3.14215C115.351 3.67571 116.266 4.20928 117.181 4.68355Z" fill="#E32340"/>
<path d="M111.508 5.98775C112.484 5.0392 113.46 4.09064 114.436 3.14209C112.362 3.37923 110.349 3.61637 108.275 3.91279C108.397 4.20921 108.458 4.44635 108.58 4.68349C109.556 5.09848 110.166 5.3949 111.142 5.8099C111.264 5.8099 111.386 5.86918 111.508 5.98775Z" fill="#F19326"/>
<path d="M114.375 3.14219C113.887 2.7272 113.399 2.25292 112.85 1.83793C112.362 1.77864 111.935 1.66007 111.447 1.60079C111.325 1.60079 111.203 1.5415 111.081 1.5415C112.24 2.07507 113.338 2.60863 114.375 3.14219Z" fill="#E6453B"/>
<path d="M108.275 3.85356C110.349 3.61642 112.362 3.37928 114.436 3.08286C113.338 2.5493 112.301 2.01573 111.203 1.48217C110.349 1.3636 109.495 1.24503 108.641 1.18575C108.153 1.18575 107.604 1.12646 107.116 1.12646C107.421 1.95645 107.909 2.96429 108.275 3.85356Z" fill="#EB7032"/>
<path d="M121.39 6.28432C121.39 6.10647 121.39 5.92861 121.329 5.75076C121.207 5.33577 121.085 5.03934 120.841 4.74292C120.292 5.09863 119.743 5.51362 119.194 5.86933C119.56 6.58074 119.987 7.29216 120.353 7.94429C120.414 7.94429 120.414 7.885 120.475 7.82572C120.719 7.64787 120.963 7.41073 121.085 7.1143C121.268 6.87717 121.39 6.58074 121.39 6.28432Z" fill="#E32340"/>
<path d="M117.852 2.96436C117.608 3.5572 117.364 4.09076 117.181 4.68361C117.852 5.03932 118.523 5.45431 119.194 5.81002C118.767 4.92075 118.34 3.91291 117.852 2.96436Z" fill="#D61D43"/>
<path d="M117.181 4.68359C116.876 5.39501 116.632 6.10642 116.327 6.81784C116.815 6.87712 117.242 6.99569 117.669 7.17355C117.73 7.17355 117.852 7.23283 117.913 7.29212C118.34 6.81784 118.767 6.34356 119.194 5.86929C118.523 5.45429 117.852 5.09859 117.181 4.68359Z" fill="#E32340"/>
<path d="M117.852 2.96436C118.279 3.91291 118.706 4.86146 119.194 5.81002C119.743 5.45431 120.292 5.03932 120.841 4.68361C120.719 4.56504 120.658 4.44647 120.536 4.3279C120.353 4.15005 120.109 3.97219 119.865 3.85362C119.194 3.49792 118.523 3.20149 117.852 2.96436Z" fill="#E6453B"/>
<path d="M117.425 15.0582C118.157 15.0582 118.767 15.0582 119.621 14.9397C119.987 14.9397 120.17 14.6433 120.414 14.4654C120.475 14.4061 120.536 14.3468 120.597 14.2283C120.658 14.169 120.78 13.9318 120.658 13.8726C119.377 13.9911 117.852 14.5247 116.815 15.0582C116.937 15.0582 117.364 15.0582 117.425 15.0582Z" fill="#08A7CD"/>
<path d="M107.787 20.2161C107.787 20.0976 107.787 19.9197 107.787 19.8011C107.787 19.7419 107.787 19.6826 107.787 19.6233C107.726 19.6826 107.604 19.7419 107.543 19.8011C107.116 20.0976 106.689 20.4533 106.201 20.7497C106.75 20.6904 107.238 20.5718 107.726 20.5126C107.787 20.394 107.787 20.2754 107.787 20.2161Z" fill="#EB7032"/>
<path d="M105.225 21.4612C106.018 22.054 106.811 22.6469 107.604 23.2397C107.665 22.2912 107.726 21.4019 107.787 20.4534C107.238 20.5127 106.75 20.6312 106.201 20.6905C105.896 20.9276 105.591 21.2241 105.225 21.4612Z" fill="#F19326"/>
<path d="M102.236 27.0338C103.151 27.5673 104.066 28.1009 104.981 28.6345C104.859 26.3817 104.737 24.1288 104.615 21.9353C104.432 22.0539 104.249 22.1724 104.066 22.3503C103.517 23.8324 102.846 25.4331 102.236 27.0338Z" fill="#E6453B"/>
<path d="M105.042 28.5753C105.774 27.8639 106.506 27.1525 107.238 26.4411C107.36 25.7297 107.482 25.0183 107.543 24.2476C107.604 23.8919 107.604 23.5954 107.665 23.2397C106.872 22.6469 106.079 22.054 105.286 21.4612C105.103 21.5798 104.92 21.7576 104.676 21.8762C104.798 24.129 104.92 26.3225 105.042 28.5753Z" fill="#F8B21E"/>
<path d="M104.127 31.3024C103.334 30.2353 102.602 29.1682 101.809 28.0417C101.26 29.4053 100.772 30.7096 100.223 32.0731C100.65 32.1324 101.077 32.1917 101.504 32.251C101.626 32.251 101.748 32.251 101.87 32.1917C102.358 32.0138 102.846 31.836 103.334 31.6581C103.639 31.5395 103.883 31.4803 104.127 31.3024Z" fill="#D61D43"/>
<path d="M102.236 27.0339C102.114 27.3896 101.931 27.7454 101.809 28.1011C102.602 29.1682 103.334 30.2353 104.127 31.3617C104.371 31.2431 104.554 31.0653 104.737 30.8281C105.164 30.3539 105.591 29.9389 106.018 29.5239C105.652 29.2275 105.347 28.931 104.981 28.6346C104.066 28.0418 103.151 27.5082 102.236 27.0339Z" fill="#E32340"/>
<path d="M105.042 28.5752C105.408 28.8716 105.713 29.168 106.079 29.4645C106.14 29.3459 106.262 29.2866 106.323 29.2273C105.896 28.9902 105.469 28.8123 105.042 28.5752Z" fill="#E6453B"/>
<path d="M105.042 28.5754C105.469 28.8125 105.896 28.9904 106.323 29.2275C106.323 29.2275 106.323 29.2275 106.384 29.1682C106.445 29.0496 106.628 29.0496 106.689 28.9311C106.75 28.8125 106.811 28.6939 106.872 28.5161C106.872 28.4568 106.872 28.3975 106.933 28.3382C107.055 27.6861 107.177 27.034 107.299 26.3818C106.506 27.1525 105.774 27.8639 105.042 28.5754Z" fill="#EB7032"/>
<path d="M98.6372 27.686C99.1862 27.0932 99.7352 26.5004 100.223 25.9075C99.6742 25.7889 99.1252 25.6704 98.5762 25.6111C98.6982 25.9075 98.8812 26.1446 98.8202 26.5004C98.7592 26.8561 98.6982 27.2711 98.6372 27.686Z" fill="#E32340"/>
<path d="M98.5763 25.5517C99.1253 25.6702 99.6743 25.7888 100.223 25.8481C99.5523 24.781 98.8203 23.7139 98.1493 22.6467V22.706C98.0883 23.0024 98.0273 23.3581 97.9053 23.6546C97.9053 23.7731 97.9053 23.8324 98.0273 23.8324C98.2713 23.951 98.5153 24.1288 98.8203 24.2474C98.9423 24.3067 98.9423 24.366 98.8203 24.4846C98.6983 24.6031 98.5153 24.781 98.3933 24.8995C98.4543 25.196 98.5153 25.3738 98.5763 25.5517Z" fill="#D61D43"/>
<path d="M101.809 28.0417C101.931 27.686 102.053 27.3303 102.236 26.9746C101.565 26.6188 100.894 26.2039 100.223 25.8481C100.772 26.6188 101.321 27.3303 101.809 28.0417Z" fill="#D61D43"/>
<path d="M102.236 27.0338C102.846 25.4331 103.456 23.8917 104.127 22.291C103.517 22.706 102.968 23.1803 102.358 23.5953C101.687 24.366 100.955 25.1367 100.284 25.9074C100.894 26.2631 101.565 26.6188 102.236 27.0338Z" fill="#E32340"/>
<path d="M98.7586 30.5316C99.2466 28.9902 99.7346 27.4488 100.284 25.8481C99.7346 26.441 99.1856 27.0338 98.6976 27.6267C98.5756 28.2788 98.5146 28.9902 98.3926 29.6424C98.3926 29.7016 98.3926 29.8202 98.4536 29.8795C98.5146 30.1166 98.6366 30.3538 98.7586 30.5316Z" fill="#E6453B"/>
<path d="M100.589 24.7811C100.467 25.1368 100.345 25.4925 100.223 25.8482C100.894 25.0775 101.626 24.3068 102.297 23.5361C101.748 23.9511 101.199 24.3661 100.589 24.7811Z" fill="#E6453B"/>
<path d="M100.223 32.073C100.772 30.7095 101.26 29.4052 101.809 28.0417C101.26 27.3303 100.772 26.5596 100.223 25.8481C99.7352 27.3895 99.2472 28.9309 98.6982 30.5316C98.9422 31.0059 99.2472 31.4209 99.5522 31.8359C99.6132 31.8952 99.6742 31.9545 99.7962 32.0137C99.9792 32.0137 100.101 32.073 100.223 32.073Z" fill="#E32340"/>
<path d="M100.284 25.9074C100.406 25.5517 100.528 25.196 100.65 24.8403C100.589 24.8996 100.528 24.8996 100.467 24.9589C99.9794 23.951 99.4914 23.0025 99.0034 21.9946C98.8204 22.1132 98.6984 22.1725 98.5154 22.2911C98.3934 22.4096 98.3324 22.5282 98.2104 22.5875L98.1494 22.6468C98.8814 23.7732 99.5524 24.8403 100.284 25.9074Z" fill="#E32340"/>
<path d="M98.5146 22.291C98.6976 22.1724 98.8196 22.1131 99.0026 21.9945C99.0026 21.9353 98.9416 21.876 98.9416 21.876C98.7586 21.9945 98.6366 22.1724 98.5146 22.291Z" fill="#E32144"/>
<path d="M104.676 7.94416C102.602 7.64774 100.528 7.29203 98.4541 6.99561C99.0641 7.88487 99.6741 8.71486 100.284 9.60413C100.65 9.42628 101.016 9.24842 101.382 9.01128C101.504 8.952 101.626 8.89272 101.748 8.83343C102.724 8.53701 103.7 8.24058 104.676 7.94416Z" fill="#5EC4E7"/>
<path d="M103.822 4.97998C102.236 5.15783 100.589 5.2764 99.003 5.45426C98.82 5.57283 98.576 5.75068 98.393 5.92853C98.332 5.98782 98.271 6.0471 98.21 6.10639C98.271 6.40281 98.393 6.75852 98.454 7.05494C100.223 6.34353 102.053 5.63211 103.822 4.97998Z" fill="#1EA8B0"/>
<path d="M103.822 4.98005C104.676 5.81004 105.469 6.64002 106.323 7.41072C106.018 6.40288 105.713 5.39505 105.347 4.38721C104.859 4.62435 104.371 4.8022 103.822 4.98005Z" fill="#5EC4E7"/>
<path d="M98.4541 6.99567C98.3931 6.69925 98.2711 6.34354 98.2101 6.04712C98.0271 6.16569 97.8441 6.34354 97.6611 6.5214C97.9661 6.63996 98.2101 6.81782 98.4541 6.99567Z" fill="#08A7CD"/>
<path d="M106.323 7.46997C105.469 6.63999 104.676 5.81001 103.822 5.03931C102.053 5.69144 100.223 6.40285 98.4541 7.05498C100.528 7.35141 102.602 7.70711 104.676 8.00354C105.164 7.82568 105.713 7.70711 106.201 7.52926C106.262 7.46998 106.323 7.46997 106.323 7.46997Z" fill="#08A7CD"/>
<path d="M100.284 9.60413C99.6744 8.71486 99.0644 7.88487 98.4544 6.99561C98.0884 8.24058 97.7224 9.42628 97.3564 10.6713C97.4174 10.7305 97.4784 10.8491 97.5394 10.9084C97.7224 10.8491 97.9054 10.7898 98.0884 10.7898C98.8204 10.3155 99.5524 9.95984 100.284 9.60413Z" fill="#08A7CD"/>
<path d="M98.454 6.99576C98.21 6.81791 97.966 6.64005 97.661 6.52148C97.6 6.58077 97.539 6.64005 97.417 6.69934C97.112 6.93648 96.807 7.2329 96.502 7.47004C96.563 8.18145 96.624 8.89287 96.624 9.66357C96.868 10.0193 97.112 10.3157 97.295 10.6714C97.722 9.42643 98.088 8.18145 98.454 6.99576Z" fill="#5EC4E7"/>
<path d="M96.685 9.6635C96.624 8.95209 96.624 8.24067 96.563 7.46997C96.258 7.70711 96.014 7.94425 95.709 8.18139C96.014 8.71495 96.319 9.18923 96.685 9.6635Z" fill="#1EA8B0"/>
<path d="M103.822 4.9799C104.127 4.32777 104.432 3.61636 104.737 2.96423C104.676 2.78637 104.554 2.60852 104.493 2.43066C104.249 2.43066 104.188 2.48995 103.944 2.54923C103.822 2.54923 103.212 2.90494 103.151 2.90494C102.846 3.08279 102.602 3.26065 102.297 3.4385C102.785 3.97206 103.334 4.50562 103.822 4.9799Z" fill="#1EA8B0"/>
<path d="M103.822 4.97992C103.334 4.44636 102.785 3.97208 102.297 3.4978C101.382 4.03136 100.528 4.56493 99.4915 5.21706C99.3695 5.27634 99.1865 5.39491 99.0645 5.51348C100.65 5.27634 102.236 5.15777 103.822 4.97992Z" fill="#08A7CD"/>
<path d="M104.798 2.96436C104.493 3.61649 104.188 4.3279 103.883 4.98003C104.371 4.80218 104.92 4.62433 105.408 4.38719C105.164 3.91291 104.981 3.43863 104.798 2.96436Z" fill="#08A7CD"/>
<path d="M98.0881 10.7305C97.9051 10.7898 97.7221 10.849 97.5391 10.849C97.5391 10.9083 97.6001 10.9083 97.6001 10.9676C97.7831 10.9083 97.9051 10.7898 98.0881 10.7305Z" fill="#2FB5D2"/>
<path d="M105.225 10.0784C105.774 9.9598 106.323 9.78195 106.872 9.66338C106.75 9.01125 106.567 8.29984 106.384 7.64771C106.018 8.41841 105.652 9.24839 105.225 10.0784Z" fill="#08A7CD"/>
<path d="M106.811 12.5684C106.262 11.7384 105.774 10.9677 105.225 10.1377C104.981 10.6713 104.676 11.2641 104.432 11.7977C105.225 12.0348 106.018 12.2719 106.811 12.5684Z" fill="#08A7CD"/>
<path d="M106.933 9.66333C106.384 9.7819 105.835 9.95975 105.286 10.0783C105.286 10.0783 105.286 10.0783 105.286 10.1376C105.835 10.9676 106.323 11.7383 106.872 12.5683C107.055 12.6276 107.299 12.6868 107.482 12.7461C107.299 11.679 107.116 10.6712 106.933 9.66333Z" fill="#5EC4E7"/>
<path d="M98.5761 16.0662C98.2711 15.7698 97.9661 15.5326 97.6611 15.2362C98.8811 15.0583 100.04 14.8805 101.26 14.7026C100.345 15.1769 99.4301 15.5919 98.5761 16.0662Z" fill="#08A7CD"/>
</svg>
