<svg width="154" height="70" viewBox="0 0 154 70" fill="none" xmlns="http://www.w3.org/2000/svg">
<path d="M19.4464 26.0541C16.7598 26.0541 15.202 27.2605 14.4569 28.0647C14.3666 27.3498 13.8925 26.4339 12.0412 26.4339H8V30.5891H9.6481C9.91902 30.5891 10.0093 30.6785 10.0093 30.9465V49.9578H14.7956V42.8537V42.3175C15.5406 42.9877 16.963 43.926 19.1981 43.926C23.8714 43.926 27.1451 40.2623 27.1451 34.9901C27.1677 29.6508 24.0521 26.0541 19.4464 26.0541ZM18.4756 39.7931C15.9019 39.7931 14.7279 37.3581 14.7279 35.0794C14.7279 31.505 16.692 30.2317 18.5433 30.2317C20.801 30.2317 22.3362 32.1529 22.3362 35.0347C22.3137 38.341 20.3721 39.7931 18.4756 39.7931Z" fill="#201E38"/>
<path d="M33.6024 39.0559V28.9806C33.6024 27.2828 32.767 26.4562 31.0738 26.4562H26.7842V30.6114H28.4323C28.7032 30.6114 28.7935 30.7008 28.7935 30.9689V40.9995C28.7935 42.7196 29.6063 43.5239 31.3221 43.5239H35.6117V39.391H33.9636C33.7152 39.4133 33.6024 39.3016 33.6024 39.0559Z" fill="#201E38"/>
<path d="M46.1095 26.0541C43.4229 26.0541 41.8651 27.2605 41.0975 28.0647C41.0072 27.3498 40.533 26.4339 38.6817 26.4339H34.6631V30.5891H36.3112C36.5821 30.5891 36.6724 30.6785 36.6724 30.9465V49.9578H41.5038V42.8537V42.3175C42.2489 42.9877 43.6938 43.926 45.9063 43.926C50.5797 43.926 53.8533 40.2623 53.8533 34.9901C53.8533 29.6508 50.7377 26.0541 46.1095 26.0541ZM45.1387 39.7931C42.5649 39.7931 41.391 37.3581 41.391 35.0794C41.391 31.505 43.3551 30.2317 45.2064 30.2317C47.4641 30.2317 48.9993 32.1529 48.9993 35.0347C48.9993 38.341 47.0577 39.7931 45.1387 39.7931Z" fill="#201E38"/>
<path d="M62.8613 26.0541C57.6913 26.0541 54.1016 29.7402 54.1016 34.9901C54.1016 40.1729 57.9848 43.926 63.358 43.926C67.5799 43.926 70.1536 41.4463 70.2665 41.3569L70.4697 41.1782L68.3926 37.7602L68.0766 38.0506C68.054 38.073 66.1575 39.7931 63.6515 39.7931C61.2584 39.7931 59.4974 38.341 59.0684 36.0624H70.4246L70.4471 35.7496C70.4471 35.7049 70.56 34.6996 70.56 34.2082C70.56 29.3381 67.467 26.0541 62.8613 26.0541ZM59.2491 32.5327C59.7683 30.8572 61.0778 29.8966 62.8613 29.8966C64.3063 29.8966 65.4125 30.9912 65.6157 32.5327H59.2491Z" fill="#201E38"/>
<path d="M87.9896 39.0559V22.5467C87.9896 20.8489 87.1543 20.0223 85.4384 20.0223H81.1489V24.1776H82.797C83.0679 24.1776 83.1582 24.2669 83.1582 24.535V27.5285C82.4583 26.903 81.0811 26.0764 78.688 26.0764C74.0372 26.0764 70.7861 29.7625 70.7861 35.0124C70.7861 40.3516 73.9017 43.9483 78.5074 43.9483C81.1489 43.9483 82.6841 42.742 83.4291 41.8931C83.5194 42.6303 84.0161 43.5686 85.7997 43.5686H89.9538V39.4357H88.3508C88.0799 39.4133 87.9896 39.3016 87.9896 39.0559ZM79.433 39.7931C77.1528 39.7931 75.6853 37.9166 75.6853 34.99C75.6853 32.1529 77.2205 30.254 79.5007 30.254C82.0971 30.254 83.2485 32.622 83.2485 34.9677C83.2485 38.5421 81.2843 39.7931 79.433 39.7931Z" fill="#201E38"/>
<path d="M100.633 26.2105C98.6459 26.2105 96.7946 27.3498 95.7109 29.1593V28.7796C95.7109 27.2381 94.853 26.4339 93.1597 26.4339H89.0508V30.5891H90.6989C90.9698 30.5891 91.0601 30.6785 91.0601 30.9465V43.5239H95.8464V36.6879C95.8464 35.7943 95.9593 34.923 96.185 34.1188C96.9075 31.7508 98.8265 30.9242 100.362 30.9242C100.904 30.9242 101.31 30.9912 101.31 30.9912L101.716 31.0582V26.3445L101.423 26.2998C101.423 26.2775 101.016 26.2105 100.633 26.2105Z" fill="#201E38"/>
<path d="M108.534 39.0559V28.9806C108.534 27.2828 107.699 26.4562 106.005 26.4562H102.122V30.6114H103.364C103.635 30.6114 103.725 30.7008 103.725 30.9689V40.9995C103.725 42.7196 104.538 43.5239 106.254 43.5239H110.543V39.391H108.895C108.647 39.4133 108.534 39.3016 108.534 39.0559Z" fill="#201E38"/>
<path d="M126.618 26.4562H124.067C122.577 26.4562 121.764 26.97 121.29 28.2211L118.174 36.8442C118.061 37.157 117.971 37.5144 117.881 37.8719C117.79 37.5368 117.678 37.157 117.565 36.8442L114.449 28.2211C113.975 26.9477 113.207 26.4562 111.672 26.4562H108.963V30.6114H109.663C110.047 30.6114 110.159 30.7455 110.25 30.9689L115.081 43.5462H120.477L125.308 30.9689C125.399 30.7455 125.512 30.6114 125.895 30.6114H126.64V26.4562H126.618Z" fill="#201E38"/>
<path d="M134.881 26.0541C129.711 26.0541 126.121 29.7402 126.121 34.9901C126.121 40.1729 130.004 43.926 135.378 43.926C139.599 43.926 142.173 41.4463 142.286 41.3569L142.489 41.1782L140.412 37.7602L140.096 38.0506C140.074 38.073 138.177 39.7931 135.694 39.7931C133.301 39.7931 131.54 38.341 131.111 36.0624H142.467L142.489 35.7496C142.489 35.7049 142.58 34.6996 142.58 34.2082C142.58 29.3381 139.487 26.0541 134.881 26.0541ZM131.269 32.5327C131.788 30.8572 133.097 29.8966 134.881 29.8966C136.326 29.8966 137.432 30.9912 137.635 32.5327H131.269Z" fill="#201E38"/>
<path d="M33.2631 20H28.9961V24.4456H33.2631V20Z" fill="#201E38"/>
<path d="M108.218 20H103.951V24.4456H108.218V20Z" fill="#201E38"/>
<path d="M142.489 26.4562H143.121V28.1541H143.596V26.4562H144.228V26.0541H142.489V26.4562Z" fill="#201E38"/>
<path d="M146.102 26.0541L145.628 27.5062L145.131 26.0541H144.477V28.1541H144.906V26.6796H144.928L145.447 28.1541H145.809L146.328 26.6796V28.1541H146.757V26.0541H146.102Z" fill="#201E38"/>
</svg>
