<svg width="90" height="90" viewBox="0 0 90 90" fill="none" xmlns="http://www.w3.org/2000/svg">
<rect width="90" height="90" rx="45" fill="#FFF3DA"/>
<path d="M33.75 47.925L40.1625 40.05C40.1625 40.05 35.2125 38.7 30.6 39.825C27.1125 40.6125 26.55 47.25 26.4375 50.4C26.4375 51.1875 27.225 51.6375 27.9 51.3L33.75 47.925Z" fill="#FF6242"/>
<path d="M30.6 42.75C33.3 42.075 36.225 42.3 38.025 42.6375L40.1625 40.05C40.1625 40.05 35.2125 38.7 30.6 39.825C27.1125 40.6125 26.55 47.25 26.4375 50.4C26.4375 50.625 26.4375 50.7375 26.55 50.9625C27 47.5875 27.9 43.425 30.6 42.75Z" fill="#FF866E"/>
<path d="M33.75 47.925L40.1625 40.05C40.1625 40.05 35.2125 38.7 30.6 39.825C27.1125 40.6125 26.55 47.25 26.4375 50.4C26.4375 51.1875 27.225 51.6375 27.9 51.3L33.75 47.925Z" stroke="#45413C" stroke-miterlimit="10" stroke-linecap="round" stroke-linejoin="round"/>
<path d="M41.5118 55.575L49.3868 49.1625C49.3868 49.1625 50.7368 54.1125 49.6118 58.725C48.8243 62.2125 42.1868 62.775 39.0368 62.8875C38.2493 62.8875 37.7993 62.1 38.1368 61.425L41.5118 55.575Z" fill="#FF6242"/>
<path d="M46.5748 58.725C47.2498 56.025 47.0248 53.1 46.6873 51.3L49.2748 49.1625C49.2748 49.1625 50.6248 54.1125 49.4998 58.725C48.7123 62.2125 42.0748 62.775 38.9248 62.8875C38.6998 62.8875 38.5873 62.8875 38.3623 62.775C41.7373 62.4375 45.8998 61.5375 46.5748 58.725Z" fill="#FF866E"/>
<path d="M41.5118 55.575L49.3868 49.1625C49.3868 49.1625 50.7368 54.1125 49.6118 58.725C48.8243 62.2125 42.1868 62.775 39.0368 62.8875C38.2493 62.8875 37.7993 62.1 38.1368 61.425L41.5118 55.575Z" stroke="#45413C" stroke-miterlimit="10" stroke-linecap="round" stroke-linejoin="round"/>
<path d="M62.4375 42.3C68.5125 35.8875 66.6 28.0125 65.7 25.2C65.5875 24.8625 65.3625 24.525 65.1375 24.3C64.9125 24.075 64.575 23.85 64.2375 23.7375C61.425 22.8375 53.55 20.8125 47.1375 27C39.15 34.5375 33.75 47.8125 33.75 47.8125L41.625 55.6875C41.5125 55.6875 54.9 50.175 62.4375 42.3Z" fill="#E8F4FA"/>
<path d="M49.5 31.3875C55.6875 25.425 63.3375 27.1125 66.375 28.125C66.15 26.8875 65.8125 25.875 65.5875 25.2C65.3625 24.525 64.8 23.9625 64.125 23.7375C61.425 22.8375 53.55 20.8125 47.1375 27C39.15 34.5375 33.75 47.8125 33.75 47.8125L36.7875 50.85C38.3625 47.25 43.2 37.4625 49.5 31.3875Z" fill="white"/>
<path d="M62.4375 42.3C68.5125 35.8875 66.6 28.0125 65.7 25.2C65.5875 24.8625 65.3625 24.525 65.1375 24.3C64.9125 24.075 64.575 23.85 64.2375 23.7375C61.425 22.8375 53.55 20.8125 47.1375 27C39.15 34.5375 33.75 47.8125 33.75 47.8125L41.625 55.6875C41.5125 55.6875 54.9 50.175 62.4375 42.3Z" stroke="#45413C" stroke-miterlimit="10" stroke-linecap="round" stroke-linejoin="round"/>
<path opacity="0.15" d="M49.7246 69.4125C55.9378 69.4125 60.9746 68.657 60.9746 67.725C60.9746 66.793 55.9378 66.0375 49.7246 66.0375C43.5114 66.0375 38.4746 66.793 38.4746 67.725C38.4746 68.657 43.5114 69.4125 49.7246 69.4125Z" fill="#45413C"/>
<path d="M43.5372 46.8C43.8747 46.125 43.1997 45.45 42.5247 45.7875C40.9497 46.575 38.5872 48.0375 36.5622 50.0625C33.9747 52.65 32.7372 55.35 32.1747 56.7C32.0622 57.0375 32.3997 57.375 32.6247 57.15C33.9747 56.5875 36.6747 55.35 39.2622 52.7625C41.2872 50.85 42.7497 48.4875 43.5372 46.8Z" fill="#FF6242" stroke="#45413C" stroke-miterlimit="10" stroke-linecap="round" stroke-linejoin="round"/>
<path d="M60.2818 37.8136C62.6981 35.3972 62.6981 31.4795 60.2818 29.0632C57.8654 26.6469 53.9478 26.6469 51.5314 29.0632C49.1151 31.4795 49.1151 35.3972 51.5314 37.8136C53.9478 40.2299 57.8654 40.2299 60.2818 37.8136Z" fill="#C0DCEB" stroke="#45413C" stroke-miterlimit="10" stroke-linecap="round" stroke-linejoin="round"/>
<path d="M59.0451 36.3968C60.7146 34.7273 60.7146 32.0205 59.0451 30.3511C57.3756 28.6816 54.6689 28.6816 52.9994 30.351C51.3299 32.0205 51.3299 34.7273 52.9994 36.3968C54.6689 38.0662 57.3756 38.0662 59.0451 36.3968Z" fill="#00B8F0"/>
<path d="M52.9873 30.375C51.2998 32.0625 51.2998 34.7625 52.9873 36.45C53.3248 36.7875 53.5498 37.0125 53.9998 37.125L58.0498 29.5875C56.2498 28.8 54.3373 29.025 52.9873 30.375Z" fill="#4ACFFF"/>
<path d="M59.0451 36.3968C60.7146 34.7273 60.7146 32.0205 59.0451 30.3511C57.3756 28.6816 54.6689 28.6816 52.9994 30.351C51.3299 32.0205 51.3299 34.7273 52.9994 36.3968C54.6689 38.0662 57.3756 38.0662 59.0451 36.3968Z" stroke="#45413C" stroke-miterlimit="10" stroke-linecap="round" stroke-linejoin="round"/>
<path d="M30.7123 64.6875C29.9248 65.475 24.8623 67.1625 22.3873 67.95C21.9373 68.0625 21.2623 67.3875 21.3748 66.9375C22.1623 64.35 23.8498 59.4 24.6373 58.6125C25.6498 57.6 28.4623 57.4875 30.1498 59.175C31.9498 60.75 31.8373 63.5625 30.7123 64.6875Z" fill="#FF8A14" stroke="#45413C" stroke-miterlimit="10" stroke-linecap="round" stroke-linejoin="round"/>
<path d="M29.3627 62.775C28.8002 63.3375 26.4377 63.9 25.9877 63.45C25.5377 63 26.1002 60.6375 26.6627 60.075C27.2252 59.5125 28.3502 59.7375 29.0252 60.4125C29.8127 61.0875 29.9252 62.2125 29.3627 62.775Z" fill="#FFE500" stroke="#45413C" stroke-miterlimit="10" stroke-linecap="round" stroke-linejoin="round"/>
<path d="M66.7123 44.6625L67.6123 46.35C67.7248 46.4625 67.8373 46.575 67.9498 46.575L69.8623 46.8C70.1998 46.8 70.4248 47.3625 70.0873 47.5875L68.7373 48.9375C68.6248 49.05 68.6248 49.1625 68.6248 49.3875L68.9623 51.3C69.0748 51.6375 68.6248 51.975 68.2873 51.8625L66.5998 50.9625C66.4873 50.85 66.2623 50.85 66.1498 50.9625L64.4623 51.8625C64.1248 52.0875 63.6748 51.75 63.7873 51.4125L64.1248 49.5C64.1248 49.3875 64.1248 49.1625 64.0123 49.05L62.5498 47.7C62.2123 47.475 62.4373 46.9125 62.7748 46.9125L64.6873 46.575C64.7998 46.575 65.0248 46.4625 65.0248 46.35L65.8123 44.6625C66.0373 44.325 66.5998 44.325 66.7123 44.6625Z" fill="#FFE500"/>
<path d="M63.5621 48.7125L64.7996 48.4875C64.9121 48.4875 65.1371 48.375 65.1371 48.2625L65.9246 46.575C66.0371 46.2375 66.5996 46.2375 66.7121 46.575L67.6121 48.2625C67.7246 48.375 67.8371 48.4875 67.9496 48.4875L69.1871 48.6L70.0871 47.5875C70.3121 47.3625 70.1996 46.8 69.8621 46.8L67.9496 46.575C67.8371 46.575 67.6121 46.4625 67.6121 46.35L66.7121 44.6625C66.4871 44.325 66.0371 44.325 65.9246 44.6625L65.1371 46.35C65.0246 46.4625 64.9121 46.575 64.7996 46.575L62.8871 46.9125C62.5496 47.025 62.3246 47.475 62.6621 47.7L63.5621 48.7125Z" fill="#FFF48C"/>
<path d="M66.7123 44.6625L67.6123 46.35C67.7248 46.4625 67.8373 46.575 67.9498 46.575L69.8623 46.8C70.1998 46.8 70.4248 47.3625 70.0873 47.5875L68.7373 48.9375C68.6248 49.05 68.6248 49.1625 68.6248 49.3875L68.9623 51.3C69.0748 51.6375 68.6248 51.975 68.2873 51.8625L66.5998 50.9625C66.4873 50.85 66.2623 50.85 66.1498 50.9625L64.4623 51.8625C64.1248 52.0875 63.6748 51.75 63.7873 51.4125L64.1248 49.5C64.1248 49.3875 64.1248 49.1625 64.0123 49.05L62.5498 47.7C62.2123 47.475 62.4373 46.9125 62.7748 46.9125L64.6873 46.575C64.7998 46.575 65.0248 46.4625 65.0248 46.35L65.8123 44.6625C66.0373 44.325 66.5998 44.325 66.7123 44.6625Z" stroke="#45413C" stroke-miterlimit="10" stroke-linecap="round" stroke-linejoin="round"/>
<path d="M53.6625 63.675L54 65.1375C54 65.25 54.1125 65.3625 54.225 65.3625L55.6875 65.925C56.025 66.0375 56.025 66.4875 55.6875 66.6L54.3375 67.5C54.225 67.6125 54.1125 67.725 54.1125 67.8375L54 69.3C54 69.6375 53.55 69.75 53.325 69.525L52.2 68.5125C52.0875 68.4 51.975 68.4 51.8625 68.4L50.4 68.7375C50.0625 68.85 49.8375 68.5125 49.95 68.175L50.625 66.7125C50.625 66.6 50.625 66.4875 50.625 66.375L49.8375 65.025C49.725 64.8 49.95 64.4625 50.175 64.4625L51.75 64.6875C51.8625 64.6875 51.975 64.6875 52.0875 64.575L53.1 63.45C53.2125 63.225 53.6625 63.3375 53.6625 63.675Z" fill="#FFE500"/>
<path d="M50.4001 66.15L51.4126 66.2625C51.5251 66.2625 51.6376 66.2625 51.7501 66.15L52.7626 65.025C52.9876 64.8 53.3251 64.9125 53.4376 65.25L53.7751 66.7125C53.7751 66.825 53.8876 66.9375 54.0001 66.9375L54.9001 67.275L55.8001 66.7125C56.0251 66.6 56.0251 66.15 55.8001 66.0375L54.3376 65.475C54.2251 65.475 54.1126 65.3625 54.1126 65.25L53.7751 63.7875C53.6626 63.45 53.3251 63.3375 53.1001 63.5625L52.0876 64.6875C51.9751 64.8 51.8626 64.8 51.7501 64.8L50.1751 64.575C49.8376 64.575 49.6126 64.9125 49.8376 65.1375L50.4001 66.15Z" fill="#FFF48C"/>
<path d="M53.6625 63.675L54 65.1375C54 65.25 54.1125 65.3625 54.225 65.3625L55.6875 65.925C56.025 66.0375 56.025 66.4875 55.6875 66.6L54.3375 67.5C54.225 67.6125 54.1125 67.725 54.1125 67.8375L54 69.3C54 69.6375 53.55 69.75 53.325 69.525L52.2 68.5125C52.0875 68.4 51.975 68.4 51.8625 68.4L50.4 68.7375C50.0625 68.85 49.8375 68.5125 49.95 68.175L50.625 66.7125C50.625 66.6 50.625 66.4875 50.625 66.375L49.8375 65.025C49.725 64.8 49.95 64.4625 50.175 64.4625L51.75 64.6875C51.8625 64.6875 51.975 64.6875 52.0875 64.575L53.1 63.45C53.2125 63.225 53.6625 63.3375 53.6625 63.675Z" stroke="#45413C" stroke-miterlimit="10" stroke-linecap="round" stroke-linejoin="round"/>
<path d="M31.3952 25.944C31.6693 24.0376 30.346 22.2699 28.4396 21.9958C26.5331 21.7217 24.7655 23.045 24.4914 24.9515C24.2173 26.8579 25.5406 28.6256 27.447 28.8997C29.3535 29.1738 31.1212 27.8505 31.3952 25.944Z" fill="#9CEB60"/>
<path d="M28.4621 24.4125C29.6996 24.6375 30.7121 25.425 31.1621 26.55C31.2746 26.325 31.2746 26.1 31.3871 25.7625C31.6121 23.85 30.3746 22.1625 28.4621 21.825C26.5496 21.7125 24.7496 23.0625 24.5246 24.975C24.4121 25.5375 24.5246 26.1 24.7496 26.6625C25.3121 25.2 26.7746 24.1875 28.4621 24.4125Z" fill="#C8FFA1"/>
<path d="M31.3952 25.944C31.6693 24.0376 30.346 22.2699 28.4396 21.9958C26.5331 21.7217 24.7655 23.045 24.4914 24.9515C24.2173 26.8579 25.5406 28.6256 27.447 28.8997C29.3535 29.1738 31.1212 27.8505 31.3952 25.944Z" stroke="#45413C" stroke-miterlimit="10" stroke-linecap="round" stroke-linejoin="round"/>
<path d="M24.6372 26.2125C23.7372 26.775 22.0497 28.125 22.4997 29.1375C23.0622 30.15 34.3122 23.4 33.8622 22.3875C33.5247 21.4875 31.0497 22.5 30.1497 22.95" stroke="#45413C" stroke-miterlimit="10" stroke-linecap="round" stroke-linejoin="round"/>
</svg>
