<svg width="40" height="40" viewBox="0 0 40 40" fill="none" xmlns="http://www.w3.org/2000/svg">
<path d="M39.5 20C39.5 30.7696 30.7696 39.5 20 39.5C9.23045 39.5 0.5 30.7696 0.5 20C0.5 9.23045 9.23045 0.5 20 0.5C30.7696 0.5 39.5 9.23045 39.5 20Z" fill="#F2CC39" stroke="#493F58" stroke-miterlimit="10"/>
<path d="M16.263 18.7099C16.196 19.7438 15.7381 20.7134 14.9822 21.4219C14.2263 22.1304 13.2291 22.5247 12.193 22.5247C11.157 22.5247 10.1598 22.1304 9.40386 21.4219C8.64796 20.7134 8.19003 19.7438 8.12305 18.7099" fill="#F2CC39"/>
<path d="M16.263 18.7099C16.196 19.7438 15.7381 20.7134 14.9822 21.4219C14.2263 22.1304 13.2291 22.5247 12.193 22.5247C11.157 22.5247 10.1598 22.1304 9.40386 21.4219C8.64796 20.7134 8.19003 19.7438 8.12305 18.7099" stroke="#493F58" stroke-linecap="round" stroke-linejoin="round"/>
<path d="M31.8772 18.7099C31.8772 19.7916 31.4475 20.829 30.6826 21.5938C29.9178 22.3587 28.8804 22.7884 27.7987 22.7884C26.717 22.7884 25.6796 22.3587 24.9148 21.5938C24.1499 20.829 23.7202 19.7916 23.7202 18.7099" fill="#F2CC39"/>
<path d="M31.8772 18.7099C31.8772 19.7916 31.4475 20.829 30.6826 21.5938C29.9178 22.3587 28.8804 22.7884 27.7987 22.7884C26.717 22.7884 25.6796 22.3587 24.9148 21.5938C24.1499 20.829 23.7202 19.7916 23.7202 18.7099" stroke="#493F58" stroke-linecap="round" stroke-linejoin="round"/>
<path d="M12.0778 36C9.77464 34.862 7.74252 33.2607 6.11424 31.3005C4.48596 29.3404 3.29819 27.0657 2.62854 24.625C1.9589 22.1843 1.82247 19.6326 2.22817 17.1368C2.63387 14.6409 3.57256 12.257 4.9829 10.1409C6.39323 8.02479 8.24345 6.22413 10.4126 4.85661C12.5818 3.48908 15.0211 2.58548 17.5711 2.20486C20.1211 1.82424 22.7243 1.97518 25.2107 2.6478C27.697 3.32042 30.0106 4.89136 32 6.5" stroke="white" stroke-linecap="round" stroke-linejoin="round"/>
<path d="M28.601 31.5768C26.1746 29.9531 23.3208 29.0864 20.4013 29.0864C17.4818 29.0864 14.628 29.9531 12.2017 31.5768" stroke="#493F58" stroke-linecap="round" stroke-linejoin="round"/>
</svg>
