<svg width="18" height="18" viewBox="0 0 18 18" fill="none" xmlns="http://www.w3.org/2000/svg">
<path d="M9.27275 16.3032L9.9621 16.0078V16.0078L9.27275 16.3032ZM1.69672 8.72719L1.40128 9.41655L1.40128 9.41655L1.69672 8.72719ZM1.58143 7.05136L1.94979 7.70467L1.94979 7.70467L1.58143 7.05136ZM7.99994 4L8.27848 4.69636L7.99994 4ZM16.9999 1L17.7275 1.1819C17.7914 0.92632 17.7166 0.655955 17.5303 0.46967C17.344 0.283385 17.0736 0.208498 16.818 0.272393L16.9999 1ZM13.9999 10L13.3036 9.72146L13.9999 10ZM10.9486 16.4185L11.6019 16.7869H11.6019L10.9486 16.4185ZM9.9621 16.0078L7.6893 10.7046L6.31058 11.2954L8.58339 16.5987L9.9621 16.0078ZM7.29538 10.3106L1.99216 8.03783L1.40128 9.41655L6.7045 11.6894L7.29538 10.3106ZM1.94979 7.70467C3.29101 6.94843 5.46226 5.82284 8.27848 4.69636L7.7214 3.30364C4.83329 4.45888 2.6018 5.61502 1.21307 6.39806L1.94979 7.70467ZM8.27848 4.69636C10.7553 3.70564 12.9853 2.96229 14.5955 2.46683C15.4003 2.2192 16.0495 2.03375 16.4963 1.91049C16.7196 1.84887 16.8924 1.80282 17.0086 1.77233C17.0667 1.75709 17.1107 1.74574 17.1398 1.73829C17.1544 1.73456 17.1652 1.73181 17.1722 1.73003C17.1758 1.72914 17.1783 1.72849 17.1799 1.72809C17.1807 1.72788 17.1813 1.72774 17.1816 1.72766C17.1818 1.72762 17.1819 1.7276 17.1819 1.72759C17.1819 1.72759 17.1819 1.72759 17.1819 1.72759C17.1819 1.7276 17.1818 1.72761 16.9999 1C16.818 0.272393 16.818 0.272413 16.8179 0.272436C16.8178 0.272449 16.8177 0.272476 16.8176 0.272502C16.8174 0.272553 16.8171 0.27262 16.8168 0.272702C16.8161 0.272866 16.8152 0.273092 16.8141 0.273378C16.8118 0.273952 16.8086 0.27477 16.8044 0.275833C16.796 0.277959 16.7837 0.281064 16.7678 0.285149C16.7359 0.293319 16.689 0.305408 16.628 0.321415C16.506 0.35343 16.3271 0.401125 16.0974 0.464506C15.6379 0.591255 14.9746 0.780798 14.1544 1.03317C12.5146 1.53771 10.2446 2.29436 7.7214 3.30364L8.27848 4.69636ZM16.9999 1C16.2723 0.818098 16.2723 0.818051 16.2724 0.818019C16.2723 0.818028 16.2724 0.818011 16.2723 0.81803C16.2723 0.818068 16.2723 0.818167 16.2723 0.818326C16.2722 0.818645 16.2721 0.819206 16.2719 0.820008C16.2714 0.821612 16.2708 0.824179 16.2699 0.827698C16.2681 0.834735 16.2654 0.84558 16.2616 0.860141C16.2542 0.889262 16.2428 0.933245 16.2276 0.991356C16.1971 1.10758 16.1511 1.28031 16.0894 1.50368C15.9662 1.95046 15.7807 2.59963 15.5331 3.40444C15.0376 5.01466 14.2943 7.24467 13.3036 9.72146L14.6963 10.2785C15.7056 7.75533 16.4622 5.48534 16.9668 3.84556C17.2191 3.02537 17.4087 2.36204 17.5354 1.90257C17.5988 1.67282 17.6465 1.49398 17.6785 1.37193C17.6945 1.3109 17.7066 1.26406 17.7148 1.23214C17.7189 1.21619 17.722 1.20396 17.7241 1.19556C17.7252 1.19135 17.726 1.18811 17.7266 1.18583C17.7268 1.18469 17.7271 1.18379 17.7272 1.18314C17.7273 1.18281 17.7274 1.18254 17.7274 1.18234C17.7275 1.18223 17.7275 1.18212 17.7275 1.18207C17.7275 1.18198 17.7275 1.1819 16.9999 1ZM13.3036 9.72146C12.1771 12.5377 11.0515 14.7089 10.2953 16.0501L11.6019 16.7869C12.3849 15.3981 13.5411 13.1666 14.6963 10.2785L13.3036 9.72146ZM8.58339 16.5987C9.12459 17.8615 10.8866 18.0554 11.6019 16.7869L10.2953 16.0501C10.2682 16.0982 10.2401 16.1192 10.2196 16.1298C10.1967 16.1418 10.1682 16.1483 10.136 16.146C10.0755 16.1416 10.0045 16.1068 9.9621 16.0078L8.58339 16.5987ZM1.99216 8.03783C1.89318 7.99541 1.85838 7.92447 1.85398 7.8639C1.85164 7.83172 1.85817 7.80322 1.87012 7.78029C1.88076 7.75986 1.90175 7.73176 1.94979 7.70467L1.21307 6.39806C-0.0554564 7.11331 0.138469 8.87535 1.40128 9.41655L1.99216 8.03783ZM16.4696 0.46967L6.46961 10.4697L7.53027 11.5303L17.5303 1.53033L16.4696 0.46967Z" fill="white"/>
</svg>
