<svg width="25" height="24" viewBox="0 0 25 24" fill="none" xmlns="http://www.w3.org/2000/svg">
<path d="M15.5 9.75C15.9142 9.75 16.25 9.41421 16.25 9C16.25 8.58579 15.9142 8.25 15.5 8.25V9.75ZM13.5 8.25C13.0858 8.25 12.75 8.58579 12.75 9C12.75 9.41421 13.0858 9.75 13.5 9.75V8.25ZM14.6516 4.90899C14.9445 4.6161 14.9445 4.14123 14.6516 3.84833C14.3588 3.55544 13.8839 3.55544 13.591 3.84833L14.6516 4.90899ZM11.4697 5.96965C11.1768 6.26255 11.1768 6.73742 11.4697 7.03031C11.7626 7.32321 12.2374 7.32321 12.5303 7.03031L11.4697 5.96965ZM8.75 5C8.75 5.41421 9.08579 5.75 9.5 5.75C9.91421 5.75 10.25 5.41421 10.25 5H8.75ZM10.25 3C10.25 2.58579 9.91421 2.25 9.5 2.25C9.08579 2.25 8.75 2.58579 8.75 3H10.25ZM6.46971 7.03037C6.76261 7.32327 7.23748 7.32327 7.53037 7.03037C7.82327 6.73748 7.82327 6.26261 7.53037 5.96971L6.46971 7.03037ZM5.40905 3.84839C5.11616 3.5555 4.64129 3.5555 4.34839 3.84839C4.0555 4.14129 4.0555 4.61616 4.34839 4.90905L5.40905 3.84839ZM5.5 9.75C5.91421 9.75 6.25 9.41421 6.25 9C6.25 8.58579 5.91421 8.25 5.5 8.25V9.75ZM3.5 8.25C3.08579 8.25 2.75 8.58579 2.75 9C2.75 9.41421 3.08579 9.75 3.5 9.75V8.25ZM7.53037 12.0303C7.82327 11.7374 7.82327 11.2626 7.53037 10.9697C7.23748 10.6768 6.76261 10.6768 6.46971 10.9697L7.53037 12.0303ZM4.34839 13.091C4.0555 13.3839 4.0555 13.8588 4.34839 14.1517C4.64129 14.4445 5.11616 14.4445 5.40905 14.1517L4.34839 13.091ZM8.75 15C8.75 15.4142 9.08579 15.75 9.5 15.75C9.91421 15.75 10.25 15.4142 10.25 15H8.75ZM10.25 13C10.25 12.5858 9.91421 12.25 9.5 12.25C9.08579 12.25 8.75 12.5858 8.75 13H10.25ZM19.9697 20.5303C20.2626 20.8232 20.7375 20.8232 21.0303 20.5303C21.3232 20.2375 21.3232 19.7626 21.0303 19.4697L19.9697 20.5303ZM13.0303 11.4697C12.7374 11.1768 12.2626 11.1768 11.9697 11.4697C11.6768 11.7626 11.6768 12.2374 11.9697 12.5303L13.0303 11.4697ZM15.5 8.25H13.5V9.75H15.5V8.25ZM13.591 3.84833L11.4697 5.96965L12.5303 7.03031L14.6516 4.90899L13.591 3.84833ZM10.25 5V3H8.75V5H10.25ZM7.53037 5.96971L5.40905 3.84839L4.34839 4.90905L6.46971 7.03037L7.53037 5.96971ZM5.5 8.25H3.5V9.75H5.5V8.25ZM6.46971 10.9697L4.34839 13.091L5.40905 14.1517L7.53037 12.0303L6.46971 10.9697ZM10.25 15V13H8.75V15H10.25ZM21.0303 19.4697L13.0303 11.4697L11.9697 12.5303L19.9697 20.5303L21.0303 19.4697Z" fill="url(#paint0_linear_579_13013)"/>
<defs>
<linearGradient id="paint0_linear_579_13013" x1="2.36667" y1="4.72975" x2="17.4142" y2="22.5986" gradientUnits="userSpaceOnUse">
<stop stop-color="#D61544"/>
<stop offset="1" stop-color="#F07E3D"/>
</linearGradient>
</defs>
</svg>
