<svg width="20" height="19" viewBox="0 0 20 19" fill="none" xmlns="http://www.w3.org/2000/svg">
<path d="M10.4776 0.798595L10.491 0.838633L10.5109 0.875864L12.7888 5.13584L12.8239 5.20151L12.8766 5.2541L12.8886 5.26612C13.0223 5.39951 13.186 5.56293 13.3572 5.69101C13.5218 5.81418 13.7596 5.95687 14.049 5.96763L18.8633 6.53339L18.8924 6.5368L18.9216 6.53681C19.0561 6.53682 19.27 6.66982 19.3724 6.97622C19.4671 7.2596 19.3969 7.48687 19.2142 7.60841L19.173 7.63582L19.138 7.67077L15.7241 11.0781C15.2907 11.5106 15.2919 11.9938 15.293 12.4953C15.2931 12.5195 15.2931 12.5437 15.2931 12.5679L15.2931 12.6118L15.3008 12.655L16.156 17.4828L16.1624 17.5191L16.1741 17.5541C16.2257 17.7085 16.1706 17.9325 15.9097 18.1409C15.6623 18.3384 15.3566 18.4094 15.1327 18.351L10.9627 16.1315C10.7125 15.917 10.3904 15.8301 10.1026 15.8301C9.81477 15.83 9.49279 15.9168 9.24272 16.1313L5.03067 18.3729L5.00904 18.3844L4.98864 18.398C4.76441 18.5472 4.49168 18.5228 4.27132 18.3688C4.04136 18.2082 3.9796 17.9943 4.03221 17.8367L4.04389 17.8017L4.05031 17.7653L4.90259 12.9378L4.91022 12.8946L4.91021 12.8507L4.9102 12.8424C4.91018 12.7017 4.91014 12.4546 4.86761 12.2004C4.82615 11.9525 4.73178 11.6136 4.47837 11.3608L4.4713 11.3537L4.46394 11.347L0.76344 7.93877L0.734442 7.91206L0.701618 7.89022C0.518862 7.76864 0.448434 7.54135 0.543005 7.25799C0.645257 6.95162 0.859043 6.81867 0.993502 6.81869L1.03719 6.81869L1.08022 6.81112L5.88275 5.9659C6.13479 5.95237 6.41358 5.84332 6.62138 5.7189C6.73956 5.64814 6.86589 5.55432 6.96872 5.43589C7.04696 5.34578 7.13705 5.21134 7.17077 5.03996L9.11017 0.890351C9.29102 0.64229 9.60771 0.501124 9.92016 0.501161C10.2511 0.5012 10.4266 0.646034 10.4776 0.798595Z" fill="#FFC244" stroke="#493F58"/>
</svg>
