<svg width="40" height="40" viewBox="0 0 40 40" fill="none" xmlns="http://www.w3.org/2000/svg">
<rect width="40" height="40" rx="15" fill="url(#paint0_linear_603_13168)"/>
<path d="M20 29C24.9706 29 29 24.9706 29 20C29 15.0294 24.9706 11 20 11C15.0294 11 11 15.0294 11 20C11 24.9706 15.0294 29 20 29Z" fill="white"/>
<path fill-rule="evenodd" clip-rule="evenodd" d="M15.0685 19.9026C17.6914 18.7636 19.4374 18.0067 20.3142 17.6395C22.8096 16.5979 23.3342 16.418 23.6714 16.4105C23.7463 16.4105 23.9112 16.4255 24.0236 16.5154C24.1135 16.5904 24.136 16.6878 24.151 16.7627C24.166 16.8377 24.1809 16.995 24.166 17.1149C24.0311 18.5387 23.4466 21.9934 23.1468 23.582C23.0194 24.2565 22.7721 24.4813 22.5323 24.5038C22.0078 24.5487 21.6106 24.1591 21.1085 23.8293C20.3142 23.3123 19.872 22.99 19.1002 22.4805C18.2084 21.896 18.7854 21.5737 19.295 21.0492C19.4299 20.9143 21.7305 18.816 21.7755 18.6287C21.7829 18.6062 21.7829 18.5163 21.7305 18.4713C21.678 18.4263 21.6031 18.4413 21.5431 18.4563C21.4607 18.4713 20.2018 19.3106 17.7513 20.9667C17.3916 21.214 17.0694 21.3339 16.7771 21.3264C16.4549 21.3189 15.8404 21.1466 15.3758 20.9967C14.8138 20.8169 14.3641 20.7194 14.4016 20.4047C14.4241 20.2398 14.6489 20.075 15.0685 19.9026Z" fill="url(#paint1_linear_603_13168)"/>
<defs>
<linearGradient id="paint0_linear_603_13168" x1="-2.66666" y1="4.06999" x2="32.7393" y2="46.1143" gradientUnits="userSpaceOnUse">
<stop stop-color="#D61544"/>
<stop offset="1" stop-color="#F07E3D"/>
</linearGradient>
<linearGradient id="paint1_linear_603_13168" x1="13.7479" y1="17.2344" x2="20.5738" y2="27.0179" gradientUnits="userSpaceOnUse">
<stop stop-color="#D61544"/>
<stop offset="1" stop-color="#F07E3D"/>
</linearGradient>
</defs>
</svg>
