<svg width="170" height="63" viewBox="0 0 170 63" fill="none" xmlns="http://www.w3.org/2000/svg">
<path d="M66.3995 21.8693C64.9933 21.8693 63.8428 22.9718 63.8428 24.3193V39.2032C63.8428 40.5507 64.9933 41.6532 66.3995 41.6532C67.8058 41.6532 68.9563 40.5507 68.9563 39.2032V24.3806C69.0202 22.9718 67.8697 21.8693 66.3995 21.8693Z" fill="url(#paint0_linear_1008_1095)"/>
<path d="M40.448 21.8693H24.9156C23.4455 21.8693 22.2949 22.9718 22.2949 24.3806C22.2949 25.7893 23.4455 26.8919 24.8517 26.8919H30.0292V39.2644C30.0292 40.6119 31.1797 41.7144 32.5859 41.7144C33.9922 41.7144 35.1427 40.6119 35.1427 39.2644V26.8919H40.3202C41.7264 26.8919 42.877 25.7893 42.877 24.4418C43.0687 22.9718 41.9182 21.8693 40.448 21.8693Z" fill="url(#paint1_linear_1008_1095)"/>
<path d="M137.35 21.8693C131.661 21.8693 126.995 26.3406 126.995 31.7919C126.995 37.2432 131.661 41.7144 137.35 41.7144C143.039 41.7144 147.705 37.2432 147.705 31.7919C147.705 26.3406 143.039 21.8693 137.35 21.8693ZM137.35 36.7532C134.474 36.7532 132.173 34.5481 132.173 31.7919C132.173 29.0969 134.474 26.8306 137.35 26.8306C140.163 26.8306 142.528 29.0356 142.528 31.7919C142.464 34.5481 140.163 36.7532 137.35 36.7532Z" fill="url(#paint2_linear_1008_1095)"/>
<path d="M105.135 22.6043L99.7014 27.8106L94.2683 22.6043C93.2456 21.6243 91.6476 21.6243 90.561 22.6043C89.5383 23.5843 89.5383 25.1156 90.561 26.1568L95.9941 31.3631L97.0808 32.4044V39.2644C97.0808 40.6119 98.2313 41.7144 99.6375 41.7144C101.044 41.7144 102.194 40.6119 102.194 39.2644V32.4044L103.281 31.3631L108.714 26.1568C109.737 25.1768 109.737 23.6456 108.714 22.6043C107.819 21.6856 106.221 21.6856 105.135 22.6043Z" fill="url(#paint3_linear_1008_1095)"/>
<defs>
<linearGradient id="paint0_linear_1008_1095" x1="64.7967" y1="41.6532" x2="70.4868" y2="40.9083" gradientUnits="userSpaceOnUse">
<stop stop-color="#1E1627"/>
<stop offset="1" stop-color="#201E38"/>
</linearGradient>
<linearGradient id="paint1_linear_1008_1095" x1="26.1365" y1="41.7144" x2="44.3989" y2="32.116" gradientUnits="userSpaceOnUse">
<stop stop-color="#1E1627"/>
<stop offset="1" stop-color="#201E38"/>
</linearGradient>
<linearGradient id="paint2_linear_1008_1095" x1="130.857" y1="41.7144" x2="149.173" y2="32.038" gradientUnits="userSpaceOnUse">
<stop stop-color="#1E1627"/>
<stop offset="1" stop-color="#201E38"/>
</linearGradient>
<linearGradient id="paint3_linear_1008_1095" x1="93.4648" y1="41.7144" x2="111.25" y2="32.7823" gradientUnits="userSpaceOnUse">
<stop stop-color="#1E1627"/>
<stop offset="1" stop-color="#201E38"/>
</linearGradient>
</defs>
</svg>
