<svg width="154" height="70" viewBox="0 0 154 70" fill="none" xmlns="http://www.w3.org/2000/svg">
<path d="M58.1046 25C56.6984 25 55.5479 26.1025 55.5479 27.45V42.3338C55.5479 43.6813 56.6984 44.7839 58.1046 44.7839C59.5109 44.7839 60.6614 43.6813 60.6614 42.3338V27.5113C60.7253 26.1025 59.5748 25 58.1046 25Z" fill="url(#paint0_linear_631_14552)"/>
<path d="M32.1531 25H16.6207C15.1505 25 14 26.1025 14 27.5113C14 28.92 15.1505 30.0225 16.5568 30.0225H21.7342V42.3951C21.7342 43.7426 22.8848 44.8451 24.291 44.8451C25.6972 44.8451 26.8478 43.7426 26.8478 42.3951V30.0225H32.0253C33.4315 30.0225 34.582 28.92 34.582 27.5725C34.7738 26.1025 33.6233 25 32.1531 25Z" fill="url(#paint1_linear_631_14552)"/>
<path d="M129.055 25C123.366 25 118.7 29.4713 118.7 34.9226C118.7 40.3738 123.366 44.8451 129.055 44.8451C134.744 44.8451 139.41 40.3738 139.41 34.9226C139.41 29.4713 134.744 25 129.055 25ZM129.055 39.8838C126.179 39.8838 123.878 37.6788 123.878 34.9226C123.878 32.2275 126.179 29.9613 129.055 29.9613C131.868 29.9613 134.233 32.1663 134.233 34.9226C134.169 37.6788 131.868 39.8838 129.055 39.8838Z" fill="url(#paint2_linear_631_14552)"/>
<path d="M96.8397 25.735L91.4065 30.9413L85.9734 25.735C84.9507 24.755 83.3527 24.755 82.2661 25.735C81.2433 26.715 81.2433 28.2463 82.2661 29.2875L87.6992 34.4938L88.7858 35.5351V42.3951C88.7858 43.7426 89.9364 44.8451 91.3426 44.8451C92.7488 44.8451 93.8994 43.7426 93.8994 42.3951V35.5351L94.986 34.4938L100.419 29.2875C101.442 28.3075 101.442 26.7763 100.419 25.735C99.5243 24.8162 97.9263 24.8162 96.8397 25.735Z" fill="url(#paint3_linear_631_14552)"/>
<defs>
<linearGradient id="paint0_linear_631_14552" x1="56.5018" y1="44.7839" x2="62.1918" y2="44.0389" gradientUnits="userSpaceOnUse">
<stop stop-color="#1E1627"/>
<stop offset="1" stop-color="#201E38"/>
</linearGradient>
<linearGradient id="paint1_linear_631_14552" x1="17.8416" y1="44.8451" x2="36.104" y2="35.2467" gradientUnits="userSpaceOnUse">
<stop stop-color="#1E1627"/>
<stop offset="1" stop-color="#201E38"/>
</linearGradient>
<linearGradient id="paint2_linear_631_14552" x1="122.562" y1="44.8451" x2="140.878" y2="35.1687" gradientUnits="userSpaceOnUse">
<stop stop-color="#1E1627"/>
<stop offset="1" stop-color="#201E38"/>
</linearGradient>
<linearGradient id="paint3_linear_631_14552" x1="85.1699" y1="44.8451" x2="102.955" y2="35.913" gradientUnits="userSpaceOnUse">
<stop stop-color="#1E1627"/>
<stop offset="1" stop-color="#201E38"/>
</linearGradient>
</defs>
</svg>
