<svg width="154" height="70" viewBox="0 0 154 70" fill="none" xmlns="http://www.w3.org/2000/svg">
<path fill-rule="evenodd" clip-rule="evenodd" d="M101.146 40.6712C99.826 40.6712 98.8362 40.3425 98.1764 39.3562C96.6918 37.3836 97.0217 33.9315 99.1662 32.7808C102.135 31.137 105.27 34.0959 104.28 38.0411C104.115 38.5343 103.95 39.0274 103.62 39.5206L103.455 39.6849C102.96 40.1781 102.135 40.6712 101.146 40.6712ZM129.188 25.7123C129.188 25.8767 129.188 26.0411 129.518 26.0411H133.477V21.9315H129.188V25.7123ZM129.188 43.9589C129.188 44.1233 129.188 44.2877 129.518 44.2877H133.477V29H129.188V43.9589ZM64.6903 39.0274C64.6903 43.9589 68.8142 45.274 72.2783 44.1233C72.9381 43.9589 73.1031 43.7945 73.598 43.4658C73.598 43.137 73.433 42.9726 73.2681 42.6438L72.4433 40.1781C70.4638 41.3288 68.8142 41 68.8142 38.3699V32.7808H72.1134C72.2783 32.7808 72.4433 32.7808 72.4433 32.4521V29.3288H68.8142V25.7123H64.5254L64.6903 39.0274ZM76.2373 37.548C76.2373 41.3288 78.0518 44.4521 82.1757 44.4521C85.3098 44.4521 85.6398 43.4658 86.9594 42.6438V44.2877H90.9184V29H86.6295V36.726C86.6295 38.6986 85.6398 40.5069 83.6603 40.5069C82.6706 40.5069 81.8458 40.5069 81.3509 39.6849C81.021 39.1918 80.6911 38.3699 80.6911 37.548V29H76.4022L76.2373 37.548ZM114.672 36.5617C114.672 32.6164 118.466 31.3014 120.775 33.274C122.755 34.9178 122.26 40.6712 118.631 40.6712C115.992 40.6712 114.672 39.0274 114.672 36.5617ZM110.383 36.5617C110.383 39.0274 111.373 41.4932 112.693 42.6438C114.342 44.1233 115.497 44.4521 117.971 44.4521C120.445 44.4521 121.27 43.137 121.93 42.6438C121.93 43.7945 121.93 44.9452 121.93 46.0959C121.93 48.3973 122.425 49.7123 123.91 51.1918C124.404 51.6849 125.394 52.5069 126.054 52.6712V29H121.93V30.4795C121.435 30.1507 121.27 29.8219 120.445 29.3288C116.487 27.3562 110.383 29.9863 110.383 36.5617ZM99.661 44.4521C100.981 44.4521 101.64 44.4521 102.795 43.9589C103.62 43.6301 103.785 43.137 104.445 42.8082V48.0685C104.445 49.8767 106.754 52.5069 108.734 53V29H104.775V30.6438C104.28 30.3151 103.785 29.3288 101.97 29C98.3414 28.1781 94.7123 29.9863 93.5576 33.6027C92.403 37.0548 93.3927 41.3288 96.3619 43.3014C97.0217 43.7945 98.5063 44.4521 99.661 44.4521Z" fill="#201E38"/>
<path fill-rule="evenodd" clip-rule="evenodd" d="M51.9889 42.8082C53.3085 46.0959 55.288 48.2329 57.7623 50.863C57.7623 50.863 52.1538 50.0411 47.7 48.3973C49.1846 46.589 50.6692 44.7808 51.9889 42.8082ZM35.6582 27.8493C36.318 27.8493 36.8129 28.3425 36.8129 29C36.8129 29.6575 36.318 30.1507 35.6582 30.1507C34.9984 30.1507 34.5035 29.6575 34.5035 29C34.6685 28.3425 35.1634 27.8493 35.6582 27.8493ZM29.8848 22.0959C31.2044 21.9315 32.3591 21.7671 33.1839 21.9315C35.8232 22.0959 38.1326 23.411 39.2873 24.3973C40.277 25.2192 41.4317 26.863 41.4317 26.863C41.4317 26.863 43.906 25.8767 47.5351 23.2466C51.1641 20.6164 53.8034 17 53.8034 17C53.8034 17 56.2777 23.7397 54.9581 31.3014C54.2983 34.7534 53.3085 37.7123 52.1538 40.0137C50.6692 42.6438 48.6897 45.274 46.7103 47.5753L46.3804 47.9041C46.0505 47.7397 45.7205 47.5753 45.3906 47.5753C40.112 45.274 36.9779 41.6575 34.1736 37.0548C32.854 34.9178 31.6993 32.4521 31.0395 29.6575C30.3796 27.3562 29.8848 24.726 29.8848 22.0959Z" fill="url(#paint0_linear_631_14549)"/>
<path fill-rule="evenodd" clip-rule="evenodd" d="M21.9665 37.3836C21.9665 37.3836 19.4922 32.9452 22.4614 27.5206C24.111 24.5617 26.5853 22.9178 28.7297 22.2603C28.7297 24.8904 29.2246 27.5206 29.8844 29.8219C30.5443 32.2877 31.534 34.589 32.6887 36.5617C31.2041 35.7397 29.3896 34.9178 27.4101 34.9178C23.2862 35.0822 21.9665 37.3836 21.9665 37.3836Z" fill="#FF9544"/>
<defs>
<linearGradient id="paint0_linear_631_14549" x1="29.8544" y1="33.7776" x2="57.6392" y2="33.7776" gradientUnits="userSpaceOnUse">
<stop stop-color="#3465F1"/>
<stop offset="1" stop-color="#6B13F6"/>
</linearGradient>
</defs>
</svg>
