<svg width="40" height="40" viewBox="0 0 40 40" fill="none" xmlns="http://www.w3.org/2000/svg">
<rect width="40" height="40" rx="15" fill="url(#paint0_linear_603_14394)"/>
<path d="M29 14.7758C28.3377 15.0773 27.626 15.2803 26.879 15.3718C27.6418 14.9035 28.2275 14.1613 28.5028 13.2769C27.7895 13.7106 26.999 14.0259 26.1575 14.1959C25.4847 13.4599 24.524 13 23.462 13C21.0777 13 19.3258 15.2811 19.8643 17.649C16.796 17.4914 14.075 15.984 12.2533 13.6929C11.2858 15.3949 11.7515 17.6214 13.3955 18.7488C12.791 18.7288 12.221 18.5589 11.7237 18.2751C11.6832 20.0293 12.9095 21.6705 14.6855 22.0358C14.1658 22.1804 13.5965 22.2143 13.0175 22.1004C13.487 23.6047 14.8505 24.6991 16.4675 24.7299C14.915 25.9781 12.959 26.5357 11 26.2988C12.6342 27.3732 14.576 28 16.661 28C23.5175 28 27.3912 22.062 27.1572 16.7362C27.8787 16.2017 28.505 15.5349 29 14.7758Z" fill="white"/>
<defs>
<linearGradient id="paint0_linear_603_14394" x1="-2.66666" y1="4.06999" x2="32.7393" y2="46.1143" gradientUnits="userSpaceOnUse">
<stop stop-color="#D61544"/>
<stop offset="1" stop-color="#F07E3D"/>
</linearGradient>
</defs>
</svg>
