<svg width="154" height="70" fill="none" xmlns="http://www.w3.org/2000/svg"><g clip-path="url('#clip0_631_14551')" fill="#CBA20E"><path d="M39.189 67.425c.005.005.017.007.02.012a.48.48 0 0 0-.258-.066c-.175 0-.376-.016-.55-.043-.248-.049-.64-.231-1.17-1.282-.523-1.028-1.52-3.105-2.315-4.77l-.031-.073-.042-.086c-.62-1.295-1.158-2.419-1.31-2.71-.099-.188-.221-.365-.467-.365-.252 0-.358.175-.454.364l-3.737 7.92c-.302.637-.542.953-1.102 1.016a6.155 6.155 0 0 1-.473.025c-.167 0-.302.109-.302.248 0 .165.125.272.322.272.493 0 1.06-.02 1.435-.032l.113-.005.069-.004c.105-.005.191-.005.272-.005.211 0 .48.007.756.017.297.007.596.017.83.017.3 0 .325-.207.325-.272 0-.115-.103-.239-.326-.239h-.29c-.134 0-.407 0-.407-.238 0-.105.054-.377.204-.693l.739-1.666.041-.09H34.31l.042.09 1.095 2.42.066.146-.172.043c-.14.037-.209.146-.209.236 0 .175.123.273.334.273.057 0 .224-.005.462-.013.306-.012.878-.029 1.26-.029.13 0 .34.005.575.012l.223.005c.467.017.793.025.999.025.233 0 .343-.14.343-.268a.219.219 0 0 0-.078-.163l-.066-.029h.005Zm-5.526-3.652-1.927.005h-.235l.086-.195.962-2.188.152-.34.152.34.962 2.183.086.195h-.238ZM40.148 67.802c.08.053.191.09.358.09.339 0 .788-.012 1.168-.024l.081-.005.233-.008c.148-.005.265-.007.344-.007.044 0 .13 0 .245.005l.228.005c.43.007 1.053.024 1.605.024h.123c.43 0 .493-.19.493-.299-.005-.122-.105-.267-.393-.267-.184 0-.493-.025-.69-.044-.271-.03-.367-.151-.419-.54-.056-.401-.056-1.111-.056-1.926V63.962h.184l1.004-.005h.09l.054.061c.03.032.094.11.192.231.648.803 2.628 3.24 4.88 4.474C52.088 69.934 54.5 70 54.974 70h.086c.392 0 .478-.163.478-.297 0-.126-.098-.272-.37-.272-.1 0-.224-.012-.393-.032-.314-.053-1.42-.267-2.449-.795-2.37-1.21-3.897-3.132-4.91-4.406a25.089 25.089 0 0 0-.505-.625l-.11-.133.149-.098c.974-.62 1.465-1.478 1.46-2.56-.005-1.245-.609-1.865-1.114-2.164-.832-.491-1.885-.56-2.807-.56h-.032c-.228 0-.616.008-1.016.02l-.344.007c-.294.008-.564.017-.75.017-.3 0-.634-.007-.955-.017l-.248-.005c-.368-.012-.719-.019-1.003-.019-.21 0-.364.126-.364.297 0 .138.116.284.432.284.246 0 .474.012.56.032.37.065.461.17.49.554.037.457.032 7.04-.031 7.509-.057.377-.123.474-.216.528l-.03.016-.032.005c-.11.02-.277.049-.498.049-.375 0-.432.17-.432.272 0 .02.005.093.057.158.005.008.02.008.024.017l.054.02h-.007Zm5.325-5.075c-.278.15-.64.248-.972.263-.09.005-.18.005-.27.005a4.47 4.47 0 0 1-.653-.044l-.152-.024v-.139l.005-3.628v-.146l.165-.017c.14-.017.314-.02.571-.02.77 0 2.076.446 2.086 2.123 0 1.066-.444 1.44-.78 1.625v.002Z" fill-opacity=".902"/><path d="M60.515 57.959c-.042 0-.135.012-.278.041l-.14.025-.029.004h-.007c-.18.02-.513.061-.984.061h-5.97a20.4 20.4 0 0 1-1.433-.056 1.282 1.282 0 0 1-.427-.097c-.074-.024-.148-.053-.229-.053-.186 0-.294.109-.368.37-.056.194-.27 1.008-.314 1.441-.03.28.15.36.253.382l.054.007h.024c.165 0 .297-.11.351-.28.013-.048.062-.177.224-.384.164-.206.441-.267 1.293-.296l1.845-.025h.19v.166l.016 4.819v.06c.005 1.066.008 2.075-.061 2.595-.037.311-.103.528-.282.54a3.232 3.232 0 0 1-.55.049c-.258 0-.375.14-.375.272 0 .187.125.297.343.297.334 0 .64-.008.947-.02a28.458 28.458 0 0 1 2.351 0c.346.012.682.02 1.131.02h.098c.19 0 .327-.127.327-.3 0-.114-.128-.272-.327-.272-.233 0-.652-.024-.844-.048-.272-.03-.368-.151-.417-.54-.078-.552-.08-1.624-.086-2.668l-.017-4.819v-.165h1.681c1.38.02 1.563.389 1.58.542l.025.23c.024.256.184.31.314.31.103 0 .339-.037.358-.36.02-.328.042-1.15.042-1.418 0-.425-.209-.425-.307-.425l-.002-.005ZM122.113 69.424c-.104 0-.224-.012-.388-.032-.221-.036-1.379-.243-2.454-.795-2.363-1.209-3.889-3.125-4.905-4.406l-.118-.15c-.14-.176-.27-.336-.388-.48l-.115-.133.155-.098c.974-.615 1.465-1.478 1.46-2.56-.005-1.24-.609-1.865-1.119-2.17-.837-.493-1.944-.559-2.812-.559h-.032c-.209 0-.555.008-.916.018h-.068c-.42.012-.862.024-1.122.024-.375 0-.8-.012-1.2-.024a31.85 31.85 0 0 0-1.003-.02c-.209 0-.363.127-.363.297 0 .138.112.284.431.284.246 0 .474.017.56.032.37.066.461.165.491.554.037.467.032 7.057-.032 7.509-.057.372-.123.474-.216.528l-.03.017-.031.004a2.668 2.668 0 0 1-.503.05c-.376 0-.43.17-.43.272 0 .09.049.296.493.296.29 0 .7-.007 1.249-.03l.233-.006c.153-.005.278-.008.376-.008.066 0 .177.005.314.005l.221.005.28.005c.417.007.91.017 1.352.017.424-.005.485-.187.485-.3 0-.128-.1-.271-.387-.271a9.24 9.24 0 0 1-.695-.044c-.272-.032-.368-.153-.414-.54-.062-.409-.057-1.13-.057-1.901v-.873h1.269l.054.053c.027.03.086.097.167.2l.044.053c.648.797 2.628 3.229 4.873 4.462 2.211 1.21 4.628 1.276 5.102 1.276h.09c.391 0 .474-.162.474-.296-.002-.114-.101-.26-.375-.26v-.005Zm-8.905-8.324c0 1.075-.445 1.442-.781 1.63-.27.15-.633.25-.974.262h-.081c-.061 0-.118.005-.184.005-.319 0-.53-.024-.653-.044l-.152-.024v-.139l.003-3.63v-.146l.164-.017c.15-.017.329-.02.567-.02.216.006 2.078.066 2.088 2.123h.003ZM96.434 58.061c-.37 0-.584.007-.856.02-.236.012-.479.019-.918.019-.542 0-.77-.012-.992-.024-.203-.008-.404-.017-.82-.017h-.097c-.221 0-.368.121-.368.308 0 .127.118.26.38.26.265 0 .53.032.721.086.246.068.376.469.4 1.223l.091 4.292.008.384-.32-.26-7.498-6.165c-.202-.175-.405-.26-.611-.26-.211 0-.388.154-.388.333l.02 7.619c-.008.98-.057 1.317-.314 1.38-.19.05-.54.061-.715.061-.203 0-.346.115-.346.275 0 .134.07.287.376.287.38 0 .599-.007.83-.02h.048c.229-.007.47-.019.894-.019.542 0 .775.012.986.025.204.007.407.017.82.017h.098c.22 0 .363-.122.363-.31 0-.126-.118-.26-.376-.26-.264 0-.53-.031-.726-.085-.154-.043-.363-.218-.395-1.223 0 0-.061-2.983-.09-4.308l-.008-.385.319.26 7.504 6.177c.196.175.4.262.61.262.21 0 .388-.153.388-.335l-.02-7.618c.008-1.05.07-1.32.315-1.381.172-.044.493-.061.714-.061.201 0 .344-.114.344-.273.007-.128-.057-.286-.369-.286l-.002.002ZM105.15 65.545c-.224 0-.297.134-.344.329-.093.462-.24.668-.564.795-.4.153-1.114.17-1.399.17-1.404 0-1.556-.17-1.583-.905-.012-.25-.012-.838-.007-1.422v-.503l-.005-.766v-.166h.186c.535 0 1.613.008 1.848.03.408.036.616.14.682.352.03.102.037.2.045.292l.017.102c0 .178.13.3.326.3s.322-.123.322-.31c0-.031.007-.126.017-.248l.017-.226.032-.45c.039-.396.076-.627.1-.76.013-.081.02-.13.02-.159a.278.278 0 0 0-.211-.267l-.056-.012h-.032c-.135 0-.224.077-.364.214-.068.065-.198.114-.62.145-.258.017-1.306.025-2.143.03h-.184v-.163l-.012-2.731v-.165h.189c.53.005 1.661.02 1.86.041.628.06.776.153.866.345a.96.96 0 0 1 .094.377c0 .236.196.321.321.321.179 0 .294-.09.331-.26.025-.122.057-.576.069-.742l.005-.097c.032-.406.086-.613.118-.737a.299.299 0 0 0-.037-.255l-.135-.114h-.111a.708.708 0 0 0-.22.041l-.094.02a2.843 2.843 0 0 1-.591.068c-.282.007-3.418.029-3.914.029-.51 0-.984-.012-1.371-.025l-.153-.004c-.282-.01-.513-.017-.701-.017-.209 0-.364.126-.364.296 0 .08.042.158.106.212a.372.372 0 0 0 .236.073c.264 0 .571.017.664.031.38.066.47.166.499.552.029.382.031.686.036 2.621v2.189c.008.98.005 2.171-.068 2.716-.057.345-.106.45-.332.535-.09.032-.326.053-.56.056a.38.38 0 0 0-.235.066l-.098.121v.085c0 .187.13.3.356.3.118 0 .27-.006.43-.013l.105-.005c.233-.007.469-.017.66-.017.358-.012.695-.017.856-.017h1.6c.346 0 .862.007 1.441.017l.233.005 1.396.02c.427 0 .523-.178.555-.358.054-.25.208-1.289.208-1.588-.012-.347-.189-.384-.343-.394h.005Z" fill-opacity=".902"/><path d="M127.504 58.061c-.579 0-.984.012-1.303.02-.162.004-.302.007-.417.007-.192 0-.418-.008-.658-.02l-.069-.005c-.25-.012-.505-.019-.788-.019-.191 0-.345.117-.345.263 0 .177.171.31.399.31h.187v.164c0 .073-.027.25-.216.6-.093.17-.559.868-1.107 1.685l-.176.26c-.241.36-.469.706-.646.978l-.154.238-.165-.236c-1.298-1.872-2.115-3.068-2.235-3.282a1.173 1.173 0 0 1-.106-.187l-.1-.214.26-.017c.196-.013.321-.127.321-.297 0-.163-.142-.275-.341-.275-.407 0-.819.017-1.175.03-.209.007-.388.016-.511.016-.247 0-.684-.007-1.096-.019l-.123-.005c-.334-.007-.636-.017-.817-.017-.209 0-.339.166-.339.285 0 .182.125.287.351.287.142 0 .437.056.609.128.235.115.596.45.984.92.559.68 2.525 3.35 2.677 3.618.24.432.299.559.299 1.172l.007 1.065c0 .202 0 .625-.039 1.123-.029.353-.135.54-.343.608-.094.03-.314.06-.525.06-.204 0-.364.117-.364.273.005.175.143.292.346.292.297 0 .763-.012 1.195-.024.359-.008.69-.02.859-.02.15 0 .346.008.584.017h.049l.116.005c.375.012.839.024 1.347.024h.051c.241 0 .381-.114.381-.308 0-.151-.16-.273-.359-.273h-.093c-.147 0-.248-.005-.395-.041-.37-.093-.449-.268-.476-.62a11.914 11.914 0 0 1-.049-1.148l-.002-1.045c-.005-.39-.005-.754.203-1.175.241-.481 2.339-3.436 2.827-3.932.339-.347.505-.49.775-.6.184-.08.543-.127.685-.127.189 0 .368-.153.368-.311.003-.153-.201-.236-.343-.236l-.005.005ZM82.74 67.313c-.2 0-.357-.024-.499-.053-.356-.066-.405-.154-.449-.475-.061-.515-.066-1.47-.066-2.582v-.134l-.013-2.26v-.105c-.004-1.746-.007-2.111.02-2.493.025-.382.074-.486.407-.554.172-.032.42-.032.513-.032.098 0 .18-.03.236-.08a.26.26 0 0 0 .086-.212c0-.114-.118-.284-.339-.284-.432 0-.758.012-1.084.024a24.573 24.573 0 0 1-1.885.003c-.37-.013-.842-.025-1.2-.025-.204 0-.35.127-.35.297 0 .08.029.146.08.2.02.019.091.084.297.084.196 0 .442.005.564.032.236.041.334.19.359.542.03.36.032.722.041 2.232v.445l.005 2.194.005.116v.117c0 1.065.005 1.987-.066 2.468-.037.311-.081.413-.302.482-.103.031-.363.06-.579.06a.408.408 0 0 0-.265.098.265.265 0 0 0-.093.19c0 .162.142.284.334.284.485 0 .817-.012 1.106-.024l.067-.005.08-.005c.248-.008.499-.017.825-.017.15 0 .356.005.599.012h.044c.38.007.856.017 1.398.017h.14c.224 0 .346-.153.346-.297.005-.146-.16-.267-.368-.267l.005.007ZM77.056 58.068c-.302 0-.685.025-.938.037-.11.007-.196.012-.223.012-.432 0-.64-.012-.844-.024a9.188 9.188 0 0 0-.67-.02h-.056a.282.282 0 0 0-.295.292c0 .139.118.28.322.28.368 0 .53.138.53.272 0 .177-.044.42-.123.661-.375 1.167-1.35 4.22-1.644 5.136-.412-.912-1.926-4.275-2.775-6.164-.086-.188-.165-.321-.408-.321-.252 0-.338.175-.407.345-.758 1.872-2.113 5.21-2.49 6.135-.322-.924-1.448-4.141-1.65-4.851l-.029-.102c-.135-.455-.248-.846-.248-.973 0-.097.013-.102.057-.121.049-.025.245-.03.309-.03h.03c.171 0 .308-.133.308-.291 0-.158-.14-.275-.326-.275-.368 0-.535.012-.707.02-.191.011-.395.019-.898.019-.37 0-.613-.012-.844-.02-.223-.012-.444-.02-.763-.02h-.061c-.297 0-.344.183-.344.293 0 .138.11.274.346.274.142 0 .388.03.479.08.174.115.321.48.431.786l2.948 8.032c.078.206.174.408.42.408.27 0 .382-.187.49-.394.233-.457.878-1.867 2.635-5.977l.02-.044c.35.766 1.872 4.14 2.719 6.002.13.287.21.413.454.418h.007c.273 0 .356-.183.432-.413.743-2.111 2.154-6.084 2.738-7.563.045-.116.091-.23.13-.34.18-.47.334-.875.526-.941.103-.032.252-.054.412-.054.125 0 .216-.031.277-.097a.272.272 0 0 0 .079-.194c-.005-.127-.067-.275-.359-.275l.003.002Z" fill-opacity=".902"/><path d="M101.461 23.786C101.412 10.643 90.672 0 77.426 0 64.151 0 53.39 10.687 53.39 23.873c0 13.182 10.76 23.873 24.037 23.873 13.246 0 23.986-10.64 24.035-23.783h.005v-.09l-.005-.09v.003ZM77.426.588A23.45 23.45 0 0 1 94.004 7.41c4.243 4.214 6.869 10.035 6.869 16.467 0 6.431-2.624 12.25-6.869 16.464a23.454 23.454 0 0 1-16.578 6.82 23.45 23.45 0 0 1-16.578-6.82c-4.242-4.214-6.868-10.033-6.868-16.464 0-6.432 2.623-12.25 6.868-16.467A23.45 23.45 0 0 1 77.426.589Z"/><path d="M97.805 23.873h-.174c0 5.54-2.26 10.558-5.916 14.188a20.216 20.216 0 0 1-14.286 5.877 20.206 20.206 0 0 1-14.286-5.877c-3.657-3.63-5.917-8.646-5.917-14.188 0-5.539 2.26-10.558 5.917-14.188a20.217 20.217 0 0 1 14.286-5.877c5.577 0 10.63 2.244 14.286 5.877 3.656 3.63 5.916 8.649 5.916 14.188h.354c0-11.278-9.207-20.418-20.559-20.418-11.356 0-20.558 9.143-20.558 20.418 0 11.278 9.204 20.416 20.558 20.416 11.357 0 20.558-9.143 20.558-20.416h-.179Z"/><path d="M94.966 23.873h-.179c0 4.761-1.943 9.07-5.084 12.19a17.362 17.362 0 0 1-12.274 5.05 17.351 17.351 0 0 1-12.274-5.05c-3.14-3.12-5.084-7.429-5.084-12.19 0-4.76 1.943-9.07 5.084-12.19 3.14-3.119 7.48-5.05 12.274-5.05 4.795 0 9.133 1.929 12.274 5.05 3.14 3.12 5.084 7.43 5.084 12.19h.356c0-9.719-7.933-17.592-17.714-17.592-9.786 0-17.714 7.878-17.714 17.592 0 9.72 7.933 17.592 17.714 17.592 9.786 0 17.714-7.878 17.714-17.592h-.177Z"/><path d="m98.662 20.537-.007-.066-.005-.012a2.747 2.747 0 0 1 .48-2.086c-.694-.34-1.167-.856-1.41-1.549l-.017-.06v-.006c-.258-.722-.224-1.434.1-2.144-.746-.212-1.305-.637-1.673-1.277l-.032-.06v-.005a2.724 2.724 0 0 1-.285-2.12c-.77-.079-1.391-.395-1.865-.956l-.029-.037-.03-.03a2.74 2.74 0 0 1-.66-2.034c-.77.06-1.44-.141-2.007-.613l-.024-.02-.037-.029a2.75 2.75 0 0 1-1.02-1.891c-.752.199-1.449.116-2.094-.244-.682-.384-1.129-.955-1.347-1.721l-.005-.012c-.719.347-1.436.396-2.15.15a2.779 2.779 0 0 1-1.636-1.454c-.025-.053-.044-.104-.067-.158l-.122.102c-.64.475-1.335.657-2.086.548a2.795 2.795 0 0 1-1.882-1.124l-.012-.017c-.543.584-1.195.883-1.956.907a2.789 2.789 0 0 1-2.02-.746c-.429.64-1.003 1.038-1.73 1.186l-.068.012h-.005a2.81 2.81 0 0 1-2.123-.377c-.309.706-.804 1.197-1.49 1.476l-.06.02-.008.005a2.794 2.794 0 0 1-2.16.005c-.176.749-.573 1.325-1.2 1.719l-.048.029-.02.012a2.802 2.802 0 0 1-2.113.39c-.041.765-.33 1.397-.873 1.89l-.017.013-.037.041c-.567.523-1.24.774-2.027.759.1.766-.069 1.442-.518 2.03l-.007.008-.032.048c-.461.613-1.077.978-1.845 1.102.233.73.184 1.427-.148 2.079l-.012.024-.024.054c-.344.68-.886 1.15-1.62 1.41.363.68.442 1.369.233 2.074l-.005.012-.017.061c-.216.734-.665 1.289-1.342 1.673.478.603.682 1.272.601 2.006l-.005.017-.005.066c-.08.758-.424 1.386-1.02 1.884.584.51.903 1.136.95 1.868v.055l.004.025c.056.758-.167 1.434-.66 2.025.66.401 1.085.956 1.269 1.67l.02.093c.252.698.228 1.398-.08 2.099l-.036.077c.633.285 1.094.73 1.374 1.345l.025.056.005.012c.326.705.355 1.435.085 2.181l-.005.013h.008c.734.126 1.318.461 1.742 1.009l.005.004c.523.58.758 1.27.719 2.06l-.017.141a2.666 2.666 0 0 1 1.82.783l.018.017.036.032c.548.54.827 1.196.845 1.97.768-.135 1.452.006 2.066.425l.007.007.044.03a2.774 2.774 0 0 1 1.193 1.791c.731-.267 1.433-.25 2.11.054l.012.005.05.019c.701.311 1.2.827 1.494 1.549.67-.39 1.36-.498 2.076-.321l.007.005.066.012a2.8 2.8 0 0 1 1.748 1.257c.586-.498 1.248-.73 1.982-.68l.025.004h.054a2.796 2.796 0 0 1 1.943.929c.486-.596 1.097-.941 1.833-1.026l.054-.005h.008c.767-.09 1.46.102 2.085.576.37-.68.913-1.126 1.625-1.342l.125-.032a2.803 2.803 0 0 1 2.088.207c.245-.73.697-1.264 1.355-1.6l.122-.056c.665-.328 1.362-.384 2.093-.17.11-.761.457-1.367 1.046-1.812l.044-.031.017-.017a2.806 2.806 0 0 1 2.08-.572c-.029-.77.204-1.427.703-1.97l.017-.016.032-.037c.513-.566 1.163-.875 1.943-.928-.162-.75-.054-1.44.339-2.06l.012-.017.025-.049c.407-.649.986-1.07 1.747-1.257-.297-.71-.31-1.405-.037-2.086l.007-.02.017-.053c.283-.71.78-1.223 1.49-1.549-.42-.644-.56-1.33-.412-2.047l.005-.012.007-.061c.152-.75.552-1.345 1.195-1.792-.53-.56-.793-1.209-.776-1.946V24.27c.013-.762.297-1.418.85-1.965-.614-.457-.984-1.046-1.102-1.77l.002.002ZM92.385 38.73a21.173 21.173 0 0 1-14.958 6.157 21.152 21.152 0 0 1-14.959-6.157c-3.83-3.805-6.193-9.053-6.198-14.857 0-5.804 2.368-11.051 6.198-14.857a21.148 21.148 0 0 1 14.959-6.152 21.168 21.168 0 0 1 14.958 6.152c3.83 3.806 6.194 9.053 6.199 14.857-.005 5.804-2.37 11.052-6.199 14.857Z"/><path d="M68.74 10.838a.612.612 0 0 1 .48-.09c.177.036.31.128.408.274a.59.59 0 0 1 .105.321.667.667 0 0 1-.066.324.583.583 0 0 1-.211.243.585.585 0 0 1-.479.085.655.655 0 0 1-.405-.28.647.647 0 0 1-.105-.479c.03-.165.118-.299.27-.4l.002.002Zm.681.838a.88.88 0 0 1-.252-.08.463.463 0 0 1-.177-.175.518.518 0 0 1-.103-.248.537.537 0 0 1 .044-.238.42.42 0 0 0-.29.333.439.439 0 0 0 .07.348.43.43 0 0 0 .284.19.415.415 0 0 0 .321-.054c.037-.03.074-.054.099-.078l.004.002ZM74.582 8.498a.617.617 0 0 1 .479.105.634.634 0 0 1 .235.742.66.66 0 0 1-.189.272.615.615 0 0 1-.294.14.608.608 0 0 1-.474-.104.626.626 0 0 1-.26-.413.619.619 0 0 1 .093-.48.576.576 0 0 1 .408-.262h.002Zm.295 1.029c-.091-.06-.16-.122-.204-.17a.449.449 0 0 1-.093-.226.507.507 0 0 1 .005-.263.604.604 0 0 1 .135-.202.32.32 0 0 0-.123.007.408.408 0 0 0-.272.188c-.074.104-.099.218-.074.345.02.117.086.214.189.284a.42.42 0 0 0 .314.078c.054-.012.093-.024.127-.036l-.004-.005ZM80.797 5.033a.338.338 0 0 1 .224.146.34.34 0 0 1 .056.26.357.357 0 0 1-.403.284.328.328 0 0 1-.22-.145.346.346 0 0 1-.054-.26.358.358 0 0 1 .137-.226.287.287 0 0 1 .253-.056l.007-.003Zm-.049.58a.436.436 0 0 1-.068-.127.298.298 0 0 1-.005-.134.299.299 0 0 1 .054-.134.37.37 0 0 1 .105-.078l-.066-.02a.221.221 0 0 0-.174.045.244.244 0 0 0-.103.163.223.223 0 0 0 .041.182c.042.056.091.09.148.097l.068.005ZM82.319 5.366a.324.324 0 0 1 .21.163c.05.085.062.17.038.263a.378.378 0 0 1-.091.158.37.37 0 0 1-.155.09.335.335 0 0 1-.177.005.313.313 0 0 1-.208-.163.35.35 0 0 1-.032-.263.357.357 0 0 1 .155-.214.318.318 0 0 1 .257-.036l.003-.003Zm-.094.577a.815.815 0 0 1-.06-.13.284.284 0 0 1 .006-.133.3.3 0 0 1 .062-.129.288.288 0 0 1 .115-.068l-.061-.024a.23.23 0 0 0-.18.03.248.248 0 0 0-.117.152.236.236 0 0 0 .025.183c.031.06.08.097.137.109l.073.012v-.002ZM83.826 5.824c.09.031.154.09.196.177.042.09.044.175.012.268a.355.355 0 0 1-.447.216.328.328 0 0 1-.196-.178.337.337 0 0 1-.012-.262.344.344 0 0 1 .177-.202.338.338 0 0 1 .27-.017v-.002Zm-.138.566a.77.77 0 0 1-.049-.134.275.275 0 0 1 .017-.133.267.267 0 0 1 .074-.127.354.354 0 0 1 .118-.06l-.061-.03a.214.214 0 0 0-.18.017.254.254 0 0 0-.13.141.249.249 0 0 0 .013.188c.029.06.073.102.125.121l.073.017ZM85.278 6.395c.091.041.153.105.184.195a.35.35 0 0 1-.125.408.394.394 0 0 1-.166.066.341.341 0 0 1-.177-.025.318.318 0 0 1-.18-.19.326.326 0 0 1 .013-.262.35.35 0 0 1 .191-.187.296.296 0 0 1 .26-.005Zm-.184.554a.736.736 0 0 1-.036-.138.227.227 0 0 1 .03-.13.292.292 0 0 1 .08-.116.365.365 0 0 1 .123-.048l-.057-.032a.229.229 0 0 0-.179 0 .236.236 0 0 0-.14.134.227.227 0 0 0-.005.187c.025.06.067.105.118.129l.066.017v-.003ZM86.687 7.088c.086.044.14.114.167.207a.337.337 0 0 1-.03.262.334.334 0 0 1-.297.182.305.305 0 0 1-.171-.04.312.312 0 0 1-.165-.207.35.35 0 0 1 .032-.263.343.343 0 0 1 .204-.17.306.306 0 0 1 .257.029h.003Zm-.233.535a.498.498 0 0 1-.025-.141c0-.037.013-.08.037-.129a.33.33 0 0 1 .093-.114.373.373 0 0 1 .128-.042l-.054-.04a.227.227 0 0 0-.18-.013.24.24 0 0 0-.149.122.244.244 0 0 0-.02.187c.02.065.054.11.106.138l.066.032h-.002ZM88.03 7.89c.08.054.13.127.147.22a.355.355 0 0 1-.194.384.314.314 0 0 1-.174.036.33.33 0 0 1-.167-.054.342.342 0 0 1-.093-.479.343.343 0 0 1 .216-.153.326.326 0 0 1 .265.044v.002Zm-.273.516a.682.682 0 0 1-.017-.141c0-.037.017-.078.05-.127a.281.281 0 0 1 .102-.104.285.285 0 0 1 .13-.03l-.049-.043a.234.234 0 0 0-.179-.03.24.24 0 0 0-.16.11.218.218 0 0 0-.031.183.227.227 0 0 0 .093.15l.061.032ZM89.3 8.797a.324.324 0 0 1 .13.231.318.318 0 0 1-.074.256.401.401 0 0 1-.147.11.321.321 0 0 1-.179.019.31.31 0 0 1-.162-.068.313.313 0 0 1-.127-.231.373.373 0 0 1 .073-.256.37.37 0 0 1 .233-.138.349.349 0 0 1 .253.077Zm-.319.492a.73.73 0 0 1-.005-.141l.061-.122a.25.25 0 0 1 .11-.092.385.385 0 0 1 .13-.02l-.048-.048a.229.229 0 0 0-.177-.044.23.23 0 0 0-.167.097.23.23 0 0 0-.049.178.22.22 0 0 0 .081.153l.062.041.002-.002ZM90.498 9.807a.347.347 0 0 1 .017.493.339.339 0 0 1-.155.097.355.355 0 0 1-.339-.073.321.321 0 0 1-.105-.238c0-.092.032-.177.098-.248a.35.35 0 0 1 .24-.117c.091-.012.172.02.246.086h-.002Zm-.356.466c-.005-.06 0-.109.007-.14l.069-.115a.31.31 0 0 1 .118-.085.34.34 0 0 1 .135-.007l-.045-.054a.217.217 0 0 0-.171-.056.26.26 0 0 0-.177.08.247.247 0 0 0 .002.338l.057.042.005-.003ZM91.607 10.913a.332.332 0 0 1 .091.25.327.327 0 0 1-.115.239.344.344 0 0 1-.165.085.351.351 0 0 1-.331-.1.308.308 0 0 1-.086-.248.346.346 0 0 1 .115-.238.359.359 0 0 1 .248-.098.31.31 0 0 1 .24.11h.003Zm-.395.433c.005-.061.008-.11.02-.141l.078-.11a.31.31 0 0 1 .123-.078.323.323 0 0 1 .135.005l-.042-.053a.246.246 0 0 0-.167-.073.25.25 0 0 0-.184.065.242.242 0 0 0-.078.17.214.214 0 0 0 .056.166l.057.049h.002ZM92.615 12.097a.325.325 0 0 1 .069.255.32.32 0 0 1-.135.231.322.322 0 0 1-.172.069.405.405 0 0 1-.18-.02.302.302 0 0 1-.141-.105.32.32 0 0 1-.07-.255.38.38 0 0 1 .136-.23.36.36 0 0 1 .257-.079c.101.013.177.056.236.134Zm-.43.401a.554.554 0 0 1 .032-.14l.086-.103a.262.262 0 0 1 .13-.066.36.36 0 0 1 .13.013l-.031-.056a.221.221 0 0 0-.16-.085.24.24 0 0 0-.186.053.23.23 0 0 0-.091.163c-.007.068.005.126.042.17l.049.054v-.003ZM93.528 13.361c.054.08.069.166.05.26a.331.331 0 0 1-.153.22.33.33 0 0 1-.177.055.305.305 0 0 1-.174-.036.357.357 0 0 1-.135-.114.344.344 0 0 1 .106-.48.343.343 0 0 1 .26-.055c.093.02.167.068.22.15h.003Zm-.456.37a.515.515 0 0 1 .044-.139.258.258 0 0 1 .093-.092.348.348 0 0 1 .135-.056.271.271 0 0 1 .13.024l-.03-.06a.248.248 0 0 0-.151-.098.258.258 0 0 0-.19.037.219.219 0 0 0-.1.153.224.224 0 0 0 .03.175l.036.056h.003ZM94.335 14.694a.346.346 0 0 1-.137.47.362.362 0 0 1-.18.043.422.422 0 0 1-.17-.049.32.32 0 0 1-.124-.126.304.304 0 0 1-.024-.26.334.334 0 0 1 .172-.202.364.364 0 0 1 .265-.037c.08.02.152.073.2.159l-.002.002Zm-.49.328a.753.753 0 0 1 .054-.133.254.254 0 0 1 .1-.086.324.324 0 0 1 .14-.043c.037 0 .081.012.125.031l-.024-.06a.233.233 0 0 0-.143-.11.25.25 0 0 0-.191.02.22.22 0 0 0-.113.145c-.02.066-.017.122.017.175l.037.061h-.002ZM95.03 16.092a.308.308 0 0 1 .005.263.329.329 0 0 1-.189.19c-.056.029-.118.036-.184.029a.345.345 0 0 1-.167-.066.372.372 0 0 1-.113-.134.308.308 0 0 1-.004-.262.336.336 0 0 1 .189-.19.347.347 0 0 1 .27-.012.31.31 0 0 1 .196.182h-.003Zm-.51.287a.524.524 0 0 1 .066-.129.237.237 0 0 1 .11-.078.292.292 0 0 1 .143-.031.361.361 0 0 1 .127.044l-.02-.066a.223.223 0 0 0-.134-.122.229.229 0 0 0-.191.008.244.244 0 0 0-.128.133.217.217 0 0 0 0 .175l.03.066h-.003ZM95.61 17.537a.327.327 0 0 1-.018.262.352.352 0 0 1-.385.19.353.353 0 0 1-.165-.078.327.327 0 0 1-.1-.146.327.327 0 0 1 .017-.263.368.368 0 0 1 .471-.168c.09.042.147.105.18.2v.003Zm-.53.243a.347.347 0 0 1 .078-.122.22.22 0 0 1 .115-.068c.061-.02.105-.03.142-.02l.123.054-.017-.066a.219.219 0 0 0-.123-.128.238.238 0 0 0-.191-.008.237.237 0 0 0-.14.127.244.244 0 0 0-.017.175l.03.06v-.004ZM96.07 19.032a.33.33 0 0 1-.037.262.375.375 0 0 1-.216.163.298.298 0 0 1-.183-.005.337.337 0 0 1-.155-.09.342.342 0 0 1-.09-.15.307.307 0 0 1 .04-.26.349.349 0 0 1 .217-.158.335.335 0 0 1 .265.031c.08.041.135.11.16.202v.005Zm-.55.202a.436.436 0 0 1 .087-.117.31.31 0 0 1 .117-.06.26.26 0 0 1 .147-.008l.116.066-.008-.066a.236.236 0 0 0-.112-.141.23.23 0 0 0-.192-.024.219.219 0 0 0-.147.114.235.235 0 0 0-.03.175l.025.066-.002-.005ZM96.406 20.547a.336.336 0 0 1-.061.26.342.342 0 0 1-.228.141.334.334 0 0 1-.184-.017.41.41 0 0 1-.148-.102.32.32 0 0 1-.017-.413.336.336 0 0 1 .228-.14.333.333 0 0 1 .26.054c.082.044.13.117.148.214l.002.003Zm-.567.153a.567.567 0 0 1 .094-.11.238.238 0 0 1 .127-.048.288.288 0 0 1 .147.005l.11.073-.004-.066a.239.239 0 0 0-.1-.15.235.235 0 0 0-.19-.042.219.219 0 0 0-.154.102.216.216 0 0 0-.044.17l.017.066h-.003ZM96.613 22.093a.327.327 0 0 1-.081.25.335.335 0 0 1-.236.122.339.339 0 0 1-.179-.031.393.393 0 0 1-.137-.115.31.31 0 0 1-.062-.165.32.32 0 0 1 .081-.25.335.335 0 0 1 .236-.122.367.367 0 0 1 .258.073.35.35 0 0 1 .122.238h-.002Zm-.575.11a.808.808 0 0 1 .101-.102.293.293 0 0 1 .13-.042c.061-.005.11 0 .147.017l.101.08v-.068a.226.226 0 0 0-.09-.158.233.233 0 0 0-.185-.056.216.216 0 0 0-.162.09.223.223 0 0 0-.056.166l.012.073h.002ZM96.697 23.642a.33.33 0 0 1-.104.248.341.341 0 0 1-.247.102.35.35 0 0 1-.359-.34c0-.097.032-.178.103-.243a.347.347 0 0 1 .248-.102.36.36 0 0 1 .253.092.328.328 0 0 1 .106.243Zm-.585.066.11-.093a.256.256 0 0 1 .13-.029c.062 0 .111.008.143.024l.098.09.008-.065a.212.212 0 0 0-.079-.163.248.248 0 0 0-.35 0 .218.218 0 0 0-.07.163l.008.073h.002ZM96.65 25.198a.31.31 0 0 1-.124.236.35.35 0 0 1-.547-.11.31.31 0 0 1-.037-.174.325.325 0 0 1 .123-.236c.074-.06.16-.09.253-.08.098.007.179.043.24.114a.322.322 0 0 1 .091.25Zm-.587.012c.044-.04.086-.065.117-.085.032-.017.079-.02.135-.017a.31.31 0 0 1 .14.037.32.32 0 0 1 .091.097l.012-.066a.233.233 0 0 0-.061-.17.235.235 0 0 0-.172-.085.236.236 0 0 0-.176.06.222.222 0 0 0-.081.154l-.005.073v.003ZM96.475 26.755a.343.343 0 0 1-.14.226.334.334 0 0 1-.26.06.335.335 0 0 1-.167-.073.338.338 0 0 1-.105-.145.338.338 0 0 1 .118-.399.366.366 0 0 1 .493.073.32.32 0 0 1 .061.255v.003Zm-.586-.037a.509.509 0 0 1 .125-.073.266.266 0 0 1 .135-.007.295.295 0 0 1 .14.048.31.31 0 0 1 .08.105l.018-.066a.239.239 0 0 0-.05-.175.246.246 0 0 0-.346-.058.22.22 0 0 0-.093.146l-.007.078-.002.002ZM96.176 28.274a.314.314 0 0 1-.16.214.338.338 0 0 1-.265.042.344.344 0 0 1-.162-.09.32.32 0 0 1-.093-.154.325.325 0 0 1-.007-.175.318.318 0 0 1 .154-.211.36.36 0 0 1 .266-.041.358.358 0 0 1 .22.15c.057.08.074.17.05.263l-.003.002Zm-.584-.08a.59.59 0 0 1 .13-.066.259.259 0 0 1 .135.005c.061.017.106.032.13.061a.27.27 0 0 1 .074.11l.024-.061c.017-.061.005-.117-.032-.178a.265.265 0 0 0-.16-.114.225.225 0 0 0-.183.032.218.218 0 0 0-.106.138l-.012.073ZM95.754 29.78a.342.342 0 0 1-.177.201.347.347 0 0 1-.265.02.362.362 0 0 1-.236-.26.325.325 0 0 1 .008-.176.32.32 0 0 1 .174-.199.336.336 0 0 1 .265-.017c.094.03.165.085.209.165.044.08.054.17.02.26l.002.005Zm-.572-.127a.59.59 0 0 1 .135-.053.271.271 0 0 1 .135.012c.062.02.103.041.128.068.024.029.044.065.061.116l.03-.06a.219.219 0 0 0-.02-.178.26.26 0 0 0-.147-.126.228.228 0 0 0-.187.017.224.224 0 0 0-.117.129l-.013.073-.005.002ZM95.214 31.236a.336.336 0 0 1-.191.187.347.347 0 0 1-.27 0 .312.312 0 0 1-.147-.114.341.341 0 0 1-.069-.166.386.386 0 0 1 .02-.175.316.316 0 0 1 .189-.182.37.37 0 0 1 .27.005c.09.036.154.097.19.182.045.085.045.17.008.263Zm-.564-.175a.534.534 0 0 1 .14-.041.302.302 0 0 1 .135.024.305.305 0 0 1 .122.08c.025.03.042.068.054.122l.032-.056a.224.224 0 0 0-.005-.178.264.264 0 0 0-.137-.138.254.254 0 0 0-.189 0 .206.206 0 0 0-.125.121l-.025.066h-.002ZM94.554 32.646a.343.343 0 0 1-.204.17.334.334 0 0 1-.264-.024.337.337 0 0 1-.135-.126.332.332 0 0 1-.054-.17.294.294 0 0 1 .036-.17.308.308 0 0 1 .204-.166c.09-.03.18-.017.265.024a.35.35 0 0 1 .18.2.34.34 0 0 1-.03.262h.002Zm-.547-.219a.548.548 0 0 1 .142-.029c.037 0 .081.012.13.037.057.029.094.056.116.09.02.031.032.073.044.126l.037-.056a.204.204 0 0 0 .007-.177.231.231 0 0 0-.125-.146.253.253 0 0 0-.19-.017.222.222 0 0 0-.139.11l-.025.065.003-.003ZM93.778 34.005a.324.324 0 0 1-.22.154.36.36 0 0 1-.393-.178.368.368 0 0 1-.042-.175c0-.06.017-.117.05-.17a.315.315 0 0 1 .215-.15.345.345 0 0 1 .265.048.36.36 0 0 1 .16.214.298.298 0 0 1-.037.255l.002.002Zm-.525-.26a.562.562 0 0 1 .142-.017c.037 0 .079.017.128.044.054.032.09.066.106.097.017.032.029.073.031.127l.042-.054a.22.22 0 0 0 .025-.177.247.247 0 0 0-.113-.153.232.232 0 0 0-.184-.03.237.237 0 0 0-.148.098l-.029.065ZM92.892 35.294a.324.324 0 0 1-.228.134.34.34 0 0 1-.26-.066.321.321 0 0 1-.115-.14.398.398 0 0 1-.03-.178.325.325 0 0 1 .067-.166.302.302 0 0 1 .228-.128.353.353 0 0 1 .257.068.338.338 0 0 1 .143.226.29.29 0 0 1-.062.25Zm-.503-.304a.641.641 0 0 1 .148-.007.286.286 0 0 1 .122.056c.05.036.081.073.098.105.017.031.02.077.02.128l.044-.048a.234.234 0 0 0 .042-.175.251.251 0 0 0-.103-.166.226.226 0 0 0-.18-.044.215.215 0 0 0-.154.086l-.037.065ZM91.91 36.5a.329.329 0 0 1-.241.115.352.352 0 0 1-.368-.416.312.312 0 0 1 .078-.158.342.342 0 0 1 .488-.024.35.35 0 0 1 .123.235.304.304 0 0 1-.08.25V36.5Zm-.48-.34a.68.68 0 0 1 .148.005l.118.065c.049.042.078.078.09.115a.303.303 0 0 1 .013.129l.049-.044c.041-.044.056-.102.054-.17a.25.25 0 0 0-.263-.236.22.22 0 0 0-.16.073l-.048.065v-.002ZM90.827 37.629a.35.35 0 0 1-.58-.348.3.3 0 0 1 .092-.15.323.323 0 0 1 .248-.093.368.368 0 0 1 .245.11.334.334 0 0 1-.005.483v-.002Zm-.449-.382a.54.54 0 0 1 .142.017l.11.073a.315.315 0 0 1 .082.121.402.402 0 0 1 0 .134l.054-.041a.243.243 0 0 0-.005-.343.224.224 0 0 0-.172-.073.231.231 0 0 0-.167.06l-.044.054v-.002ZM89.651 38.664a.325.325 0 0 1-.257.073.344.344 0 0 1-.236-.126.308.308 0 0 1-.073-.165.336.336 0 0 1 .02-.178.35.35 0 0 1 .1-.146.32.32 0 0 1 .253-.073.347.347 0 0 1 .233.13c.061.077.09.157.08.25a.31.31 0 0 1-.122.235h.002Zm-.412-.418a.722.722 0 0 1 .143.03l.105.084c.042.05.062.09.069.127a.296.296 0 0 1-.007.129l.056-.037c.049-.036.073-.092.08-.163a.237.237 0 0 0-.056-.182.22.22 0 0 0-.164-.085.23.23 0 0 0-.172.044l-.056.053h.002ZM88.407 39.598a.33.33 0 0 1-.26.054.328.328 0 0 1-.223-.146.342.342 0 0 1-.062-.175.37.37 0 0 1 .032-.178.287.287 0 0 1 .113-.134.326.326 0 0 1 .258-.053c.093.02.167.068.223.146.057.08.079.165.061.26a.356.356 0 0 1-.142.226Zm-.38-.445a.569.569 0 0 1 .14.041.31.31 0 0 1 .098.093c.037.053.056.097.056.134a.322.322 0 0 1-.02.129l.062-.03a.233.233 0 0 0 .093-.153.234.234 0 0 0-.041-.187.24.24 0 0 0-.16-.102.227.227 0 0 0-.172.031l-.056.042v.002ZM87.087 40.432a.318.318 0 0 1-.265.032.337.337 0 0 1-.211-.163.352.352 0 0 1-.005-.353.306.306 0 0 1 .122-.126.308.308 0 0 1 .26-.032c.091.03.165.08.212.166.049.085.06.17.041.262a.323.323 0 0 1-.154.212v.002Zm-.344-.474c.056.017.1.032.135.053.032.02.061.054.09.098a.295.295 0 0 1 .05.138c0 .037-.007.08-.032.127l.061-.025a.219.219 0 0 0 .106-.145.236.236 0 0 0-.03-.19.227.227 0 0 0-.147-.11.231.231 0 0 0-.177.017l-.056.042v-.005ZM85.69 41.162a.335.335 0 0 1-.264.012.359.359 0 0 1-.201-.178.32.32 0 0 1-.032-.177.341.341 0 0 1 .061-.17.28.28 0 0 1 .135-.115.343.343 0 0 1 .461.17.35.35 0 0 1 .02.268.333.333 0 0 1-.18.19Zm-.3-.504c.056.02.1.042.13.061.031.02.056.056.08.105.03.056.042.102.037.138a.38.38 0 0 1-.042.127l.067-.02c.056-.024.093-.073.117-.138a.223.223 0 0 0-.012-.19.217.217 0 0 0-.14-.122.221.221 0 0 0-.176.005l-.067.037.005-.003ZM84.255 41.774a.356.356 0 0 1-.265-.007.36.36 0 0 1-.184-.195.311.311 0 0 1-.017-.182.381.381 0 0 1 .073-.163.302.302 0 0 1 .143-.104.325.325 0 0 1 .265.012.335.335 0 0 1 .179.194.36.36 0 0 1 0 .268.369.369 0 0 1-.197.177h.003Zm-.26-.527a.51.51 0 0 1 .125.073.26.26 0 0 1 .074.114c.02.06.031.105.024.141a.37.37 0 0 1-.049.121l.066-.017a.217.217 0 0 0 .128-.126c.03-.06.03-.126.005-.19a.24.24 0 0 0-.13-.133.226.226 0 0 0-.177-.012l-.066.029ZM82.76 42.263a.319.319 0 0 1-.264-.032.337.337 0 0 1-.167-.211.354.354 0 0 1 .081-.34.319.319 0 0 1 .152-.093.305.305 0 0 1 .26.032c.081.048.14.117.165.211.03.093.02.183-.025.263a.279.279 0 0 1-.201.17Zm-.215-.542c.054.029.093.056.118.08a.25.25 0 0 1 .061.117c.017.06.02.11.012.14l-.061.118.066-.013a.24.24 0 0 0 .14-.116.235.235 0 0 0 .02-.19.221.221 0 0 0-.118-.146.23.23 0 0 0-.177-.024l-.061.031v.003ZM81.24 42.638c-.094.019-.18 0-.26-.054a.329.329 0 0 1-.148-.224.348.348 0 0 1 .012-.182.384.384 0 0 1 .098-.15.322.322 0 0 1 .16-.081c.093-.02.179 0 .257.053a.346.346 0 0 1 .148.224.348.348 0 0 1-.044.263.329.329 0 0 1-.221.15h-.003Zm-.173-.56c.05.032.086.066.116.093.024.029.041.068.054.121.012.061.012.11 0 .146l-.069.11.066-.005a.227.227 0 0 0 .148-.105.256.256 0 0 0 .036-.19.228.228 0 0 0-.105-.153.225.225 0 0 0-.172-.036l-.069.02h-.005ZM79.691 42.88a.336.336 0 0 1-.258-.072.353.353 0 0 1 .01-.56.34.34 0 0 1 .165-.068.32.32 0 0 1 .252.073.36.36 0 0 1 .128.236.352.352 0 0 1-.069.26.297.297 0 0 1-.223.134l-.005-.002Zm-.127-.57c.049.036.08.067.103.101.02.03.036.073.044.127.007.06.005.11-.013.146l-.08.104h.068a.218.218 0 0 0 .155-.092.243.243 0 0 0 .054-.187.234.234 0 0 0-.093-.163.226.226 0 0 0-.167-.054l-.069.017h-.002ZM78.137 42.997a.347.347 0 0 1-.317-.513.4.4 0 0 1 .124-.133.375.375 0 0 1 .166-.054.32.32 0 0 1 .246.093.333.333 0 0 1 .105.243.322.322 0 0 1-.09.25.293.293 0 0 1-.234.114Zm-.078-.578.093.104a.25.25 0 0 1 .032.13.288.288 0 0 1-.02.14l-.09.097.066.005c.061 0 .115-.029.164-.08a.228.228 0 0 0 .067-.177.257.257 0 0 0-.079-.17.23.23 0 0 0-.164-.066l-.07.017ZM76.57 42.993a.333.333 0 0 1-.24-.115.339.339 0 0 1-.092-.25.359.359 0 0 1 .363-.338.31.31 0 0 1 .236.114c.061.073.091.153.086.25a.347.347 0 0 1-.356.336l.003.003Zm-.03-.589a.549.549 0 0 1 .086.117.242.242 0 0 1 .02.134.334.334 0 0 1-.032.14l-.093.09.066.013a.215.215 0 0 0 .167-.066.25.25 0 0 0 .08-.175.232.232 0 0 0-.066-.175.215.215 0 0 0-.159-.078l-.069-.005v.005ZM75 42.856a.324.324 0 0 1-.229-.133.352.352 0 0 1-.069-.26.34.34 0 0 1 .211-.28c.057-.025.116-.032.177-.025a.324.324 0 0 1 .228.134.344.344 0 0 1 .067.256.35.35 0 0 1-.128.235.325.325 0 0 1-.258.073Zm.016-.583c.037.048.062.09.079.121.017.032.017.078.012.134a.328.328 0 0 1-.044.139.29.29 0 0 1-.1.08l.066.017a.212.212 0 0 0 .171-.053.234.234 0 0 0 .094-.166.23.23 0 0 0-.05-.177.221.221 0 0 0-.151-.093h-.074l-.003-.002ZM73.46 42.599a.335.335 0 0 1-.22-.151.333.333 0 0 1-.05-.263.33.33 0 0 1 .087-.163.371.371 0 0 1 .152-.097.336.336 0 0 1 .177-.012c.093.02.166.068.216.15.049.081.066.166.044.26a.34.34 0 0 1-.147.225.318.318 0 0 1-.258.053V42.6Zm.067-.584a.63.63 0 0 1 .066.127.245.245 0 0 1 0 .133.298.298 0 0 1-.056.134.27.27 0 0 1-.11.073l.06.02c.062.012.119 0 .175-.037a.256.256 0 0 0 .11-.158.221.221 0 0 0-.036-.183.226.226 0 0 0-.143-.102l-.066-.007ZM71.935 42.215a.33.33 0 0 1-.204-.17.362.362 0 0 1-.03-.268.293.293 0 0 1 .099-.153.374.374 0 0 1 .16-.086.311.311 0 0 1 .176.005.338.338 0 0 1 .228.428.358.358 0 0 1-.164.212.316.316 0 0 1-.265.032Zm.113-.577c.03.054.049.098.056.134a.264.264 0 0 1-.012.134.313.313 0 0 1-.067.129.364.364 0 0 1-.115.065l.062.03a.238.238 0 0 0 .179-.025.233.233 0 0 0 .122-.15.238.238 0 0 0-.02-.188.22.22 0 0 0-.134-.114l-.074-.017.003.002ZM70.457 41.714a.316.316 0 0 1-.191-.188.338.338 0 0 1-.005-.267.333.333 0 0 1 .11-.146.417.417 0 0 1 .165-.073.33.33 0 0 1 .363.2.36.36 0 0 1 .005.267.377.377 0 0 1-.18.2.316.316 0 0 1-.265.007h-.002Zm.16-.565a.442.442 0 0 1 .044.139c.007.037 0 .08-.02.134a.328.328 0 0 1-.079.121.295.295 0 0 1-.117.056l.061.032c.056.02.118.02.18-.007a.267.267 0 0 0 .134-.139.248.248 0 0 0-.127-.314l-.079-.024.002.002ZM69.012 41.093a.332.332 0 0 1-.177-.199.35.35 0 0 1 .14-.406.44.44 0 0 1 .172-.06.345.345 0 0 1 .176.03.312.312 0 0 1 .172.2c.03.09.02.178-.02.263a.328.328 0 0 1-.196.182.336.336 0 0 1-.265-.012l-.002.002Zm.208-.552c.02.056.032.103.032.142a.232.232 0 0 1-.032.128.37.37 0 0 1-.085.117.331.331 0 0 1-.123.044l.056.036c.054.025.113.03.18.005a.24.24 0 0 0 .142-.129.226.226 0 0 0 .007-.187.21.21 0 0 0-.113-.134l-.066-.024.002.002ZM67.633 40.36a.35.35 0 0 1 .184-.647c.061 0 .118.016.171.043a.312.312 0 0 1 .155.212.35.35 0 0 1-.042.262.342.342 0 0 1-.21.166.329.329 0 0 1-.258-.037Zm.252-.53a.35.35 0 0 1 .02.14.28.28 0 0 1-.044.127.316.316 0 0 1-.098.109.331.331 0 0 1-.128.036l.054.042a.227.227 0 0 0 .18.02.241.241 0 0 0 .154-.117.235.235 0 0 0 .024-.183.217.217 0 0 0-.103-.14l-.061-.032.002-.003ZM66.32 39.515a.328.328 0 0 1-.142-.223.327.327 0 0 1 .06-.26.348.348 0 0 1 .143-.117.38.38 0 0 1 .18-.032.317.317 0 0 1 .166.061.312.312 0 0 1 .14.224.37.37 0 0 1-.061.26.338.338 0 0 1-.224.146.333.333 0 0 1-.26-.056l-.002-.003Zm.294-.505c.008.06.013.104.008.14a.248.248 0 0 1-.054.122.274.274 0 0 1-.106.102.288.288 0 0 1-.13.025l.05.044c.048.036.11.048.176.036a.262.262 0 0 0 .164-.102.238.238 0 0 0 .042-.183.224.224 0 0 0-.09-.15l-.057-.037-.003.003ZM65.071 38.56a.33.33 0 0 1-.123-.236.35.35 0 0 1 .23-.36.403.403 0 0 1 .18-.017.299.299 0 0 1 .162.073c.074.06.115.139.118.236a.363.363 0 0 1-.317.38.306.306 0 0 1-.252-.079l.002.003Zm.331-.48a.719.719 0 0 1 0 .147l-.06.116a.31.31 0 0 1-.116.093.41.41 0 0 1-.13.017l.044.048c.049.042.105.056.177.05a.245.245 0 0 0 .171-.09.228.228 0 0 0 .054-.178.22.22 0 0 0-.078-.158l-.062-.044ZM63.913 37.52a.336.336 0 0 1-.103-.249.33.33 0 0 1 .103-.248.341.341 0 0 1 .16-.092.321.321 0 0 1 .178 0c.062.017.11.041.155.085a.322.322 0 0 1 .103.243.331.331 0 0 1-.103.243.363.363 0 0 1-.246.11.312.312 0 0 1-.247-.093Zm.37-.456a.66.66 0 0 1-.012.141l-.074.115a.289.289 0 0 1-.118.08.287.287 0 0 1-.13.005l.042.053a.223.223 0 0 0 .172.061c.069 0 .13-.024.179-.078a.246.246 0 0 0 .069-.17.203.203 0 0 0-.067-.163l-.06-.044ZM62.849 36.384a.327.327 0 0 1-.081-.25.334.334 0 0 1 .122-.237.367.367 0 0 1 .167-.08.37.37 0 0 1 .18.012.37.37 0 0 1 .146.097c.062.073.091.158.081.25a.335.335 0 0 1-.122.237.352.352 0 0 1-.253.09.314.314 0 0 1-.24-.117v-.002Zm.404-.421a.59.59 0 0 1-.024.14l-.081.105a.315.315 0 0 1-.125.073.343.343 0 0 1-.13-.004l.036.056a.24.24 0 0 0 .165.077.256.256 0 0 0 .184-.06.225.225 0 0 0 .08-.166.238.238 0 0 0-.048-.17l-.054-.053-.003.002ZM61.869 35.163a.328.328 0 0 1-.062-.26.344.344 0 0 1 .14-.226.357.357 0 0 1 .491.072.334.334 0 0 1-.081.477.356.356 0 0 1-.258.068.334.334 0 0 1-.228-.133l-.002.002Zm.441-.39a.42.42 0 0 1-.036.14.306.306 0 0 1-.091.102.293.293 0 0 1-.13.06.287.287 0 0 1-.13-.017l.032.056c.037.049.09.078.154.09a.249.249 0 0 0 .285-.202.203.203 0 0 0-.037-.17l-.049-.056.002-.002ZM61 33.872a.345.345 0 0 1 .118-.477.349.349 0 0 1 .35-.012c.055.03.099.068.13.117.05.08.062.17.038.26a.341.341 0 0 1-.16.212c-.08.048-.172.065-.265.048a.282.282 0 0 1-.21-.146v-.002Zm.469-.348a.536.536 0 0 1-.05.139.24.24 0 0 1-.097.092.373.373 0 0 1-.135.053.32.32 0 0 1-.13-.029l.029.061c.032.054.08.085.152.102.069.017.13.005.191-.031a.247.247 0 0 0 .11-.151.214.214 0 0 0-.024-.175l-.044-.061h-.002ZM60.233 32.513a.328.328 0 0 1-.02-.263.355.355 0 0 1 .174-.202.33.33 0 0 1 .18-.036.398.398 0 0 1 .171.056.297.297 0 0 1 .118.128c.044.086.049.175.017.263a.354.354 0 0 1-.177.2.336.336 0 0 1-.265.024.353.353 0 0 1-.2-.17h.002Zm.498-.317a.597.597 0 0 1-.057.134.254.254 0 0 1-.105.085.306.306 0 0 1-.138.042.549.549 0 0 1-.127-.037l.024.06c.03.054.074.093.142.115a.24.24 0 0 0 .192-.017.242.242 0 0 0 .123-.14.237.237 0 0 0-.008-.176l-.044-.066h-.002ZM59.58 31.09a.307.307 0 0 1 .005-.263.336.336 0 0 1 .191-.187.372.372 0 0 1 .184-.024.348.348 0 0 1 .277.207.308.308 0 0 1-.005.262.37.37 0 0 1-.461.187.302.302 0 0 1-.191-.182Zm.522-.275a.535.535 0 0 1-.068.127.272.272 0 0 1-.11.073.314.314 0 0 1-.143.029.292.292 0 0 1-.123-.049l.017.066a.244.244 0 0 0 .13.126c.067.03.13.03.192 0a.225.225 0 0 0 .13-.129.218.218 0 0 0 .005-.175l-.03-.065v-.003ZM59.05 29.629a.328.328 0 0 1 .025-.263.339.339 0 0 1 .208-.17.364.364 0 0 1 .344.073.327.327 0 0 1 .074.409.34.34 0 0 1-.21.165.357.357 0 0 1-.27-.017.312.312 0 0 1-.171-.2v.003Zm.537-.227a.615.615 0 0 1-.08.122.257.257 0 0 1-.118.066.294.294 0 0 1-.143.017l-.117-.056.012.066c.02.055.056.102.118.133a.25.25 0 0 0 .333-.1.223.223 0 0 0 .02-.174l-.025-.069v-.005ZM58.637 28.128a.348.348 0 0 1 .044-.26.347.347 0 0 1 .221-.153.317.317 0 0 1 .184.007.43.43 0 0 1 .155.093.32.32 0 0 1 .037.413.355.355 0 0 1-.221.15.358.358 0 0 1-.265-.036.316.316 0 0 1-.155-.214Zm.56-.182a.435.435 0 0 1-.091.114.286.286 0 0 1-.123.056.306.306 0 0 1-.147.005l-.113-.068.008.066c.012.06.049.11.11.14a.244.244 0 0 0 .341-.078.198.198 0 0 0 .032-.17l-.02-.065h.003ZM58.35 26.596a.325.325 0 0 1 .069-.255.324.324 0 0 1 .233-.134.35.35 0 0 1 .395.297.325.325 0 0 1-.069.255.346.346 0 0 1-.233.13.347.347 0 0 1-.26-.061.347.347 0 0 1-.135-.232Zm.572-.138a.464.464 0 0 1-.098.105.254.254 0 0 1-.128.043.314.314 0 0 1-.147-.007l-.106-.078v.066c.008.06.042.11.099.15a.253.253 0 0 0 .186.05.235.235 0 0 0 .16-.093.216.216 0 0 0 .049-.166l-.018-.068.003-.002ZM58.191 25.04a.329.329 0 0 1 .09-.25.337.337 0 0 1 .241-.114.318.318 0 0 1 .18.036c.056.03.1.068.134.117a.326.326 0 0 1 .057.165.32.32 0 0 1-.091.248.38.38 0 0 1-.24.114.36.36 0 0 1-.258-.08.316.316 0 0 1-.113-.236Zm.58-.092a.86.86 0 0 1-.107.097.294.294 0 0 1-.13.037.27.27 0 0 1-.142-.017l-.103-.085-.005.065a.22.22 0 0 0 .086.158.246.246 0 0 0 .184.061.243.243 0 0 0 .167-.08.214.214 0 0 0 .061-.163l-.012-.073ZM58.16 23.489c0-.097.036-.175.11-.243a.35.35 0 0 1 .247-.098.371.371 0 0 1 .302.182c.03.054.044.11.044.171a.299.299 0 0 1-.11.238.346.346 0 0 1-.248.093.347.347 0 0 1-.248-.102.327.327 0 0 1-.098-.244v.003Zm.586-.044-.116.09a.288.288 0 0 1-.13.024.31.31 0 0 1-.142-.029l-.093-.092-.008.066c0 .06.02.114.069.165.05.049.106.078.18.078a.25.25 0 0 0 .176-.068.221.221 0 0 0 .073-.158l-.007-.073-.002-.003ZM58.257 21.933a.316.316 0 0 1 .13-.231.361.361 0 0 1 .258-.078c.066.007.122.03.171.066a.37.37 0 0 1 .116.138.328.328 0 0 1 .03.175.327.327 0 0 1-.126.231.38.38 0 0 1-.258.073.36.36 0 0 1-.24-.121.323.323 0 0 1-.079-.25l-.002-.003Zm.586.005a.422.422 0 0 1-.122.077c-.032.017-.079.02-.135.017a.306.306 0 0 1-.14-.04.245.245 0 0 1-.086-.103l-.017.066a.219.219 0 0 0 .056.17.24.24 0 0 0 .172.09.242.242 0 0 0 .18-.054.236.236 0 0 0 .09-.15v-.073h.002ZM58.483 20.396a.324.324 0 0 1 .147-.219.332.332 0 0 1 .26-.053.324.324 0 0 1 .167.08c.049.041.08.09.103.146a.329.329 0 0 1-.13.394c-.081.053-.167.068-.26.053a.355.355 0 0 1-.229-.138.314.314 0 0 1-.056-.263h-.002Zm.584.053a.611.611 0 0 1-.128.069.305.305 0 0 1-.135.004.303.303 0 0 1-.135-.053.367.367 0 0 1-.078-.105l-.02.066c-.012.06.005.117.042.175a.26.26 0 0 0 .162.105c.066.012.127 0 .184-.042a.2.2 0 0 0 .098-.146l.007-.072h.003ZM58.828 18.874a.344.344 0 0 1 .427-.243.364.364 0 0 1 .25.246.303.303 0 0 1 0 .174.315.315 0 0 1-.161.207.359.359 0 0 1-.265.03.349.349 0 0 1-.216-.159.326.326 0 0 1-.032-.255h-.003Zm.58.102a.58.58 0 0 1-.13.056.292.292 0 0 1-.136-.007c-.06-.017-.105-.037-.13-.066a.353.353 0 0 1-.068-.114l-.025.06a.215.215 0 0 0 .03.178.25.25 0 0 0 .338.092.211.211 0 0 0 .11-.133l.013-.069-.002.003ZM59.292 17.393a.334.334 0 0 1 .18-.195.348.348 0 0 1 .27-.012c.06.02.11.056.149.105a.349.349 0 0 1 .066.338.334.334 0 0 1-.179.194.345.345 0 0 1-.265.008.345.345 0 0 1-.22-.438Zm.572.146a.724.724 0 0 1-.135.048.281.281 0 0 1-.135-.017.26.26 0 0 1-.125-.072.373.373 0 0 1-.061-.117l-.03.06a.226.226 0 0 0 .012.178c.03.06.079.105.143.129.061.024.127.02.189-.007.061-.03.1-.068.122-.127l.02-.078v.003ZM59.889 15.944a.336.336 0 0 1 .196-.178.37.37 0 0 1 .27.008c.061.029.106.065.142.116.037.054.057.11.067.17.007.061 0 .117-.03.176a.32.32 0 0 1-.196.177.334.334 0 0 1-.265-.012.346.346 0 0 1-.187-.19.319.319 0 0 1 .005-.267h-.002Zm.554.19a.732.732 0 0 1-.137.036.255.255 0 0 1-.13-.03.257.257 0 0 1-.118-.084.356.356 0 0 1-.049-.122l-.037.056a.222.222 0 0 0 0 .178.233.233 0 0 0 .135.14c.062.03.123.03.19.005a.221.221 0 0 0 .13-.116l.019-.066-.003.003ZM60.59 14.555a.318.318 0 0 1 .212-.162.334.334 0 0 1 .265.031c.056.032.1.073.13.129.032.053.049.114.049.175 0 .06-.012.117-.042.17a.32.32 0 0 1-.208.163.359.359 0 0 1-.265-.031.34.34 0 0 1-.142-.474h.002Zm.538.236a.509.509 0 0 1-.142.024.259.259 0 0 1-.13-.04c-.057-.032-.093-.062-.11-.093a.365.365 0 0 1-.042-.127l-.042.054a.222.222 0 0 0-.017.177c.02.066.056.117.122.151a.22.22 0 0 0 .184.02.214.214 0 0 0 .143-.105l.032-.06h.002ZM61.41 13.228a.328.328 0 0 1 .224-.146.338.338 0 0 1 .26.053.354.354 0 0 1 .16.314.306.306 0 0 1-.057.165.314.314 0 0 1-.22.141.354.354 0 0 1-.26-.056.343.343 0 0 1-.156-.218.284.284 0 0 1 .05-.25v-.003Zm.518.274a.452.452 0 0 1-.142.013.339.339 0 0 1-.128-.049c-.054-.036-.086-.068-.1-.102a.357.357 0 0 1-.03-.129l-.044.049a.228.228 0 0 0-.03.177c.013.068.05.122.111.158a.246.246 0 0 0 .184.037.23.23 0 0 0 .152-.093l.03-.06h-.003ZM62.333 11.97a.345.345 0 0 1 .233-.126.367.367 0 0 1 .257.073c.05.042.086.09.11.146.02.056.03.117.02.178a.333.333 0 0 1-.302.289.36.36 0 0 1-.257-.078.34.34 0 0 1-.135-.23.318.318 0 0 1 .074-.251Zm.493.317a.49.49 0 0 1-.148 0l-.117-.056a.314.314 0 0 1-.093-.11.343.343 0 0 1-.018-.129l-.049.05a.224.224 0 0 0-.044.174.237.237 0 0 0 .093.166c.052.04.11.056.18.048a.223.223 0 0 0 .154-.08l.042-.06v-.003ZM63.354 10.796a.33.33 0 0 1 .245-.104c.099-.005.18.029.248.092a.346.346 0 0 1 .103.336.327.327 0 0 1-.321.258.35.35 0 0 1-.248-.098.331.331 0 0 1-.115-.238.311.311 0 0 1 .09-.248l-.002.002Zm.466.358a.486.486 0 0 1-.142-.008l-.113-.068a.305.305 0 0 1-.086-.117.33.33 0 0 1-.007-.133l-.054.043a.216.216 0 0 0-.057.17c.005.069.03.127.081.176a.252.252 0 0 0 .341-.003l.042-.056-.005-.004ZM64.475 9.697a.338.338 0 0 1 .253-.09.333.333 0 0 1 .24.114.331.331 0 0 1 .081.163.348.348 0 0 1-.1.328.312.312 0 0 1-.248.086.365.365 0 0 1-.24-.117.353.353 0 0 1-.099-.248.35.35 0 0 1 .116-.236h-.003Zm.437.396c-.061-.004-.106-.007-.142-.019l-.11-.078a.342.342 0 0 1-.08-.121.29.29 0 0 1 .006-.13l-.054.037a.242.242 0 0 0-.074.166.228.228 0 0 0 .066.177.225.225 0 0 0 .167.078.228.228 0 0 0 .167-.054l.054-.056ZM65.68 8.705a.353.353 0 0 1 .49.066c.043.053.062.11.07.17a.351.351 0 0 1-.13.319.34.34 0 0 1-.258.065.348.348 0 0 1-.228-.139.329.329 0 0 1-.074-.255.315.315 0 0 1 .13-.226Zm.4.426a.697.697 0 0 1-.142-.032l-.103-.09a.306.306 0 0 1-.067-.129.35.35 0 0 1 .013-.129l-.057.032a.218.218 0 0 0-.086.158.259.259 0 0 0 .05.187.227.227 0 0 0 .161.093c.069.007.128-.005.172-.042l.056-.048h.003ZM66.956 7.81a.33.33 0 0 1 .26-.048c.093.019.166.068.22.15a.329.329 0 0 1 .057.175.31.31 0 0 1-.037.175.385.385 0 0 1-.118.134.33.33 0 0 1-.26.049.352.352 0 0 1-.22-.15.339.339 0 0 1-.057-.261.359.359 0 0 1 .155-.224Zm.37.455a.526.526 0 0 1-.14-.044.258.258 0 0 1-.093-.092.34.34 0 0 1-.056-.134.264.264 0 0 1 .024-.129l-.061.03a.246.246 0 0 0-.098.15.26.26 0 0 0 .036.19c.037.056.091.09.155.102a.224.224 0 0 0 .174-.03l.057-.04.002-.003ZM68.308 7.015a.336.336 0 0 1 .265-.024c.094.029.165.085.209.17a.327.327 0 0 1 .041.177.356.356 0 0 1-.181.292.326.326 0 0 1-.26.025.336.336 0 0 1-.204-.17.354.354 0 0 1-.032-.263.309.309 0 0 1 .165-.207h-.003Zm.327.486a.66.66 0 0 1-.135-.056.246.246 0 0 1-.086-.102.308.308 0 0 1-.044-.138c0-.037.012-.08.036-.127l-.061.025a.231.231 0 0 0-.11.14.244.244 0 0 0 .166.307.22.22 0 0 0 .177-.012l.057-.041V7.5ZM69.714 6.334a.316.316 0 0 1 .265-.005c.09.037.154.098.191.188a.338.338 0 0 1-.177.457.316.316 0 0 1-.265.005.336.336 0 0 1-.191-.188.339.339 0 0 1-.012-.267.328.328 0 0 1 .189-.19Zm.29.51a.53.53 0 0 1-.13-.065.235.235 0 0 1-.08-.11.286.286 0 0 1-.031-.14.35.35 0 0 1 .044-.122l-.066.02a.223.223 0 0 0-.123.133.232.232 0 0 0 .005.19c.03.06.073.105.135.129a.223.223 0 0 0 .177 0l.068-.037v.003ZM71.18 5.768a.335.335 0 0 1 .264.017c.086.043.147.11.174.202a.355.355 0 0 1-.066.345.346.346 0 0 1-.589-.124.337.337 0 0 1 .012-.268.335.335 0 0 1 .202-.17l.002-.002Zm.24.53a.53.53 0 0 1-.123-.078.253.253 0 0 1-.069-.114c-.02-.061-.03-.105-.02-.141l.057-.122-.066.012a.22.22 0 0 0-.13.122.254.254 0 0 0-.013.19c.02.06.067.109.128.138.061.03.118.037.174.017l.062-.024ZM72.68 5.32a.322.322 0 0 1 .265.042.346.346 0 0 1 .16.214.29.29 0 0 1-.005.182.343.343 0 0 1-.093.153.296.296 0 0 1-.155.085.308.308 0 0 1-.26-.041.346.346 0 0 1-.16-.214.336.336 0 0 1 .248-.42Zm.196.552a.7.7 0 0 1-.117-.085.353.353 0 0 1-.062-.121.277.277 0 0 1-.007-.146l.066-.115-.066.008a.259.259 0 0 0-.142.11.245.245 0 0 0-.03.189.217.217 0 0 0 .116.146.22.22 0 0 0 .176.029l.069-.017-.003.002ZM74.217 5.002a.336.336 0 0 1 .26.06.347.347 0 0 1 .02.555.284.284 0 0 1-.16.073.328.328 0 0 1-.258-.06.331.331 0 0 1-.137-.227.334.334 0 0 1 .054-.26.295.295 0 0 1 .22-.141Zm.15.564a.825.825 0 0 1-.111-.093.233.233 0 0 1-.049-.126.28.28 0 0 1 .005-.146l.073-.11-.066.006c-.061.007-.11.043-.152.102-.042.056-.054.116-.042.187a.236.236 0 0 0 .103.158c.057.041.11.053.172.044l.067-.02v-.002ZM75.775 4.802c.098-.007.18.02.253.08a.34.34 0 0 1 .123.239.325.325 0 0 1-.032.177.398.398 0 0 1-.115.139.317.317 0 0 1-.167.06.326.326 0 0 1-.248-.08.335.335 0 0 1-.118-.238.359.359 0 0 1 .074-.255.308.308 0 0 1 .233-.122h-.003Zm.1.577c-.043-.042-.08-.073-.1-.105a.345.345 0 0 1-.041-.129c-.005-.06 0-.11.017-.14l.08-.103-.066-.005a.223.223 0 0 0-.159.085.228.228 0 0 0-.056.183.217.217 0 0 0 .085.163c.054.043.106.065.167.055l.074-.004ZM77.34 4.734c.098 0 .18.032.245.102.07.068.101.151.101.248a.345.345 0 0 1-.049.178.334.334 0 0 1-.128.126.333.333 0 0 1-.171.049.322.322 0 0 1-.246-.102.341.341 0 0 1-.098-.248c0-.097.032-.183.093-.248a.343.343 0 0 1 .248-.105h.005Zm.057.584-.094-.11a.251.251 0 0 1-.03-.128c0-.061.008-.11.03-.141l.091-.098-.066-.007a.231.231 0 0 0-.165.073.243.243 0 0 0 0 .348.222.222 0 0 0 .165.068l.069-.005ZM78.903 4.795a.321.321 0 0 1 .236.122c.06.073.09.158.08.255a.312.312 0 0 1-.06.17.343.343 0 0 1-.136.117.307.307 0 0 1-.174.031.312.312 0 0 1-.233-.121.34.34 0 0 1-.079-.255.34.34 0 0 1 .113-.239.314.314 0 0 1 .248-.08h.005Zm.012.584a.436.436 0 0 1-.08-.117.27.27 0 0 1-.018-.134.305.305 0 0 1 .037-.138.323.323 0 0 1 .098-.09l-.066-.013a.238.238 0 0 0-.172.061.248.248 0 0 0-.03.345c.045.054.099.08.155.086h.076ZM80.594 8.564a.638.638 0 0 1 .344 1.053.673.673 0 0 1-.277.182.578.578 0 0 1-.322.02.6.6 0 0 1-.4-.275.625.625 0 0 1-.086-.48.647.647 0 0 1 .265-.408.596.596 0 0 1 .476-.092Zm-.112 1.065c-.062-.092-.101-.17-.123-.236a.503.503 0 0 1 0-.243.53.53 0 0 1 .1-.243.547.547 0 0 1 .202-.139.38.38 0 0 0-.118-.041.395.395 0 0 0-.322.073.432.432 0 0 0-.196.292.416.416 0 0 0 .066.333.402.402 0 0 0 .26.187.615.615 0 0 0 .13.017ZM86.184 10.876a.606.606 0 0 1 .27.409.629.629 0 0 1-.098.481.588.588 0 0 1-.258.22.708.708 0 0 1-.326.065.608.608 0 0 1-.31-.102.582.582 0 0 1-.264-.406.646.646 0 0 1 .1-.48.664.664 0 0 1 .405-.284.61.61 0 0 1 .481.092v.005Zm-.513.949a.995.995 0 0 1-.024-.263.502.502 0 0 1 .093-.23.556.556 0 0 1 .189-.19.634.634 0 0 1 .236-.054.428.428 0 0 0-.42-.136.45.45 0 0 0-.297.2.427.427 0 0 0-.066.335.4.4 0 0 0 .176.274.475.475 0 0 0 .113.066v-.002ZM90.473 15.117a.648.648 0 0 1-.5 1.01.726.726 0 0 1-.332-.062.64.64 0 0 1-.253-.211.586.586 0 0 1-.093-.48.634.634 0 0 1 .282-.408.647.647 0 0 1 .486-.11c.172.02.312.11.412.261h-.002Zm-.844.693a.83.83 0 0 1 .078-.255.517.517 0 0 1 .174-.178.514.514 0 0 1 .248-.104.603.603 0 0 1 .246.041.438.438 0 0 0-.341-.287.448.448 0 0 0-.351.073.436.436 0 0 0-.192.287.405.405 0 0 0 .057.32.71.71 0 0 0 .08.105v-.002ZM92.892 20.892a.626.626 0 0 1-.103.486.63.63 0 0 1-.42.273.612.612 0 0 1-.343-.025.744.744 0 0 1-.282-.187.587.587 0 0 1-.147-.297.603.603 0 0 1 .105-.481.638.638 0 0 1 .42-.267.646.646 0 0 1 .493.09c.147.092.24.23.273.408h.004Zm-1.057.311a.94.94 0 0 1 .177-.206.517.517 0 0 1 .233-.098.632.632 0 0 1 .272 0c.066.02.135.066.209.134.004-.03 0-.068-.008-.126a.406.406 0 0 0-.196-.275.435.435 0 0 0-.356-.068.437.437 0 0 0-.29.194.41.41 0 0 0-.073.321c.007.049.02.093.032.127v-.003ZM92.863 26.986a.617.617 0 0 1-.282.408.667.667 0 0 1-.989-.34.652.652 0 0 1-.025-.329.607.607 0 0 1 .282-.406.684.684 0 0 1 .494-.09c.179.037.321.127.424.268.098.146.13.309.093.486l.003.003Zm-1.097-.115c.093-.06.174-.104.24-.126a.55.55 0 0 1 .253 0 .532.532 0 0 1 .253.104.615.615 0 0 1 .142.202.37.37 0 0 0 .042-.116.407.407 0 0 0-.074-.329.447.447 0 0 0-.301-.2.435.435 0 0 0-.344.069.401.401 0 0 0-.191.267.346.346 0 0 0-.02.127v.002ZM90.444 32.68a.622.622 0 0 1-.417.268.666.666 0 0 1-.491-.102.62.62 0 0 1-.223-.26.722.722 0 0 1-.067-.329.622.622 0 0 1 .518-.574.659.659 0 0 1 .486.105.64.64 0 0 1 .282.408.566.566 0 0 1-.09.482l.002.002Zm-.96-.523c.11-.019.2-.029.27-.024a.542.542 0 0 1 .233.093c.099.065.16.129.192.19.03.06.049.14.054.238a.315.315 0 0 0 .08-.093.387.387 0 0 0 .057-.328.447.447 0 0 0-.201-.3.444.444 0 0 0-.344-.067.417.417 0 0 0-.277.17.686.686 0 0 0-.066.121h.002ZM86.127 36.901a.613.613 0 0 1-.48.09.623.623 0 0 1-.408-.274.589.589 0 0 1-.106-.321.662.662 0 0 1 .067-.324.583.583 0 0 1 .21-.243.606.606 0 0 1 .48-.09.655.655 0 0 1 .404.28c.103.15.135.309.106.479a.593.593 0 0 1-.27.406l-.003-.003Zm-.684-.838c.11.019.191.048.252.077.062.03.118.09.177.175a.488.488 0 0 1 .1.248.537.537 0 0 1-.043.239.334.334 0 0 0 .11-.056.411.411 0 0 0 .18-.28.46.46 0 0 0-.07-.348.43.43 0 0 0-.284-.19.414.414 0 0 0-.322.054c-.037.037-.073.061-.098.086l-.002-.005ZM80.532 39.2a.589.589 0 0 1-.478-.098.626.626 0 0 1-.272-.406.57.57 0 0 1 .024-.333.65.65 0 0 1 .474-.42.614.614 0 0 1 .473.096.653.653 0 0 1 .27.409.615.615 0 0 1-.488.749l-.002.002Zm-.314-1.027c.094.061.16.117.204.166a.498.498 0 0 1 .098.226c.025.114.025.2 0 .262a.54.54 0 0 1-.13.202.421.421 0 0 0 .393-.197.442.442 0 0 0 .066-.345.44.44 0 0 0-.191-.28.395.395 0 0 0-.314-.068.583.583 0 0 0-.123.032l-.003.002ZM74.399 39.209a.588.588 0 0 1-.405-.272.605.605 0 0 1-.093-.48.657.657 0 0 1 .425-.482.629.629 0 0 1 .32-.023.589.589 0 0 1 .4.272.645.645 0 0 1 .091.48.644.644 0 0 1-.26.413.62.62 0 0 1-.478.092Zm.1-1.065c.062.09.103.17.128.231.02.066.024.146.005.248a.482.482 0 0 1-.1.243.547.547 0 0 1-.202.139.29.29 0 0 0 .118.036c.11.02.216-.005.321-.073a.442.442 0 0 0 .197-.296.427.427 0 0 0-.07-.333.42.42 0 0 0-.264-.188c-.05 0-.093-.007-.13-.007h-.003ZM68.723 36.901a.615.615 0 0 1-.273-.406.629.629 0 0 1 .099-.481.617.617 0 0 1 .257-.224.69.69 0 0 1 .327-.068.607.607 0 0 1 .309.102.604.604 0 0 1 .27.406.64.64 0 0 1-.103.48.643.643 0 0 1-.405.284.614.614 0 0 1-.481-.09V36.9Zm.51-.953c.02.11.032.195.03.263a.522.522 0 0 1-.091.23.55.55 0 0 1-.187.19.634.634 0 0 1-.235.054.417.417 0 0 0 .42.134.44.44 0 0 0 .294-.2.427.427 0 0 0 .066-.335.401.401 0 0 0-.174-.273c-.05-.029-.09-.053-.118-.065l-.005.002ZM64.325 32.547a.62.62 0 0 1-.093-.487.617.617 0 0 1 .282-.408.662.662 0 0 1 .905.17c.098.15.13.309.091.481a.66.66 0 0 1-.282.407.625.625 0 0 1-.486.104.582.582 0 0 1-.417-.267Zm.849-.686a.995.995 0 0 1-.079.255.505.505 0 0 1-.176.178.513.513 0 0 1-.248.104.653.653 0 0 1-.246-.044.438.438 0 0 0 .341.287c.128.025.246 0 .356-.068a.43.43 0 0 0 .192-.287.41.41 0 0 0-.054-.32.954.954 0 0 0-.091-.105h.005ZM61.955 26.828a.618.618 0 0 1 .106-.487.654.654 0 0 1 .42-.272.61.61 0 0 1 .343.024c.11.041.204.105.282.187a.587.587 0 0 1 .147.297.603.603 0 0 1-.105.481.644.644 0 0 1-.42.268.668.668 0 0 1-.493-.09.584.584 0 0 1-.277-.409h-.003Zm1.06-.31a1.012 1.012 0 0 1-.174.207.517.517 0 0 1-.233.098.63.63 0 0 1-.272 0 .555.555 0 0 1-.21-.134.416.416 0 0 0 .204.401.46.46 0 0 0 .356.073.431.431 0 0 0 .29-.19.414.414 0 0 0 .078-.32.994.994 0 0 0-.036-.134h-.003ZM62.012 20.656a.612.612 0 0 1 .284-.408.645.645 0 0 1 .493-.09c.118.024.221.077.307.153.086.08.147.175.184.28a.6.6 0 0 1 .02.328.587.587 0 0 1-.285.401.663.663 0 0 1-.493.085.654.654 0 0 1-.42-.272.61.61 0 0 1-.09-.48v.003Zm1.096.122c-.093.06-.176.102-.24.126a.547.547 0 0 1-.253 0 .613.613 0 0 1-.253-.104.574.574 0 0 1-.14-.202.371.371 0 0 0-.041.117c-.025.109 0 .223.074.328.068.11.171.175.301.202a.443.443 0 0 0 .344-.066.402.402 0 0 0 .191-.267c.008-.056.017-.103.017-.134ZM64.377 15.117a.632.632 0 0 1 .417-.272.64.64 0 0 1 .49.102.619.619 0 0 1 .224.26c.049.105.069.214.066.328a.607.607 0 0 1-.105.312.595.595 0 0 1-.413.262.661.661 0 0 1-.485-.104.656.656 0 0 1-.285-.409.58.58 0 0 1 .093-.479h-.002Zm.96.518c-.111.02-.202.03-.27.024a.513.513 0 0 1-.234-.092.516.516 0 0 1-.191-.19.623.623 0 0 1-.054-.238.319.319 0 0 0-.081.092.406.406 0 0 0-.057.329c.025.126.091.226.2.299a.435.435 0 0 0 .343.065.405.405 0 0 0 .277-.175.48.48 0 0 0 .066-.114ZM77.495 10.322h-.175v1.564h.177l-.002-1.564ZM78.508 8.603l-.174-.012-.216 3.331a.64.64 0 0 1 .172.078l.22-3.397h-.002ZM70.604 18.8l.106-.14-.454-.345c.042.102.08.206.123.316l.223.17h.002ZM66.647 15.57l-.106.14.947.718c.197.029.297.041.351.043l-1.192-.904v.002ZM71.326 17.952c.042-.041.081-.085.128-.126l-3.62-3.587-.127.127 3.62 3.586ZM79.446 14.183l.672-3.375-.176-.031-.624 3.132.032.068c.032.06.067.133.094.206h.002ZM78.938 13.028l.339-2.582-.174-.024-.302 2.285c.012.03.02.054.032.08.037.078.073.159.105.239v.002ZM80.243 15.883l2.208-6.48-.167-.056-2.154 6.327c.032.068.061.134.09.2l.025.011-.002-.002ZM80.766 16.073l1.95-4.688-.164-.069-1.95 4.698c.049.02.105.037.164.061v-.002ZM79.868 15.112l1.156-4.309-.172-.043-1.102 4.102c.007.02.017.041.025.056.036.068.066.129.093.194ZM66.93 19.477l-2.085-.856-.069.163 2.29.94c-.037-.065-.074-.138-.11-.198a.13.13 0 0 0-.025-.05ZM66.217 31.221l.099.146 1.28-.85c.074-.117.148-.237.224-.36l-1.605 1.064h.002ZM64.24 26.4l.036.175 4.802-.954c-.012-.055-.02-.116-.032-.175l-4.807.953ZM81.272 16.316l3.04-6.135-.16-.078-3.04 6.14c.05.02.106.044.16.073ZM64.277 27.48l4.942-1.321c-.018-.056-.03-.114-.045-.17l-4.942 1.32.045.17ZM64.794 28.992l.069.162 4.468-1.843c.037-.077.074-.158.115-.238l-4.652 1.921v-.002ZM64.271 21.196l-.037.173 3.968.778-.09-.195-3.84-.756ZM64.267 20.296l-.044.17 3.66.973-.093-.206-3.523-.937ZM63.908 22.035l-.02.172 4.577.591-.071-.184-4.486-.58ZM63.89 25.573l.025.175 5.077-.669c-.007-.056-.02-.117-.03-.175l-5.071.669ZM63.786 23.8v.175l5.116-.007v-.032l-.054-.14-5.065.007.003-.003ZM88.552 31.345l.098-.145-1.641-1.087c.073.126.147.243.22.357l1.323.875ZM84.128 18.64c.037.044.069.093.105.141l.253-.19c.042-.104.086-.213.123-.315l-.481.364ZM87.302 16.437l.987-.753-.11-.139-1.225.936h.008c.012-.007.085-.007.338-.044h.002ZM83.511 17.938l3.612-3.594-.127-.127-3.612 3.6c.044.04.086.08.127.12ZM87.796 19.686l2.26-.931-.069-.163-2.044.844c-.02.031-.042.055-.056.09-.03.048-.062.104-.091.162v-.002ZM81.6 16.49c.055.03.104.062.153.093l2.554-4.406-.154-.09-2.55 4.401-.002.003ZM92.812 22.947l-.012-.175-6.567.43-.066.182 6.645-.437ZM90.61 21.344l-.031-.175-3.83.764-.089.2 3.95-.789ZM90.623 20.433l-.049-.17-3.501.935-.089.207 3.64-.973ZM90.961 22.176 90.937 22l-4.469.588-.074.185 4.567-.598ZM85.809 25.43c-.013.055-.017.116-.03.174l4.802.944.032-.175-4.807-.944h.003ZM92.043 19.022l-.056-.165-4.554 1.539a8.511 8.511 0 0 1-.101.219l4.714-1.593h-.003ZM86.037 16.474l3.023-2.638-.118-.134-3.2 2.791c.054-.007.103-.024.155-.024h.14v.005ZM83.767 18.22c.042.044.081.085.118.129l1.035-.905c.045-.121.091-.238.13-.348l-1.285 1.124h.002ZM82.68 17.203l3.108-4.036-.142-.105-3.109 4.037c.044.036.093.068.142.104ZM71.615 33.716l-1.072 1.853.155.09 1.033-1.78a.837.837 0 0 1-.113-.163h-.003ZM91.28 17.172l-.078-.158-1.269.625a.759.759 0 0 1-.127.26l1.472-.725.002-.002ZM83.107 17.563l4.537-5.147-.135-.117-4.534 5.143.13.121h.002ZM90.002 29.12l.067-.163-4.677-1.916c.036.078.073.159.112.236l4.498 1.843ZM85.642 26.14l4.945 1.308.044-.17-4.947-1.309c-.017.056-.03.114-.044.17h.002ZM82.234 16.875l2.719-4.049-.148-.097-2.721 4.054c.05.029.1.056.15.092ZM90.967 25.534l-5.072-.657c-.008.061-.02.117-.03.175l5.077.657.025-.175ZM85.956 23.951l5.114-.007v-.175l-5.053.007-.06.165v.01ZM72.543 9.352l-.167.056 2.22 6.475c.013-.005.03-.007.042-.017.025-.056.054-.114.081-.178L72.545 9.35l-.002.003ZM78.358 39.148l.175-.012-.351-5.218a.813.813 0 0 1-.197-.285l.37 5.515h.003ZM78.088 32.415l-.007-.104c-.056.005-.118.005-.177.007l.02.333a.83.83 0 0 1 .162-.236h.002ZM78.815 34.154h-.017c-.03 0-.057-.008-.086-.012l.424 3.168.177-.024-.42-3.14-.053.005-.025.005v-.002ZM79.969 36.967l.177-.036-.585-2.894a2.646 2.646 0 0 0-.176.03l.584 2.9ZM77.426 32.342c-.024 0-.054-.005-.078-.005l.007 5.077h.177l-.008-5.081a.675.675 0 0 1-.098.007v.002ZM80.886 36.974l.172-.043-.808-2.984a5.828 5.828 0 0 0-.179.02l.817 3.005-.002.002ZM76.076 34.154h-.03l-.029-.005-.031-.005-.413 3.144.177.024.417-3.173c-.005 0-.012.005-.017.005l-.074.007v.003ZM76.94 32.675l.025-.357c-.061-.005-.118-.005-.176-.007l-.008.116a.933.933 0 0 1 .16.248ZM76.342 39.139l.177.012.363-5.586a.84.84 0 0 1-.2.329l-.338 5.245h-.002ZM73.83 36.938l.17.044.808-3.01a4.717 4.717 0 0 0-.179-.018l-.8 2.984ZM72.4 38.341l.167.056 1.522-4.467c-.062.005-.126.007-.192.017L72.4 38.34v.002ZM76.494 8.596l-.177.012.229 3.404a.728.728 0 0 1 .171-.078l-.223-3.338ZM82.307 38.39l.166-.056-1.501-4.38a4.123 4.123 0 0 1-.192-.019l1.527 4.457v-.002ZM83.08 32.31a.818.818 0 0 1 .199.203c.012-.02.032-.03.049-.044l-.253-.372c-.005.1 0 .175.005.214ZM84.824 35.005l.147-.097-.535-.796c-.066.008-.127.02-.19.03l.578.863ZM89.205 30.706l.09-.153-3.003-1.715c.054.102.105.2.16.297l2.753 1.573v-.002ZM88.878 33.945l.09.078.118-.134-.085-.073c-.025.031-.05.068-.079.097-.017.012-.032.02-.044.032ZM85.922 28.121l5.293 2.585.078-.158-5.504-2.692c.044.092.09.178.135.263l-.002.002ZM85.936 24.33c-.005.056-.005.117-.007.175l6.87.443.013-.175-6.876-.443ZM85.475 26.67l6.524 2.193.057-.166-6.52-2.193c-.02.056-.044.11-.061.165ZM82.462 34.154h-.018l1.73 3.477.16-.078-1.7-3.419c-.055.008-.104.02-.155.02h-.017ZM82.581 36.415l.162-.068-.96-2.293a3.127 3.127 0 0 0-.208-.032l1.004 2.396.002-.003ZM83.144 33.86l1.04 1.782.155-.09-1.085-1.865a.969.969 0 0 1-.11.17v.003ZM86.196 33.92l1.335 1.513.135-.117-1.23-1.388a.65.65 0 0 1-.152-.017c-.032.005-.061.007-.09.012l.002-.003ZM72.139 36.364l.164.068 1.004-2.414c-.067.007-.135.02-.204.029l-.962 2.317h-.002ZM85.674 34.664l.14-.109-.442-.571c-.067.007-.135.017-.204.024l.505.656ZM83.45 31.581a1.506 1.506 0 0 0-.032-.121l-.179-.231c-.02.077-.042.15-.056.219l.326.42a3.85 3.85 0 0 0-.056-.287h-.003ZM74.73 36.938l.176.032.58-2.896c-.057-.008-.118-.02-.177-.03l-.58 2.894ZM72.303 17.111l-3.121-4.03-.14.11 3.121 4.03c.042-.042.091-.074.14-.11ZM72.754 16.785l-2.726-4.044-.147.098 2.726 4.043c.05-.031.098-.065.147-.097ZM70.951 18.363c.037-.044.081-.085.118-.131l-1.261-1.1.13.348 1.01.88.003.003ZM69.07 16.493l-3.182-2.767-.118.134 3.011 2.619h.167c.044-.005.086.007.123.017v-.003ZM73.228 16.498l-2.562-4.396-.154.09 2.566 4.401c.054-.03.103-.06.153-.092l-.003-.003ZM71.865 17.454l-4.546-5.138-.135.117 4.547 5.137c.049-.04.09-.08.135-.116ZM73.73 16.248l-3.052-6.133-.16.078 3.053 6.133c.05-.03.106-.054.16-.078ZM76.027 12.76l-.314-2.333-.174.024.351 2.626c.042-.097.086-.2.128-.287.004-.007.007-.017.012-.03h-.003ZM75.517 13.933l-.636-3.156-.174.031.685 3.4c.037-.08.073-.163.105-.239l.02-.036ZM72.241 34.14l-1.698 3.428.16.078 1.73-3.49-.062.005c-.044-.005-.086-.012-.13-.02v-.002ZM75.086 14.893l-1.12-4.126-.171.044 1.175 4.333c.032-.073.067-.146.103-.226l.013-.025ZM74.236 16.02l-1.963-4.689-.165.068 1.963 4.686c.05-.024.106-.044.165-.066ZM65.876 33.835l-.086.073.118.134.093-.08c-.02-.017-.044-.032-.061-.049-.03-.024-.044-.053-.066-.078h.002ZM68.453 33.92l-1.244 1.41.135.117 1.342-1.522c-.042-.005-.078-.007-.118-.017-.036.008-.078.008-.115.012ZM71.571 32.517a.87.87 0 0 1 .199-.202c.005-.036.007-.102.005-.187l-.24.358c.011.007.029.017.036.031ZM70.44 34.117l-.537.803.148.097.584-.87h-.02c-.061-.013-.115-.02-.172-.03h-.002ZM65.577 30.584l.09.154 2.715-1.562c.054-.097.105-.194.16-.296l-2.962 1.702-.003.002ZM69.066 34.577l.142.105.513-.67-.204-.023-.453.588h.002ZM71.338 31.917l.343-.443c-.017-.068-.031-.14-.054-.219l-.203.268c-.005.02-.013.041-.017.056a2.466 2.466 0 0 0-.07.335v.003ZM68.919 24.345l-6.876.455.012.175 6.87-.455c-.004-.056-.004-.114-.006-.175ZM62.855 18.881l-.056.166 4.726 1.587a9.363 9.363 0 0 0-.098-.218l-4.57-1.537-.002.002ZM62.053 22.796l-.01.178 6.652.425-.07-.182-6.572-.421ZM63.57 30.577l.078.158 5.268-2.585c.044-.085.086-.17.13-.262l-5.477 2.691v-.002ZM69.324 26.519l-6.517 2.205.056.166 6.52-2.206c-.017-.056-.042-.114-.061-.165h.002ZM63.638 17.038l-.078.158 1.526.746a.85.85 0 0 1-.152-.272l-1.298-.632h.002ZM65.891 18.334c-.032-.017-.074-.041-.103-.049l.103.049ZM78.843 24.62c.46-.54.927-.84 1.398-.888l.074-.348h-.272c-.246 0-.587.042-1.029.117-.461.078-.763.117-.898.117l.503 1.284.224-.285v.003Z"/><path d="M66.98 17.191a6.34 6.34 0 0 0-1.028-.116h-.272l.073.347c.474.054.938.348 1.399.888.461.542.893 1.308 1.305 2.298l.658 1.466 1.625 4.262.355.932.16.418.272.722.093.231c.491 1.21.8 2.128.93 2.748.192.887.106 1.417-.252 1.585l.073.348h.01c.64-.122 1.2-.195 1.68-.224l-6.259-15.793c-.16-.012-.424-.049-.82-.114l-.002.002ZM76.342 25.461c-.086.219-.177.445-.27.686a64.652 64.652 0 0 0-.768 1.952c-.03.066-.056.134-.086.207-.061.146-.127.284-.189.42-.284.638-.56 1.209-.82 1.71a42.252 42.252 0 0 1-1.545-3.412l-.13-.347-.363-.966-.16-.418-.35-.931-.813-2.164a6.769 6.769 0 0 0-.155-.406c-.068-.207-.326-.856-.768-1.953a86.317 86.317 0 0 1-.974-2.534h-.684l5.95 15.008 2.486-6.152c-.098-.211-.351-.73-.358-.7h-.003ZM74.366 33.096c.474.03 1.023.102 1.654.219l.032.007h.005l.073-.348c-.358-.165-.444-.697-.252-1.585.13-.603.43-1.495.898-2.662.042-.103.08-.202.127-.312l.393-.916-.35-.771-2.575 6.366-.005.002Z"/><path d="m71.434 29.06-.334-.863-2.277 4.9c.555.028 1.2.104 1.939.225l.086-.348c-.413-.165-.506-.697-.29-1.585.135-.547.425-1.32.879-2.33h-.003ZM70.549 26.76l-.123.262c-1.531 3.275-2.793 5.257-3.786 5.953l-.086.347c.792-.146 1.371-.219 1.754-.226l2.56-5.503-.32-.834ZM72.395 25.41l.332.858 4.073-8.77.628-1.233.629 1.233 4.26 9.179.343.736.167.358.302.644c.036.078.073.154.105.231.56 1.211.915 2.128 1.065 2.748.216.888.118 1.418-.29 1.585l.086.348c.744-.121 1.387-.2 1.939-.226L77.428 14.58l-5.03 10.827-.002.003Z"/><path d="m84.43 27.022-.314-.676-.393-.839-.167-.357-.368-.79-3.146-6.748a5.787 5.787 0 0 0-.179-.406c-.08-.207-.37-.856-.878-1.953-.155-.335-.297-.656-.43-.953-.196-.438-.37-.834-.522-1.191-.057-.134-.11-.263-.165-.385h-.881c-.053.122-.105.25-.164.385A94.83 94.83 0 0 1 76.3 14.3l-.43.953a64.94 64.94 0 0 0-.877 1.953c-.057.117-.118.25-.18.406l-2.966 6.366.319.826 5.2-11.18.066.017.066-.017 9.035 19.44.017.032c.383.007.962.085 1.755.226l-.086-.348c-1.002-.697-2.265-2.68-3.792-5.952h.003Z"/><path d="m83.075 29.035-.37-.795-1.927 4.856c.479.03 1.036.102 1.676.224l.02.005h.005l.073-.348c-.358-.165-.444-.698-.252-1.585.118-.552.375-1.338.775-2.354v-.003ZM75.837 23.501a6.34 6.34 0 0 0-1.029-.117h-.272l.074.348c.473.054.937.348 1.398.888.148.175.29.37.432.583.143.224.285.47.43.742l.167.345c.093.2.188.409.277.628l.11.262.525 1.233.126.311c.468 1.172.77 2.06.898 2.663.189.887.105 1.417-.253 1.585l.073.348h.005l.02-.005a13.357 13.357 0 0 1 1.669-.224l-3.83-9.488a7.552 7.552 0 0 1-.82-.104v.002ZM82.16 27.078c-.548 1.337-1.053 2.456-1.522 3.355a34.426 34.426 0 0 1-.82-1.709 47.964 47.964 0 0 0-.189-.42c-.029-.073-.056-.146-.086-.207-.068-.207-.326-.856-.768-1.953-.13-.333-.257-.644-.37-.94a113.06 113.06 0 0 1-.456-1.187l-.148-.397.005-.007H77.114l3.51 8.688 1.822-4.6-.284-.62-.003-.003ZM88.898 17.077c-.245 0-.586.041-1.028.117-.4.068-.67.102-.824.114l-3.134 7.89.351.75 1.472-3.872.658-1.466c.407-.992.844-1.758 1.305-2.298.462-.542.93-.839 1.399-.887l.074-.348h-.273ZM86.577 17.308h-.672c-.246.669-.572 1.515-.975 2.534a65.048 65.048 0 0 0-.768 1.952c-.049.117-.1.25-.154.406l-.665 1.768.326.698 2.91-7.356-.002-.002Z"/></g><defs><clipPath id="clip0_631_14551"><path fill="#fff" transform="translate(27)" d="M0 0h100.847v70H0z"/></clipPath></defs></svg>