<svg width="40" height="38" fill="none" xmlns="http://www.w3.org/2000/svg"><path d="M.75 37.25c0-8.101.019-14.164.594-18.895.59-4.857 1.757-8.21 4.018-10.857a19.25 19.25 0 0 1 2.136-2.136c2.648-2.261 6-3.428 10.857-4.018C23.231.75 29.522.75 38 .75h1.25c0 8.101-.019 14.164-.593 18.895-.59 4.858-1.758 8.21-4.02 10.857a19.248 19.248 0 0 1-2.135 2.136c-2.648 2.261-6 3.428-10.857 4.019-4.876.592-11.167.593-19.645.593H.75Z" fill="url('#paint0_linear_1732_16900')"/><path d="M29 10.76 11.76 28l-.76-.76L28.24 10l.76.76Z" fill="#fff"/><path d="M11 10.76 28.24 28l.76-.76L11.76 10l-.76.76Z" fill="#fff"/><path d="M.75 37.25c0-8.101.019-14.164.594-18.895.59-4.857 1.757-8.21 4.018-10.857a19.25 19.25 0 0 1 2.136-2.136c2.648-2.261 6-3.428 10.857-4.018C23.231.75 29.522.75 38 .75h1.25c0 8.101-.019 14.164-.593 18.895-.59 4.858-1.758 8.21-4.02 10.857a19.248 19.248 0 0 1-2.135 2.136c-2.648 2.261-6 3.428-10.857 4.019-4.876.592-11.167.593-19.645.593H.75Z" stroke="url('#paint1_linear_1732_16900')" stroke-width="1.5"/><defs><linearGradient id="paint0_linear_1732_16900" x1="-2.667" y1="3.866" x2="30.634" y2="45.493" gradientUnits="userSpaceOnUse"><stop stop-color="#D61544"/><stop offset="1" stop-color="#F07E3D"/></linearGradient><linearGradient id="paint1_linear_1732_16900" x1="-2.667" y1="3.866" x2="30.634" y2="45.493" gradientUnits="userSpaceOnUse"><stop stop-color="#D61544"/><stop offset="1" stop-color="#F07E3D"/></linearGradient></defs></svg>