<svg width="25" height="24" fill="none" xmlns="http://www.w3.org/2000/svg"><path d="M13.25 12a.75.75 0 0 0-1.5 0h1.5Zm-1.5 4a.75.75 0 0 0 1.5 0h-1.5Zm3-10a.75.75 0 0 0 1.5 0h-1.5Zm-6 0a.75.75 0 0 0 1.5 0h-1.5Zm4.5 8v-2h-1.5v2h1.5Zm-1.5 0v2h1.5v-2h-1.5Zm6.75 5.25h-12v1.5h12v-1.5Zm-12 0c-.69 0-1.25-.56-1.25-1.25h-1.5a2.75 2.75 0 0 0 2.75 2.75v-1.5ZM19.75 18c0 .69-.56 1.25-1.25 1.25v1.5A2.75 2.75 0 0 0 21.25 18h-1.5Zm1.5 0v-6h-1.5v6h1.5Zm-17.5-6v6h1.5v-6h-1.5ZM6.5 6.75h12v-1.5h-12v1.5Zm0 6.5c-.69 0-1.25-.56-1.25-1.25h-1.5a2.75 2.75 0 0 0 2.75 2.75v-1.5ZM19.75 12c0 .69-.56 1.25-1.25 1.25v1.5A2.75 2.75 0 0 0 21.25 12h-1.5ZM18.5 6.75c.69 0 1.25.56 1.25 1.25h1.5a2.75 2.75 0 0 0-2.75-2.75v1.5Zm-12-1.5A2.75 2.75 0 0 0 3.75 8h1.5c0-.69.56-1.25 1.25-1.25v-1.5Zm12 8h-6v1.5h6v-1.5Zm-6 0h-6v1.5h6v-1.5ZM21.25 12V8h-1.5v4h1.5ZM3.75 8v4h1.5V8h-1.5Zm12.5-2V5h-1.5v1h1.5ZM13.5 2.25h-2v1.5h2v-1.5ZM8.75 5v1h1.5V5h-1.5Zm2.75-2.75A2.75 2.75 0 0 0 8.75 5h1.5c0-.69.56-1.25 1.25-1.25v-1.5ZM16.25 5a2.75 2.75 0 0 0-2.75-2.75v1.5c.69 0 1.25.56 1.25 1.25h1.5Z" fill="#fff"/></svg>