<svg width="24" height="24" fill="none" xmlns="http://www.w3.org/2000/svg"><path d="M7 8.125a.75.75 0 0 0 0 1.5v-1.5Zm8.75 1.5a.75.75 0 0 0 0-1.5v1.5ZM7 13.125a.75.75 0 0 0 0 1.5v-1.5Zm6.25 1.5a.75.75 0 0 0 0-1.5v1.5Zm2.875 6.25.237-.712a.75.75 0 0 0-.683.11l.446.602Zm7.125 2.375-.237.712a.75.75 0 0 0 .948-.95l-.711.238Zm-2.375-7.125-.617-.427a.75.75 0 0 0-.095.664l.712-.237ZM7 9.625h8.75v-1.5H7v1.5Zm0 5h6.25v-1.5H7v1.5Zm8.888 6.962 7.125 2.375.474-1.424-7.125-2.375-.474 1.424Zm8.074 1.426-2.375-7.125-1.424.474 2.375 7.125 1.424-.474ZM11.375 21.25c-5.454 0-9.875-4.421-9.875-9.875H0C0 17.657 5.093 22.75 11.375 22.75v-1.5ZM1.5 11.375C1.5 5.921 5.921 1.5 11.375 1.5V0C5.093 0 0 5.093 0 11.375h1.5ZM11.375 1.5c5.454 0 9.875 4.421 9.875 9.875h1.5C22.75 5.093 17.657 0 11.375 0v1.5Zm4.75 19.375-.446-.603.002-.001.001-.001.002-.002-.003.003a2.893 2.893 0 0 1-.203.122 5.45 5.45 0 0 1-.77.339c-.705.253-1.807.518-3.333.518v1.5c1.704 0 2.977-.297 3.84-.607.43-.154.757-.311.982-.434a4.333 4.333 0 0 0 .372-.23h.001c.001-.001.001-.001-.445-.604Zm5.125-9.5c0 1.47-.265 2.574-.52 3.297-.128.362-.253.63-.343.802a3.455 3.455 0 0 1-.104.185l-.024.038-.003.005.001-.002.001-.001.617.426a82.112 82.112 0 0 0 .617.426l.001-.002.003-.003.005-.008a1.505 1.505 0 0 0 .063-.099c.039-.064.09-.153.151-.268.121-.231.276-.565.43-1 .307-.87.605-2.142.605-3.796h-1.5Z" fill="#fff"/></svg>