<svg width="27" height="43" fill="none" xmlns="http://www.w3.org/2000/svg"><path d="m19.083 32.385-.002.147h-2.307a10.336 10.336 0 0 0 .006-.337c.002-.766-.175-1.51-.196-1.8-.605-4.422-3.492-6.315-3.553-6.355-.2.172-3.027 2.468-3.564 6.414-.02.29-.183 1.04-.193 1.806a4.92 4.92 0 0 0 0 .272H6.973l-.003-.147c0-3.89 1.652-6.65 3.23-8.401h-.045c1.35-2.844 1.593-6.026 1.454-9.185-.133-3.018-.232-6.913-.346-9.933-.062-1.65.333-3.176 1.451-4.508.068-.081.28-.284.337-.32 0 0 .269.242.336.322 1.118 1.333 1.514 2.86 1.452 4.509-.114 3.02-.213 6.914-.346 9.933-.138 3.143.007 6.36 1.396 9.164 1.567 1.73 3.194 4.475 3.194 8.418Z" fill="url('#paint0_linear_714_16420')"/><path d="M0 4.342c.066.01.112.007.15.024.105.049.21.1.309.16a13.37 13.37 0 0 1 3.515 3.112c1.982 2.497 2.948 5.367 3.199 8.523.133 1.682.378 3.354.566 5.032.096.848.178 1.697.266 2.553-.832-.137-1.478.168-2.032.672-.758.69-.884 1.807-.235 2.602.296.364.746.623 1.166.867.016.01.031.018.047.026a12.682 12.682 0 0 0-.554 2.122l-.132-.047c-1.76-.618-2.844-1.816-3.11-3.685-.226-1.592.65-3.28 2.142-4.135.254-.145.335-.282.299-.575-.23-1.863-.472-3.726-.641-5.596-.157-1.73-.64-3.332-1.397-4.906-.352-.734-1.354-2.197-1.354-2.197v24.52h8.845v1.974H9.567a8.564 8.564 0 0 0 2.357 4.376v-6.711c-.125-.525-.52-1.226-1.7-1.58-.059-.017-.118-.037-.178-.058.039-.314.081-.572.09-.71.057-.462.141-.893.244-1.296.205.065.375.121.496.165.743.269 1.899 1.24 2.147 1.44.247-.2 1.403-1.171 2.146-1.44.121-.044.291-.1.496-.165.103.403.187.834.244 1.295.009.139.051.397.09.71-.06.021-.12.042-.179.06-1.157.346-1.559 1.028-1.692 1.55v6.714a8.786 8.786 0 0 0 2.352-4.35H14.99v-1.973h8.86V8.894s-1.002 1.463-1.355 2.197c-.756 1.574-1.24 3.175-1.396 4.906-.17 1.87-.412 3.732-.641 5.596-.036.293.045.43.3.575 1.49.855 2.366 2.543 2.14 4.134-.265 1.87-1.349 3.068-3.109 3.686l-.126.045a12.831 12.831 0 0 0-.54-2.13l.026-.016c.42-.244.87-.503 1.167-.867.649-.795.523-1.913-.235-2.602-.554-.505-1.2-.81-2.033-.672.089-.856.17-1.705.266-2.553.189-1.678.433-3.35.567-5.032.25-3.156 1.216-6.026 3.2-8.523a13.37 13.37 0 0 1 3.514-3.112c.099-.06.204-.111.31-.16.036-.017.082-.014.149-.024V35.39H18.85c-1.107 5.221-5.825 7.574-5.825 7.574s-4.741-2.25-5.833-7.575H0V4.343Z" fill="url('#paint1_linear_714_16420')"/><defs><linearGradient id="paint0_linear_714_16420" x1="19.89" y1="3.344" x2="-1.716" y2="12.908" gradientUnits="userSpaceOnUse"><stop offset=".05" stop-color="#F07E3D"/><stop offset="1" stop-color="#D61544"/></linearGradient><linearGradient id="paint1_linear_714_16420" x1="27.79" y1="8.272" x2="-6.065" y2="35.392" gradientUnits="userSpaceOnUse"><stop offset=".05" stop-color="#F07E3D"/><stop offset="1" stop-color="#D61544"/></linearGradient></defs></svg>