<svg width="40" height="40" fill="none" xmlns="http://www.w3.org/2000/svg"><rect width="40" height="40" rx="15" fill="url('#paint0_linear_603_14384')"/><path d="M24.623 11.004 22.225 11c-2.695 0-4.436 1.739-4.436 4.43v2.042h-2.412a.372.372 0 0 0-.377.367v2.96c0 .203.169.367.377.367h2.412v7.467c0 .203.168.367.377.367h3.146a.372.372 0 0 0 .378-.367v-7.467h2.82a.372.372 0 0 0 .377-.367v-2.96c0-.097-.04-.19-.11-.26a.383.383 0 0 0-.267-.107h-2.82v-1.731c0-.832.203-1.255 1.317-1.255h1.616a.372.372 0 0 0 .377-.367V11.37a.372.372 0 0 0-.377-.367Z" fill="#fff"/><defs><linearGradient id="paint0_linear_603_14384" x1="-2.667" y1="4.07" x2="32.739" y2="46.114" gradientUnits="userSpaceOnUse"><stop stop-color="#D61544"/><stop offset="1" stop-color="#F07E3D"/></linearGradient></defs></svg>