<svg width="154" height="70" fill="none" xmlns="http://www.w3.org/2000/svg"><path fill-rule="evenodd" clip-rule="evenodd" d="M13 41.087v-.08c0-7.92 6.153-14.628 14.811-14.628 4.308 0 7.18 1.01 9.806 2.868a2.506 2.506 0 0 1 1.026 2.02c0 1.335-1.107 2.467-2.503 2.467-.657 0-1.149-.284-1.56-.567-1.845-1.333-3.856-2.223-6.974-2.223-5.292 0-9.313 4.567-9.313 9.981v.082c0 5.819 3.897 10.102 9.765 10.102 2.707 0 5.169-.848 6.933-2.142v-5.293H29.33c-1.231 0-2.256-.929-2.256-2.14 0-1.214 1.025-2.184 2.256-2.184h8.001c1.435 0 2.544 1.092 2.544 2.507v7.555c0 1.414-.575 2.425-1.764 3.152-2.462 1.617-5.909 3.071-10.216 3.071C18.908 55.635 13 49.332 13 41.087Zm31.398-13.213c0-1.334 1.067-2.425 2.46-2.425 1.397 0 2.504 1.091 2.504 2.425v25.054c0 1.374-1.108 2.424-2.503 2.424-1.353 0-2.46-1.05-2.46-2.425V27.873Zm8.81 16.73v-.083c0-6.101 4.922-11.152 11.57-11.152 6.645 0 11.528 4.97 11.528 11.073v.08c0 6.062-4.923 11.113-11.611 11.113-6.606 0-11.487-4.97-11.487-11.032Zm18.134 0v-.083c0-3.757-2.75-6.868-6.647-6.868-3.98 0-6.524 3.071-6.524 6.789v.08c0 3.718 2.75 6.83 6.606 6.83 4.02 0 6.564-3.072 6.564-6.748h.001Zm17.359 10.95h-.246c-1.353 0-2.257-.848-2.83-2.143l-7.22-16.284c-.124-.364-.288-.766-.288-1.212 0-1.212 1.107-2.344 2.46-2.344 1.354 0 2.051.768 2.462 1.779l5.58 14.142 5.662-14.223c.37-.849 1.025-1.698 2.339-1.698 1.353 0 2.42 1.01 2.42 2.344 0 .446-.164.93-.286 1.171l-7.221 16.326c-.577 1.252-1.477 2.143-2.832 2.143v-.001Zm12.149-10.95v-.083c0-6.101 4.923-11.152 11.572-11.152 6.644 0 11.528 4.97 11.528 11.073v.08c0 6.062-4.924 11.113-11.612 11.113-6.605 0-11.488-4.97-11.488-11.032Zm18.136 0v-.083c0-3.757-2.75-6.868-6.648-6.868-3.979 0-6.523 3.071-6.523 6.789v.08c0 3.718 2.748 6.83 6.606 6.83 4.02 0 6.564-3.072 6.564-6.748h.001Z" fill="#00A082"/><path fill-rule="evenodd" clip-rule="evenodd" d="M132.252 14c-5.375 0-9.748 4.309-9.748 9.602 0 2.016.636 3.953 1.838 5.598l.26.355 5.074 7.054s.62.997 1.97.997h1.212c1.352 0 1.969-.997 1.969-.997l5.076-7.055.257-.354a9.438 9.438 0 0 0 1.84-5.598c0-5.293-4.373-9.602-9.748-9.602Zm4.012 12.437-.27.372-3.741 5.201-3.736-5.19-.274-.377a4.789 4.789 0 0 1-.939-2.841c0-2.687 2.22-4.874 4.947-4.874 2.729 0 4.948 2.187 4.948 4.874a4.78 4.78 0 0 1-.935 2.835Zm-6.754 15.5v-.019c0-1.434 1.156-2.623 2.718-2.623 1.564 0 2.711 1.169 2.711 2.604v.019c0 1.424-1.158 2.611-2.729 2.611-1.551 0-2.701-1.167-2.701-2.592h.001Z" fill="#F2CC38"/></svg>