<svg width="40" height="40" fill="none" xmlns="http://www.w3.org/2000/svg"><rect width="40" height="40" rx="15" fill="url('#paint0_linear_603_14389')"/><path d="M23.375 11h-6.75A5.626 5.626 0 0 0 11 16.625v6.75A5.626 5.626 0 0 0 16.625 29h6.75A5.626 5.626 0 0 0 29 23.375v-6.75A5.626 5.626 0 0 0 23.375 11Zm3.938 12.375a3.942 3.942 0 0 1-3.938 3.938h-6.75a3.942 3.942 0 0 1-3.938-3.938v-6.75a3.942 3.942 0 0 1 3.938-3.938h6.75a3.942 3.942 0 0 1 3.938 3.938v6.75Z" fill="#fff"/><path d="M20 15.5a4.5 4.5 0 1 0 0 9 4.5 4.5 0 0 0 0-9Zm0 7.313A2.816 2.816 0 0 1 17.187 20 2.816 2.816 0 0 1 20 17.187 2.816 2.816 0 0 1 22.813 20 2.816 2.816 0 0 1 20 22.813ZM24.836 15.762a.6.6 0 1 0 0-1.199.6.6 0 0 0 0 1.2Z" fill="#fff"/><defs><linearGradient id="paint0_linear_603_14389" x1="-2.667" y1="4.07" x2="32.739" y2="46.114" gradientUnits="userSpaceOnUse"><stop stop-color="#D61544"/><stop offset="1" stop-color="#F07E3D"/></linearGradient></defs></svg>