<svg width="18" height="21" fill="none" xmlns="http://www.w3.org/2000/svg"><path d="m9 19.5-.31.683a.75.75 0 0 0 .62 0L9 19.5Zm2.25-10A2.25 2.25 0 0 1 9 11.75v1.5a3.75 3.75 0 0 0 3.75-3.75h-1.5ZM9 11.75A2.25 2.25 0 0 1 6.75 9.5h-1.5A3.75 3.75 0 0 0 9 13.25v-1.5ZM6.75 9.5A2.25 2.25 0 0 1 9 7.25v-1.5A3.75 3.75 0 0 0 5.25 9.5h1.5ZM9 7.25a2.25 2.25 0 0 1 2.25 2.25h1.5A3.75 3.75 0 0 0 9 5.75v1.5Zm7.25 2.25c0 3.982-3.25 7.366-7.56 9.317l.62 1.366c4.527-2.05 8.44-5.829 8.44-10.683h-1.5Zm-6.94 9.317C5 16.867 1.75 13.482 1.75 9.5H.25c0 4.854 3.913 8.634 8.44 10.683l.62-1.366ZM1.75 9.5A7.25 7.25 0 0 1 9 2.25V.75A8.75 8.75 0 0 0 .25 9.5h1.5ZM9 2.25a7.25 7.25 0 0 1 7.25 7.25h1.5A8.75 8.75 0 0 0 9 .75v1.5Z" fill="url('#paint0_linear_1008_900')"/><defs><linearGradient id="paint0_linear_1008_900" x1="-.067" y1="3.331" x2="16.078" y2="20.373" gradientUnits="userSpaceOnUse"><stop stop-color="#D61544"/><stop offset="1" stop-color="#F07E3D"/></linearGradient></defs></svg>