<svg width="378" height="70" fill="none" xmlns="http://www.w3.org/2000/svg"><path fill-rule="evenodd" clip-rule="evenodd" d="M42.67 52.786c0-3.868-.078-7.66-.078-11.529H19.29c-4.244 3.869-8.488 7.661-12.731 11.53H0a18554.066 18554.066 0 0 1 39.815-36.029h7.099v36.028H42.67Zm0-32.842c-6.79 6.144-13.503 12.363-20.294 18.431h20.216c.078-6.068.078-12.287.078-18.43Zm11.96 32.842V16.758h4.089V49.45h21.836c-.231 1.062-.385 2.2-.617 3.262-8.41.075-16.82.075-25.309.075Zm32.407.531h4.09V20.551h13.117c.231-1.062.385-2.124.617-3.186h-30.17c-.231 1.062-.386 2.124-.617 3.186h12.963v32.766Zm51.62-2.123c-.772.379-1.775.758-2.932 1.061-1.157.304-2.392.607-3.704.91-1.311.228-2.623.456-4.089.608a39.157 39.157 0 0 1-4.09.227c-2.855 0-5.401-.228-7.561-.683-2.238-.455-4.09-1.365-5.633-2.654-1.543-1.29-2.701-3.186-3.472-5.537-.772-2.427-1.235-5.537-1.235-9.33 0-4.02.386-7.281 1.235-9.86.848-2.503 2.083-4.4 3.626-5.84 1.543-1.441 3.395-2.352 5.479-2.807a33.132 33.132 0 0 1 7.021-.758c2.778 0 5.17.228 7.253.758 2.084.531 3.858 1.441 5.324 2.807 1.466 1.365 2.547 3.261 3.318 5.537.772 2.351 1.158 5.385 1.158 9.101v1.442h-30.17c.077 3.11.309 5.612.849 7.509.54 1.896 1.389 3.337 2.469 4.399 1.157 1.062 2.623 1.744 4.475 2.048 1.775.379 4.09.53 6.636.53 1.157 0 2.315-.075 3.472-.303a46.426 46.426 0 0 0 3.472-.758c1.081-.228 2.084-.607 2.932-.91.926-.304 1.621-.531 2.084-.759.771 1.29 1.389 2.276 2.083 3.262Zm-2.546-18.052c-.077-2.883-.463-5.234-1.08-6.978-.618-1.745-1.467-3.11-2.47-4.02-1.08-.91-2.314-1.593-3.858-1.896-1.543-.304-3.318-.456-5.324-.456-1.774 0-3.395.076-4.938.304-1.543.227-2.855.758-4.012 1.593-1.158.91-2.084 2.2-2.778 3.944-.772 1.744-1.157 4.247-1.312 7.433 8.565.076 17.13.076 25.772.076Zm41.975 20.175c-.926.152-1.852.228-2.623.152-.772-.076-1.621-.303-2.47-.683-.771-.379-1.62-1.062-2.469-1.896-.848-.834-1.774-1.896-2.855-3.413-1.774-2.427-3.626-4.778-5.324-7.205h-11.728v12.97h-4.09V17.214h14.738c2.701 0 4.938.151 6.79.379 1.775.227 3.318.834 4.398 1.669 1.081.834 1.929 1.971 2.392 3.488.463 1.517.695 3.49.695 5.992 0 1.973-.155 3.641-.386 5.006-.232 1.366-.772 2.428-1.466 3.338-.695.834-1.543 1.517-2.624 1.972-1.08.455-2.469.758-4.012.986 1.466 1.896 2.932 3.717 4.398 5.613.926 1.137 1.621 2.048 2.238 2.654a5.251 5.251 0 0 0 4.938 1.897c-.077 1.137-.309 2.123-.54 3.11Zm-16.667-16.08c1.775 0 3.318-.075 4.553-.227 1.234-.152 2.237-.455 3.086-.986.772-.531 1.312-1.365 1.698-2.427.386-1.062.54-2.655.54-4.627 0-2.048-.154-3.64-.54-4.778-.386-1.138-.926-1.897-1.698-2.427-.771-.532-1.774-.835-3.086-.91a73.158 73.158 0 0 0-4.553-.152h-10.802v16.61c3.626-.076 7.253-.076 10.802-.076Zm108.171 15.55V16.757h27.392c-.232 1.062-.386 2.124-.618 3.186h-22.685V32.46h18.442v3.186h-18.442v13.804h23.303c-.232 1.062-.386 2.2-.618 3.262-8.873.075-17.824.075-26.774.075Zm60.879-16.99h-11.728c.231-1.063.386-2.124.617-3.186h14.969v17.672c-.771.456-1.697.91-2.777 1.214-1.081.38-2.315.683-3.627.986-1.312.228-2.701.531-4.09.607a39.418 39.418 0 0 1-4.166.227c-2.932 0-5.479-.227-7.639-.682-2.238-.455-4.09-1.365-5.633-2.73-1.466-1.366-2.623-3.262-3.472-5.69-.772-2.427-1.157-5.688-1.157-9.708 0-4.02.385-7.206 1.311-9.557.849-2.427 2.084-4.323 3.704-5.613s3.549-2.2 5.787-2.654c2.238-.456 4.784-.683 7.639-.683 2.623 0 5.17.227 7.33.607 2.238.379 4.167.986 5.787 1.744-.617.986-1.234 1.972-1.929 2.958-.54-.227-1.234-.379-2.006-.606-.772-.228-1.698-.456-2.623-.683-.926-.228-2.007-.38-3.087-.607a24.682 24.682 0 0 0-3.395-.227c-2.083 0-3.935.151-5.71.379-1.774.227-3.318.91-4.552 1.896-1.235.986-2.238 2.579-3.009 4.551-.772 2.048-1.081 4.854-1.081 8.343 0 3.414.232 6.068.772 8.116.463 2.048 1.312 3.64 2.469 4.703 1.157 1.062 2.623 1.82 4.475 2.2 1.852.378 4.09.606 6.79.606.926 0 1.775-.076 2.778-.227l2.778-.456c.926-.227 1.775-.379 2.546-.682.772-.228 1.466-.531 2.006-.759-.077-3.868-.077-7.964-.077-12.06Zm29.167-16.535c-1.852 0-3.627.075-5.324.227-1.698.152-3.241.758-4.475 1.744-1.235.987-2.315 2.503-3.087 4.627-.772 2.124-1.157 5.082-1.157 8.95 0 2.58.154 4.703.54 6.523.386 1.745.849 3.262 1.466 4.4.617 1.137 1.389 2.047 2.238 2.654.925.607 1.851 1.062 2.854 1.365 1.081.228 2.161.456 3.318.531 1.158.076 2.392.076 3.627.076 1.234 0 2.469-.076 3.626-.076 1.158-.075 2.238-.227 3.318-.53 1.081-.228 2.006-.759 2.932-1.366.926-.607 1.621-1.517 2.238-2.654.617-1.138 1.08-2.58 1.466-4.4.386-1.744.54-3.944.54-6.523 0-3.868-.386-6.826-1.234-8.95-.772-2.123-1.852-3.64-3.164-4.627-1.312-.986-2.778-1.592-4.475-1.744a56.88 56.88 0 0 0-5.247-.227Zm-18.364 15.472c0-4.02.463-7.28 1.466-9.708.926-2.427 2.237-4.323 3.935-5.689 1.62-1.29 3.626-2.2 5.787-2.654 2.238-.38 4.63-.607 7.176-.607 2.546 0 4.938.227 7.176.607 2.237.379 4.166 1.29 5.787 2.654 1.62 1.29 2.932 3.262 3.935 5.689.926 2.427 1.466 5.689 1.466 9.708 0 4.02-.463 7.282-1.466 9.71-.926 2.426-2.238 4.322-3.935 5.688-1.621 1.29-3.627 2.2-5.787 2.654-2.238.38-4.63.607-7.176.607-2.546 0-4.938-.227-7.176-.607-2.238-.379-4.167-1.289-5.787-2.654s-2.932-3.262-3.935-5.689c-1.003-2.427-1.466-5.613-1.466-9.709Z" fill="#fff"/><path fill-rule="evenodd" clip-rule="evenodd" d="m203.341 53.642 8.415 3.856L200.895 70l-4.139-4.787 2.195-8.415 4.39-3.155Z" fill="#EC3758"/><path fill-rule="evenodd" clip-rule="evenodd" d="M219.938 41.813v10.426l-2.787 11.216-5.395-5.956 8.182-15.687Z" fill="#F07E3D"/><path fill-rule="evenodd" clip-rule="evenodd" d="m211.756 57.498 8.182-5.258-2.787 11.215-5.395-5.956Z" fill="#F07E3D"/><path fill-rule="evenodd" clip-rule="evenodd" d="m210.293 48.733 1.463 8.766 8.182-15.687-9.645 6.922Z" fill="#F9B70B"/><path fill-rule="evenodd" clip-rule="evenodd" d="m203.341 53.642 8.415 3.856-1.463-8.764-6.952 4.908Z" fill="#F07E3D"/><path fill-rule="evenodd" clip-rule="evenodd" d="m203.341 53.642-3.292-6.31-2.561 2.453-.732 2.104 6.585 1.753Z" fill="#EC3758"/><path fill-rule="evenodd" clip-rule="evenodd" d="m203.341 53.642-4.39 3.155v-2.103l1.098-2.104 3.292 1.052ZM217.152 63.455l-6.859 5.263L200.895 70l10.861-12.502 5.396 5.957Z" fill="#D61544"/><path fill-rule="evenodd" clip-rule="evenodd" d="m212.321 2.28-12.272 11.043 16.829.701-4.557-11.744ZM200.049 13.323 192 16.128l5.122 4.908 2.927-7.713Z" fill="#03A7CC"/><path fill-rule="evenodd" clip-rule="evenodd" d="M200.049 13.323 212.321 2.28l-12.638 6.836L192 16.128l8.049-2.805Z" fill="#58C9E9"/><path fill-rule="evenodd" clip-rule="evenodd" d="m216.878 14.024-16.829-.701-2.927 7.713 19.756-7.012Z" fill="#0290B0"/><path fill-rule="evenodd" clip-rule="evenodd" d="M213.993 19.907c-.65 1.222-1.208 2.53-1.858 3.753l5.574 1.832c.464.175 1.021.262 1.486.437-.279-2.357-.743-4.713-1.208-7.156-.278-1.571-.743-3.142-1.114-4.713-1.022 2.007-1.951 3.84-2.88 5.847 0-.087 0 0 0 0Z" fill="#58C9E9"/><path fill-rule="evenodd" clip-rule="evenodd" d="M213.528 24.184c1.394.436 2.787.873 4.088 1.309.464.175 1.393.698 1.858.873-.279-1.92-.929-4.975-1.394-6.982l-6.038 4.364c.093.087.754.207 1.486.436Z" fill="#0290B0"/><path d="m200.78 35.06 6.586-4.207-10.244 1.402 3.658 2.805Z" fill="#0290B0"/><path d="m200.78 35.06 6.586-4.207-10.244 1.402 3.658 2.805Z" fill="#0290B0"/><path fill-rule="evenodd" clip-rule="evenodd" d="m224.119 15.722 8.125 10.924-5.854 10.518c0-3.664-.093-9.875-.629-13.5-.491-2.492-.713-4.452-1.642-7.942Z" fill="#EC3758"/><path fill-rule="evenodd" clip-rule="evenodd" d="m226.024 52.94.366-15.776 2.927 3.856-3.293 11.92Z" fill="#F07E3D"/><path fill-rule="evenodd" clip-rule="evenodd" d="m224.195 59.602 5.122-18.582 1.304 12.228-6.426 6.354Z" fill="#03A7CC"/><path fill-rule="evenodd" clip-rule="evenodd" d="M247.527 50.89s-4.673 0-8.332 2.752l.366 1.753s-6.995-1.564-8.94-2.148l-1.304-12.227 8.781 10.869 6.585-4.207 3.959-.631-1.115 3.84Z" fill="#58C9E9"/><path fill-rule="evenodd" clip-rule="evenodd" d="M239.195 64.51c-.836 0-12.439-3.506-12.439-3.506l-2.561-1.402 6.426-6.355 8.574 11.263Z" fill="#0290B0"/><path fill-rule="evenodd" clip-rule="evenodd" d="m235.916 19.823 1.579 2.181-5.251 4.642-8.125-10.925 11.797 4.102Z" fill="#F07E3D"/><path fill-rule="evenodd" clip-rule="evenodd" d="m230.78 6.31-6.662 9.412L218.593 0l12.187 6.31Z" fill="#EC3758"/><path fill-rule="evenodd" clip-rule="evenodd" d="m232.244 26.646-2.927 14.374-2.927-3.856 5.854-10.518Z" fill="#D61544"/><path fill-rule="evenodd" clip-rule="evenodd" d="m246.512 31.905-8.414-.35 8.048-2.455 3.659-.35-3.293 3.155Z" fill="#03A7CC"/><path fill-rule="evenodd" clip-rule="evenodd" d="m218.341 0 7.635.45 22.365 5.16-17.561.7L218.341 0Z" fill="#F9B70B"/><path fill-rule="evenodd" clip-rule="evenodd" d="m243.22 56.797-3.659-1.402-8.94-2.148 8.574 11.264 3.293-.702 3.658-3.155-1.097-4.909.366-2.454-2.532 1.056.337 2.45Z" fill="#03A7CC"/><path fill-rule="evenodd" clip-rule="evenodd" d="m235.171 14.024.745 5.886-11.797-4.19 6.661-9.41 4.391 7.714Z" fill="#D61544"/><path d="m248.341 5.61-17.561.7 4.391 7.714 13.17-8.414Z" fill="#F07E3D"/><path d="M248.341 5.61 252 9.817l-16.829 4.207 13.17-8.414Z" fill="#F9B70B"/><path d="m251.634 15.426.366-5.61-12.805 3.156 12.439 2.454Z" fill="#F07E3D"/></svg>