<svg width="183" height="34" fill="none" xmlns="http://www.w3.org/2000/svg"><path d="M21.41 25.374c0-1.897 0-3.794-.06-5.691H9.698c-2.135 1.897-4.21 3.794-6.344 5.69H.06A5830.777 5830.777 0 0 0 19.947 7.589h3.538v17.786H21.41Zm0-16.244c-3.355 3.023-6.71 6.106-10.065 9.13H21.41V9.13Zm6.04 16.244V7.588h2.012v16.185h10.859c-.122.534-.183 1.067-.305 1.6H27.45Zm16.104.237h2.073V9.426h6.527c.122-.533.183-1.067.305-1.6H37.392c-.122.533-.183 1.067-.305 1.6h6.466v16.185Zm25.742-1.008c-.428.178-.855.356-1.465.534-.549.178-1.159.296-1.83.474-.67.119-1.342.237-2.013.296-.731.06-1.402.119-2.074.119-1.403 0-2.684-.119-3.782-.356-1.097-.237-2.012-.652-2.805-1.304-.733-.652-1.343-1.541-1.709-2.727-.366-1.186-.61-2.727-.61-4.624 0-2.016.183-3.617.61-4.862s1.038-2.193 1.77-2.905c.793-.711 1.647-1.126 2.745-1.363 1.036-.237 2.195-.356 3.476-.356 1.343 0 2.562.119 3.6.415 1.037.237 1.951.712 2.683 1.423.733.652 1.282 1.6 1.648 2.786.365 1.186.548 2.668.548 4.506v.711H55.022c0 1.542.183 2.787.427 3.676.244.949.67 1.66 1.28 2.194.61.533 1.282.889 2.197 1.067.914.178 2.012.237 3.355.237.549 0 1.159-.06 1.768-.178a81.53 81.53 0 0 0 1.708-.356c.55-.118 1.037-.296 1.465-.415.427-.118.793-.296 1.098-.355.366.355.67.889.976 1.363Zm-1.282-8.952c-.06-1.423-.243-2.55-.548-3.438-.305-.89-.732-1.542-1.22-2.016-.55-.474-1.16-.77-1.953-.949-.793-.177-1.647-.237-2.684-.237-.854 0-1.708.06-2.44.178-.731.119-1.402.356-2.012.77-.55.416-1.037 1.068-1.403 1.957-.366.89-.55 2.134-.671 3.676 4.392.06 8.662.06 12.931.06ZM89 25.611c-.489.06-.915.119-1.343.06-.427 0-.793-.12-1.22-.356-.366-.178-.793-.534-1.22-.89a15.474 15.474 0 0 1-1.463-1.66c-.915-1.185-1.77-2.371-2.684-3.557h-5.795v6.403h-2.075V7.826h7.382c1.341 0 2.5.059 3.415.177.916.119 1.648.415 2.197.83.549.415.915 1.008 1.159 1.72.243.77.365 1.719.365 2.964 0 1.008-.06 1.779-.183 2.49a3.771 3.771 0 0 1-.732 1.66c-.305.415-.793.77-1.28 1.008a6.237 6.237 0 0 1-2.014.474c.733.948 1.465 1.838 2.197 2.786.427.534.793 1.008 1.159 1.305.304.296.61.533.914.711.244.178.55.237.793.296h.794c-.122.415-.244.89-.366 1.364Zm-8.296-7.944c.915 0 1.647-.06 2.257-.119.61-.059 1.159-.237 1.525-.474.365-.296.67-.652.853-1.245.184-.534.245-1.304.245-2.312 0-1.008-.061-1.779-.245-2.371a2.434 2.434 0 0 0-.853-1.245c-.367-.238-.915-.415-1.525-.475-.61-.059-1.403-.059-2.257-.059h-5.368v8.24c1.769.06 3.538.06 5.368.06Zm48.068 7.944V7.826h13.664c-.061.533-.183 1.067-.305 1.6h-11.346v6.225h9.211v1.6h-9.211v6.819h11.59c-.062.533-.183 1.067-.306 1.6-4.392-.059-8.844-.059-13.297-.059Zm30.377-8.36h-5.855c.061-.533.183-1.066.305-1.6h7.503v8.715c-.367.237-.855.415-1.404.593-.549.178-1.159.356-1.83.474-.671.119-1.342.237-2.073.297-.733.059-1.403.118-2.075.118-1.463 0-2.744-.118-3.843-.356-1.097-.237-2.012-.652-2.805-1.304-.732-.652-1.342-1.6-1.708-2.845-.366-1.245-.61-2.787-.61-4.803 0-1.956.244-3.557.671-4.742.426-1.186 1.036-2.135 1.829-2.787.793-.652 1.77-1.067 2.868-1.304 1.098-.237 2.378-.356 3.781-.356 1.343 0 2.562.119 3.66.297 1.098.178 2.075.474 2.868.83-.306.474-.61.948-.916 1.482-.243-.06-.61-.178-.976-.297-.427-.118-.853-.237-1.341-.355-.488-.119-.976-.178-1.526-.297-.549-.059-1.097-.118-1.646-.118-1.037 0-1.952.059-2.867.178a4.801 4.801 0 0 0-2.257.948c-.61.474-1.159 1.245-1.464 2.253-.367 1.008-.549 2.371-.549 4.15 0 1.66.122 3.023.365 4.031.244 1.008.671 1.779 1.22 2.312.55.534 1.343.89 2.257 1.067.916.178 2.075.297 3.416.297.428 0 .915-.06 1.342-.119.489-.059.916-.118 1.404-.237.427-.118.853-.178 1.281-.356.365-.118.731-.237.975-.415v-5.75Zm14.519-8.18c-.915 0-1.831.059-2.685.118-.854.06-1.586.356-2.257.83-.609.474-1.159 1.245-1.524 2.312-.366 1.067-.611 2.49-.611 4.387 0 1.245.062 2.372.306 3.202.183.889.426 1.6.731 2.134.305.534.672 1.008 1.098 1.304.427.297.916.534 1.464.652.549.119 1.099.237 1.648.237.548 0 1.22.06 1.83.06.61 0 1.22 0 1.769-.06.548-.059 1.158-.118 1.646-.237a4.08 4.08 0 0 0 1.465-.652c.426-.296.853-.77 1.159-1.304.304-.534.548-1.304.731-2.134.183-.89.245-1.957.245-3.202 0-1.897-.183-3.379-.61-4.387-.427-1.067-.916-1.778-1.586-2.312-.672-.474-1.404-.77-2.258-.83a32.318 32.318 0 0 0-2.561-.118Zm-9.15 7.647c0-2.015.243-3.616.731-4.802.488-1.186 1.16-2.134 1.953-2.786.854-.652 1.768-1.067 2.927-1.304 1.098-.238 2.319-.297 3.539-.297 1.281 0 2.44.119 3.599.297 1.158.177 2.073.652 2.927 1.304.854.652 1.465 1.6 1.952 2.786.488 1.186.732 2.787.732 4.802 0 2.016-.244 3.617-.732 4.802-.487 1.186-1.159 2.135-1.952 2.787-.854.652-1.769 1.067-2.927 1.304-1.099.237-2.318.296-3.599.296-1.282 0-2.441-.118-3.539-.296-1.098-.237-2.073-.652-2.927-1.304-.855-.652-1.465-1.601-1.953-2.787-.488-1.185-.731-2.786-.731-4.802Z" fill="#fff"/><path d="M118.645 7.53c.305.118.671.296.976.414.366.178.61.06.915-.118.244-.178.488-.415.61-.712-.671-.415-1.281-.889-1.952-1.304l-1.281 1.423c.244.118.488.237.732.296Z" fill="#E6453B"/><path d="M109.373 27.508c.61.593 1.342 1.008 2.257 1.008 1.098.06 2.135.178 3.172.474 1.037.297 2.013.237 2.928-.355.427-.297.732-.653.732-1.127v-1.6c0-.416-.122-.89 0-1.305.061-.118-.061-.296-.122-.474-.244.118-.488.296-.671.356-.122.059-.183.178-.122.296.061.297.061.534.122.83 0 .119 0 .237-.183.178-.366-.119-.732-.237-1.037-.356-.183-.06-.305-.237-.305-.474 0-.178-.061-.356-.061-.474 0-.06.061-.178.122-.238.061-.059.122-.059.244-.118.976-.474 1.952-.89 3.111-.949.061 0 .183-.059.183-.118.122-.356.244-.77.366-1.127.061-.177.061-.296.061-.533-1.83.237-3.233.948-4.331 2.312-.183-.296-.305-.534-.488-.77-.366-.594-.915-1.068-1.403-1.601-.976-1.127-1.403-2.49-1.586-3.973-.122-.652 0-1.304.122-1.956.183-.89.427-1.72 1.22-2.312a5.702 5.702 0 0 0 1.464-1.72c.183-.355.183-.71-.061-1.007-.183-.237-.366-.415-.549-.652-.061-.119-.183-.297-.183-.415 0-.475.061-.949 0-1.364 0-.415-.183-.77-.549-.948-.61-.297-1.159-.593-1.769-.89-1.159-.533-2.257-1.067-3.477-1.482 1.281 3.617 2.074 8.004 2.074 12.747 0 3.675-.488 7.114-1.281 10.137Z" fill="#fff"/><path d="M116.876 15.058c.976-.533 2.562-1.008 3.843-1.185.122.059 0 .296-.061.355a.82.82 0 0 0-.183.237c-.305.178-.427.475-.793.475-.915.059-1.464.059-2.196.118h-.61Z" fill="#fff"/><path d="M114.924 22.528c-1.22.297-2.44.593-3.66.949 1.647.237 3.355.533 5.002.77.061 0 .061 0 .122-.059.854-.415 1.708-.77 2.684-.89-.305-.414-.61-.888-.915-1.303-.915.415-1.708 1.008-2.318 1.837-.183-.296-.305-.533-.488-.77s-.305-.356-.427-.534Z" fill="#5EC4E7"/><path d="M113.338 20.572c-.671.948-1.403 1.897-2.074 2.845 1.22-.296 2.44-.592 3.66-.948-.305-.356-.671-.712-.976-1.067-.244-.237-.427-.534-.61-.83Z" fill="#08A7CD"/><path d="M111.447 11.323c-.427.06-.793.12-1.22.178.244 1.897.427 3.854.427 5.929 0 .593 0 1.186-.061 1.778.183 1.423.427 2.846.61 4.269.671-.949 1.403-1.897 2.074-2.846-.549-.948-.793-2.015-.976-3.142-.122-.652 0-1.304.122-1.956.122-.534.244-1.067.549-1.542-.488-.889-1.037-1.778-1.525-2.668Z" fill="#EB7032"/><path d="M110.227 11.501c.427-.059.793-.118 1.22-.178l-1.83-3.2c.244 1.066.427 2.193.61 3.378Z" fill="#EB7032"/><path d="M114.863 11.916c0-.356-.061-.77-.061-1.126-1.098.178-2.257.356-3.355.533.488.89 1.037 1.779 1.525 2.668.183-.296.427-.533.732-.77.427-.415.854-.83 1.159-1.305Z" fill="#F19326"/><path d="M114.802 10.79c-1.586-1.186-3.111-2.312-4.697-3.498l-.61.593c0 .06.061.118.061.237l1.83 3.201c1.159-.178 2.318-.355 3.416-.533Z" fill="#F19326"/><path d="M114.741 26.856c1.22-.119 2.501-.237 3.721-.356v-.533c0-.178 0-.297-.061-.475-.244.119-.488.178-.732.297 0 .06-.061.118-.183.06-.915.296-1.83.651-2.745 1.007Z" fill="#1EA8B0"/><path d="m114.741 26.856-3.477-3.38c-.305 1.602-.61 3.143-.976 4.744l.366.177a114.825 114.825 0 0 1 4.087-1.541Z" fill="#5EC4E7"/><path d="m111.203 23.418 3.477 3.379c.915-.356 1.83-.712 2.745-1.008-.366-.119-.671-.237-1.037-.356-.183-.06-.305-.237-.305-.474 0-.178-.061-.356-.061-.474 0-.06.061-.178.122-.238 0 0 .061-.059.122-.059a149.392 149.392 0 0 1-5.063-.77Zm7.259 1.126c0-.119-.061-.297-.122-.415-.244.118-.427.237-.671.356-.122.059-.183.178-.122.296.061.296.122.534.122.83v.119c.244-.119.488-.178.732-.297 0-.296-.061-.533 0-.83.061 0 .061 0 .061-.06Z" fill="#08A7CD"/><path d="M114.741 10.078c0 .238 0 .475.061.712 0 .356.061.77.061 1.126.183-.296.427-.593.427-.948 0-.356-.305-.652-.549-.89Z" fill="#EB7032"/><path d="M114.741 10.078c0 .238 0 .475.061.712.183.06.305.118.488.118-.061-.355-.305-.592-.549-.83Z" fill="#E6453B"/><path d="M110.349 22.35c.305.356.61.712.854 1.067-.183-1.422-.427-2.845-.61-4.268-.061 1.126-.122 2.194-.244 3.201Z" fill="#F19326"/><path d="m111.569 5.928-1.403 1.364c1.525 1.186 3.111 2.312 4.697 3.498 0-.237 0-.474-.061-.712-.061-.059-.122-.177-.183-.237-.061-.118-.183-.296-.183-.415 0-.474.061-.948 0-1.363 0-.415-.183-.771-.549-.949-.61-.296-1.159-.652-1.769-.89-.244-.177-.427-.236-.549-.296Z" fill="#F8B21E"/><path d="M118.096 21.994c.305.416.61.89.915 1.305h.427c.061 0 .183-.06.183-.119.122-.355.244-.77.366-1.126.061-.178.061-.297.061-.534-.671.06-1.342.178-1.952.474Z" fill="#08A7CD"/><path d="M111.203 23.418c-.305-.356-.61-.712-.854-1.068a27.066 27.066 0 0 1-.305 2.194l1.159-1.127Z" fill="#F8B21E"/><path d="m114.741 26.856-.915 1.956c.305.06.671.119.976.237a3.479 3.479 0 0 0 2.196 0c-.793-.71-1.525-1.482-2.257-2.193Z" fill="#1EA8B0"/><path d="m114.741 26.856 2.257 2.193.732-.355c.427-.297.732-.652.732-1.127V26.5c-1.281.119-2.501.237-3.721.356Z" fill="#5EC4E7"/><path d="M111.203 23.418c-.366.355-.793.71-1.159 1.067a37.499 37.499 0 0 1-.671 3.023c.244.237.549.474.854.652.366-1.541.671-3.142.976-4.742Z" fill="#F19326"/><path d="m113.826 28.812.915-1.956c-1.342.534-2.684 1.008-4.026 1.541.305.119.61.178.976.178.671 0 1.403.119 2.135.237Z" fill="#08A7CD"/><path d="m109.556 7.885.61-.593c-.305-.237-.61-.474-.976-.711.122.415.244.83.366 1.304Z" fill="#EF8323"/><path d="m110.105 7.292 1.403-1.363a26.319 26.319 0 0 0-2.989-1.245c.244.592.427 1.245.61 1.897.366.237.671.474.976.711Z" fill="#F19326"/><path d="M117.181 4.683a115.11 115.11 0 0 0-2.806-1.6l.183 3.972c.183-.119.366-.178.488-.178.427-.06.854-.06 1.281 0 .305-.711.61-1.423.854-2.194Z" fill="#E6453B"/><path d="m114.375 3.142-2.928 2.846c1.037.593 2.867 1.897 2.806 1.66-.061-.178.122-.415.305-.534 0-1.363-.061-2.668-.183-3.972Z" fill="#F9B70B"/><path d="M116.937 2.668c.244.296.488.652.671.949.061-.238.183-.475.244-.653-.305-.118-.61-.177-.915-.296Z" fill="#E85A34"/><path d="M117.181 4.684c.244-.593.488-1.127.671-1.72-.305-.118-.671-.178-.976-.296-.427-.119-.854-.237-1.281-.297-.915-.177-1.83-.415-2.745-.533.488.415.976.89 1.525 1.304.976.534 1.891 1.067 2.806 1.542Z" fill="#E32340"/><path d="m111.508 5.988 2.928-2.846c-2.074.237-4.087.474-6.161.77.122.297.183.534.305.771.976.415 1.586.712 2.562 1.127.122 0 .244.06.366.178Z" fill="#F19326"/><path d="M114.375 3.142c-.488-.415-.976-.89-1.525-1.304-.488-.06-.915-.178-1.403-.237-.122 0-.244-.06-.366-.06a83.828 83.828 0 0 1 3.294 1.601Z" fill="#E6453B"/><path d="M108.275 3.854c2.074-.238 4.087-.475 6.161-.771-1.098-.534-2.135-1.067-3.233-1.6-.854-.12-1.708-.238-2.562-.297-.488 0-1.037-.06-1.525-.06.305.83.793 1.838 1.159 2.728Z" fill="#EB7032"/><path d="M121.39 6.284c0-.178 0-.355-.061-.533-.122-.415-.244-.712-.488-1.008-.549.356-1.098.77-1.647 1.126.366.712.793 1.423 1.159 2.075.061 0 .061-.059.122-.118.244-.178.488-.415.61-.712.183-.237.305-.533.305-.83Z" fill="#E32340"/><path d="M117.852 2.964c-.244.593-.488 1.127-.671 1.72.671.355 1.342.77 2.013 1.126-.427-.89-.854-1.897-1.342-2.846Z" fill="#D61D43"/><path d="M117.181 4.684c-.305.711-.549 1.422-.854 2.134.488.06.915.178 1.342.356.061 0 .183.059.244.118l1.281-1.423c-.671-.415-1.342-.77-2.013-1.185Z" fill="#E32340"/><path d="M117.852 2.964c.427.949.854 1.897 1.342 2.846.549-.356 1.098-.77 1.647-1.126-.122-.119-.183-.238-.305-.356a2.707 2.707 0 0 0-.671-.474 14.9 14.9 0 0 0-2.013-.89Z" fill="#E6453B"/><path d="M117.425 15.058c.732 0 1.342 0 2.196-.118.366 0 .549-.297.793-.475.061-.059.122-.118.183-.237.061-.059.183-.296.061-.355-1.281.118-2.806.652-3.843 1.185h.61Z" fill="#08A7CD"/><path d="M107.787 20.216v-.593c-.061.06-.183.119-.244.178-.427.297-.854.652-1.342.949.549-.06 1.037-.178 1.525-.237.061-.119.061-.238.061-.297Z" fill="#EB7032"/><path d="m105.225 21.461 2.379 1.779c.061-.949.122-1.838.183-2.787-.549.06-1.037.178-1.586.238-.305.237-.61.533-.976.77Z" fill="#F19326"/><path d="m102.236 27.034 2.745 1.6c-.122-2.252-.244-4.505-.366-6.699-.183.119-.366.237-.549.415-.549 1.482-1.22 3.083-1.83 4.684Z" fill="#E6453B"/><path d="m105.042 28.575 2.196-2.134c.122-.711.244-1.423.305-2.193.061-.356.061-.653.122-1.008l-2.379-1.779c-.183.119-.366.297-.61.415.122 2.253.244 4.447.366 6.7Z" fill="#F8B21E"/><path d="M104.127 31.302c-.793-1.067-1.525-2.134-2.318-3.26-.549 1.363-1.037 2.668-1.586 4.031l1.281.178c.122 0 .244 0 .366-.06l1.464-.533c.305-.119.549-.178.793-.356Z" fill="#D61D43"/><path d="M102.236 27.034c-.122.356-.305.711-.427 1.067.793 1.067 1.525 2.134 2.318 3.26.244-.118.427-.296.61-.533.427-.474.854-.89 1.281-1.304-.366-.297-.671-.593-1.037-.89a32.892 32.892 0 0 0-2.745-1.6Z" fill="#E32340"/><path d="M105.042 28.575c.366.297.671.593 1.037.89.061-.12.183-.178.244-.238-.427-.237-.854-.415-1.281-.652Z" fill="#E6453B"/><path d="M105.042 28.575c.427.238.854.415 1.281.652l.061-.059c.061-.118.244-.118.305-.237s.122-.237.183-.415c0-.06 0-.118.061-.178l.366-1.956-2.257 2.193Z" fill="#EB7032"/><path d="M98.637 27.686c.55-.593 1.098-1.186 1.586-1.779-.549-.118-1.098-.237-1.647-.296.122.296.305.534.244.89-.06.355-.122.77-.183 1.185Z" fill="#E32340"/><path d="M98.576 25.552c.55.118 1.098.237 1.647.296-.67-1.067-1.403-2.134-2.074-3.201v.059c-.06.296-.122.652-.244.949 0 .118 0 .177.122.177.244.119.488.297.793.415.122.06.122.119 0 .238l-.427.415c.061.296.122.474.183.652ZM101.809 28.042c.122-.356.244-.712.427-1.067-.671-.356-1.342-.771-2.013-1.127.549.77 1.098 1.482 1.586 2.194Z" fill="#D61D43"/><path d="M102.236 27.034c.61-1.6 1.22-3.142 1.891-4.743-.61.415-1.159.89-1.769 1.304-.671.771-1.403 1.542-2.074 2.312.61.356 1.281.712 1.952 1.127Z" fill="#E32340"/><path d="M98.759 30.532c.488-1.542.976-3.083 1.525-4.684a41.322 41.322 0 0 0-1.586 1.779c-.122.652-.183 1.363-.305 2.015 0 .06 0 .178.06.238.062.237.184.474.306.652ZM100.589 24.781l-.366 1.067c.671-.77 1.403-1.541 2.074-2.312-.549.415-1.098.83-1.708 1.245Z" fill="#E6453B"/><path d="M100.223 32.073c.549-1.364 1.037-2.668 1.586-4.031-.549-.712-1.037-1.482-1.586-2.194a202.983 202.983 0 0 1-1.525 4.684c.244.474.55.889.854 1.304.061.06.122.119.244.178.183 0 .305.059.427.059ZM100.284 25.907l.366-1.067c-.061.06-.122.06-.183.119-.488-1.008-.976-1.956-1.464-2.964-.183.118-.305.177-.488.296-.122.119-.183.237-.305.296l-.06.06c.731 1.126 1.402 2.193 2.134 3.26Z" fill="#E32340"/><path d="M98.515 22.291c.183-.119.305-.178.488-.297 0-.059-.061-.118-.061-.118-.183.118-.305.296-.427.415Z" fill="#E32144"/><path d="M104.676 7.944c-2.074-.296-4.148-.652-6.222-.948.61.889 1.22 1.719 1.83 2.608a9.955 9.955 0 0 0 1.098-.593l.366-.178 2.928-.889Z" fill="#5EC4E7"/><path d="M103.822 4.98c-1.586.178-3.233.296-4.819.474a4.256 4.256 0 0 0-.61.475l-.183.177c.061.297.183.653.244.949a199.678 199.678 0 0 1 5.368-2.075Z" fill="#1EA8B0"/><path d="M103.822 4.98c.854.83 1.647 1.66 2.501 2.43-.305-1.007-.61-2.015-.976-3.023-.488.237-.976.415-1.525.593Z" fill="#5EC4E7"/><path d="M98.454 6.996c-.06-.297-.183-.652-.244-.949-.183.119-.366.297-.549.474.305.119.55.297.793.475ZM106.323 7.47c-.854-.83-1.647-1.66-2.501-2.43-1.769.651-3.599 1.363-5.368 2.015 2.074.296 4.148.652 6.222.949.488-.178 1.037-.297 1.525-.475.061-.059.122-.059.122-.059Z" fill="#08A7CD"/><path d="M100.284 9.604c-.61-.89-1.22-1.72-1.83-2.608-.366 1.245-.732 2.43-1.098 3.675.061.06.122.178.183.237.183-.059.366-.118.55-.118.731-.474 1.463-.83 2.195-1.186Z" fill="#08A7CD"/><path d="M98.454 6.996c-.244-.178-.488-.356-.793-.475a.84.84 0 0 1-.244.178c-.305.237-.61.534-.915.771.061.711.122 1.423.122 2.194.244.355.488.652.671 1.007.427-1.245.793-2.49 1.159-3.675Z" fill="#5EC4E7"/><path d="M96.685 9.664c-.061-.712-.061-1.423-.122-2.194-.305.237-.549.474-.854.711.305.534.61 1.008.976 1.483ZM103.822 4.98c.305-.652.61-1.364.915-2.016-.061-.178-.183-.355-.244-.533-.244 0-.305.059-.549.118-.122 0-.732.356-.793.356-.305.178-.549.356-.854.534.488.533 1.037 1.067 1.525 1.54Z" fill="#1EA8B0"/><path d="M103.822 4.98c-.488-.534-1.037-1.008-1.525-1.482a95.821 95.821 0 0 0-2.805 1.72c-.123.058-.306.177-.428.295 1.586-.237 3.172-.355 4.758-.533ZM104.798 2.964c-.305.652-.61 1.364-.915 2.016.488-.178 1.037-.356 1.525-.593-.244-.474-.427-.948-.61-1.423Z" fill="#08A7CD"/><path d="M98.088 10.73c-.183.06-.366.119-.549.119 0 .06.061.06.061.119.183-.06.305-.178.488-.238Z" fill="#2FB5D2"/><path d="M105.225 10.078c.549-.118 1.098-.296 1.647-.415a24.193 24.193 0 0 0-.488-2.015c-.366.77-.732 1.6-1.159 2.43ZM106.811 12.568c-.549-.83-1.037-1.6-1.586-2.43-.244.533-.549 1.126-.793 1.66.793.237 1.586.474 2.379.77Z" fill="#08A7CD"/><path d="M106.933 9.663c-.549.119-1.098.297-1.647.415v.06c.549.83 1.037 1.6 1.586 2.43.183.06.427.119.61.178-.183-1.067-.366-2.075-.549-3.083Z" fill="#5EC4E7"/><path d="M98.576 16.066c-.305-.296-.61-.533-.915-.83 1.22-.178 2.379-.356 3.599-.533-.915.474-1.83.889-2.684 1.363Z" fill="#08A7CD"/><path d="M118.645 7.53c.305.118.671.296.976.414.366.178.61.06.915-.118.244-.178.488-.415.61-.712-.671-.415-1.281-.889-1.952-1.304l-1.281 1.423c.244.118.488.237.732.296Z" fill="#E6453B"/><path d="M109.373 27.508c.61.593 1.342 1.008 2.257 1.008 1.098.06 2.135.178 3.172.474 1.037.297 2.013.237 2.928-.355.427-.297.732-.653.732-1.127v-1.6c0-.416-.122-.89 0-1.305.061-.118-.061-.296-.122-.474-.244.118-.488.296-.671.356-.122.059-.183.178-.122.296.061.297.061.534.122.83 0 .119 0 .237-.183.178-.366-.119-.732-.237-1.037-.356-.183-.06-.305-.237-.305-.474 0-.178-.061-.356-.061-.474 0-.06.061-.178.122-.238.061-.059.122-.059.244-.118.976-.474 1.952-.89 3.111-.949.061 0 .183-.059.183-.118.122-.356.244-.77.366-1.127.061-.177.061-.296.061-.533-1.83.237-3.233.948-4.331 2.312-.183-.296-.305-.534-.488-.77-.366-.594-.915-1.068-1.403-1.601-.976-1.127-1.403-2.49-1.586-3.973-.122-.652 0-1.304.122-1.956.183-.89.427-1.72 1.22-2.312a5.702 5.702 0 0 0 1.464-1.72c.183-.355.183-.71-.061-1.007-.183-.237-.366-.415-.549-.652-.061-.119-.183-.297-.183-.415 0-.475.061-.949 0-1.364 0-.415-.183-.77-.549-.948-.61-.297-1.159-.593-1.769-.89-1.159-.533-2.257-1.067-3.477-1.482 1.281 3.617 2.074 8.004 2.074 12.747 0 3.675-.488 7.114-1.281 10.137Z" fill="#fff"/><path d="M116.876 15.058c.976-.533 2.562-1.008 3.843-1.185.122.059 0 .296-.061.355a.82.82 0 0 0-.183.237c-.305.178-.427.475-.793.475-.915.059-1.464.059-2.196.118h-.61Z" fill="#fff"/><path d="M114.924 22.528c-1.22.297-2.44.593-3.66.949 1.647.237 3.355.533 5.002.77.061 0 .061 0 .122-.059.854-.415 1.708-.77 2.684-.89-.305-.414-.61-.888-.915-1.303-.915.415-1.708 1.008-2.318 1.837-.183-.296-.305-.533-.488-.77s-.305-.356-.427-.534Z" fill="#5EC4E7"/><path d="M113.338 20.572c-.671.948-1.403 1.897-2.074 2.845 1.22-.296 2.44-.592 3.66-.948-.305-.356-.671-.712-.976-1.067-.244-.237-.427-.534-.61-.83Z" fill="#08A7CD"/><path d="M111.447 11.323c-.427.06-.793.12-1.22.178.244 1.897.427 3.854.427 5.929 0 .593 0 1.186-.061 1.778.183 1.423.427 2.846.61 4.269.671-.949 1.403-1.897 2.074-2.846-.549-.948-.793-2.015-.976-3.142-.122-.652 0-1.304.122-1.956.122-.534.244-1.067.549-1.542-.488-.889-1.037-1.778-1.525-2.668Z" fill="#EB7032"/><path d="M110.227 11.501c.427-.059.793-.118 1.22-.178l-1.83-3.2c.244 1.066.427 2.193.61 3.378Z" fill="#EB7032"/><path d="M114.863 11.916c0-.356-.061-.77-.061-1.126-1.098.178-2.257.356-3.355.533.488.89 1.037 1.779 1.525 2.668.183-.296.427-.533.732-.77.427-.415.854-.83 1.159-1.305Z" fill="#F19326"/><path d="M114.802 10.79c-1.586-1.186-3.111-2.312-4.697-3.498l-.61.593c0 .06.061.118.061.237l1.83 3.201c1.159-.178 2.318-.355 3.416-.533Z" fill="#F19326"/><path d="M114.741 26.856c1.22-.119 2.501-.237 3.721-.356v-.533c0-.178 0-.297-.061-.475-.244.119-.488.178-.732.297 0 .06-.061.118-.183.06-.915.296-1.83.651-2.745 1.007Z" fill="#1EA8B0"/><path d="m114.741 26.856-3.477-3.38c-.305 1.602-.61 3.143-.976 4.744l.366.177a114.825 114.825 0 0 1 4.087-1.541Z" fill="#5EC4E7"/><path d="m111.203 23.418 3.477 3.379c.915-.356 1.83-.712 2.745-1.008-.366-.119-.671-.237-1.037-.356-.183-.06-.305-.237-.305-.474 0-.178-.061-.356-.061-.474 0-.06.061-.178.122-.238 0 0 .061-.059.122-.059a149.392 149.392 0 0 1-5.063-.77Zm7.259 1.126c0-.119-.061-.297-.122-.415-.244.118-.427.237-.671.356-.122.059-.183.178-.122.296.061.296.122.534.122.83v.119c.244-.119.488-.178.732-.297 0-.296-.061-.533 0-.83.061 0 .061 0 .061-.06Z" fill="#08A7CD"/><path d="M114.741 10.078c0 .238 0 .475.061.712 0 .356.061.77.061 1.126.183-.296.427-.593.427-.948 0-.356-.305-.652-.549-.89Z" fill="#EB7032"/><path d="M114.741 10.078c0 .238 0 .475.061.712.183.06.305.118.488.118-.061-.355-.305-.592-.549-.83Z" fill="#E6453B"/><path d="M110.349 22.35c.305.356.61.712.854 1.067-.183-1.422-.427-2.845-.61-4.268-.061 1.126-.122 2.194-.244 3.201Z" fill="#F19326"/><path d="m111.569 5.928-1.403 1.364c1.525 1.186 3.111 2.312 4.697 3.498 0-.237 0-.474-.061-.712-.061-.059-.122-.177-.183-.237-.061-.118-.183-.296-.183-.415 0-.474.061-.948 0-1.363 0-.415-.183-.771-.549-.949-.61-.296-1.159-.652-1.769-.89-.244-.177-.427-.236-.549-.296Z" fill="#F8B21E"/><path d="M118.096 21.994c.305.416.61.89.915 1.305h.427c.061 0 .183-.06.183-.119.122-.355.244-.77.366-1.126.061-.178.061-.297.061-.534-.671.06-1.342.178-1.952.474Z" fill="#08A7CD"/><path d="M111.203 23.418c-.305-.356-.61-.712-.854-1.068a27.066 27.066 0 0 1-.305 2.194l1.159-1.127Z" fill="#F8B21E"/><path d="m114.741 26.856-.915 1.956c.305.06.671.119.976.237a3.479 3.479 0 0 0 2.196 0c-.793-.71-1.525-1.482-2.257-2.193Z" fill="#1EA8B0"/><path d="m114.741 26.856 2.257 2.193.732-.355c.427-.297.732-.652.732-1.127V26.5c-1.281.119-2.501.237-3.721.356Z" fill="#5EC4E7"/><path d="M111.203 23.418c-.366.355-.793.71-1.159 1.067a37.499 37.499 0 0 1-.671 3.023c.244.237.549.474.854.652.366-1.541.671-3.142.976-4.742Z" fill="#F19326"/><path d="m113.826 28.812.915-1.956c-1.342.534-2.684 1.008-4.026 1.541.305.119.61.178.976.178.671 0 1.403.119 2.135.237Z" fill="#08A7CD"/><path d="m109.556 7.885.61-.593c-.305-.237-.61-.474-.976-.711.122.415.244.83.366 1.304Z" fill="#EF8323"/><path d="m110.105 7.292 1.403-1.363a26.319 26.319 0 0 0-2.989-1.245c.244.592.427 1.245.61 1.897.366.237.671.474.976.711Z" fill="#F19326"/><path d="M117.181 4.683a115.11 115.11 0 0 0-2.806-1.6l.183 3.972c.183-.119.366-.178.488-.178.427-.06.854-.06 1.281 0 .305-.711.61-1.423.854-2.194Z" fill="#E6453B"/><path d="m114.375 3.142-2.928 2.846c1.037.593 2.867 1.897 2.806 1.66-.061-.178.122-.415.305-.534 0-1.363-.061-2.668-.183-3.972Z" fill="#F9B70B"/><path d="M116.937 2.668c.244.296.488.652.671.949.061-.238.183-.475.244-.653-.305-.118-.61-.177-.915-.296Z" fill="#E85A34"/><path d="M117.181 4.684c.244-.593.488-1.127.671-1.72-.305-.118-.671-.178-.976-.296-.427-.119-.854-.237-1.281-.297-.915-.177-1.83-.415-2.745-.533.488.415.976.89 1.525 1.304.976.534 1.891 1.067 2.806 1.542Z" fill="#E32340"/><path d="m111.508 5.988 2.928-2.846c-2.074.237-4.087.474-6.161.77.122.297.183.534.305.771.976.415 1.586.712 2.562 1.127.122 0 .244.06.366.178Z" fill="#F19326"/><path d="M114.375 3.142c-.488-.415-.976-.89-1.525-1.304-.488-.06-.915-.178-1.403-.237-.122 0-.244-.06-.366-.06a83.828 83.828 0 0 1 3.294 1.601Z" fill="#E6453B"/><path d="M108.275 3.854c2.074-.238 4.087-.475 6.161-.771-1.098-.534-2.135-1.067-3.233-1.6-.854-.12-1.708-.238-2.562-.297-.488 0-1.037-.06-1.525-.06.305.83.793 1.838 1.159 2.728Z" fill="#EB7032"/><path d="M121.39 6.284c0-.178 0-.355-.061-.533-.122-.415-.244-.712-.488-1.008-.549.356-1.098.77-1.647 1.126.366.712.793 1.423 1.159 2.075.061 0 .061-.059.122-.118.244-.178.488-.415.61-.712.183-.237.305-.533.305-.83Z" fill="#E32340"/><path d="M117.852 2.964c-.244.593-.488 1.127-.671 1.72.671.355 1.342.77 2.013 1.126-.427-.89-.854-1.897-1.342-2.846Z" fill="#D61D43"/><path d="M117.181 4.684c-.305.711-.549 1.422-.854 2.134.488.06.915.178 1.342.356.061 0 .183.059.244.118l1.281-1.423c-.671-.415-1.342-.77-2.013-1.185Z" fill="#E32340"/><path d="M117.852 2.964c.427.949.854 1.897 1.342 2.846.549-.356 1.098-.77 1.647-1.126-.122-.119-.183-.238-.305-.356a2.707 2.707 0 0 0-.671-.474 14.9 14.9 0 0 0-2.013-.89Z" fill="#E6453B"/><path d="M117.425 15.058c.732 0 1.342 0 2.196-.118.366 0 .549-.297.793-.475.061-.059.122-.118.183-.237.061-.059.183-.296.061-.355-1.281.118-2.806.652-3.843 1.185h.61Z" fill="#08A7CD"/><path d="M107.787 20.216v-.593c-.061.06-.183.119-.244.178-.427.297-.854.652-1.342.949.549-.06 1.037-.178 1.525-.237.061-.119.061-.238.061-.297Z" fill="#EB7032"/><path d="m105.225 21.461 2.379 1.779c.061-.949.122-1.838.183-2.787-.549.06-1.037.178-1.586.238-.305.237-.61.533-.976.77Z" fill="#F19326"/><path d="m102.236 27.034 2.745 1.6c-.122-2.252-.244-4.505-.366-6.699-.183.119-.366.237-.549.415-.549 1.482-1.22 3.083-1.83 4.684Z" fill="#E6453B"/><path d="m105.042 28.575 2.196-2.134c.122-.711.244-1.423.305-2.193.061-.356.061-.653.122-1.008l-2.379-1.779c-.183.119-.366.297-.61.415.122 2.253.244 4.447.366 6.7Z" fill="#F8B21E"/><path d="M104.127 31.302c-.793-1.067-1.525-2.134-2.318-3.26-.549 1.363-1.037 2.668-1.586 4.031l1.281.178c.122 0 .244 0 .366-.06l1.464-.533c.305-.119.549-.178.793-.356Z" fill="#D61D43"/><path d="M102.236 27.034c-.122.356-.305.711-.427 1.067.793 1.067 1.525 2.134 2.318 3.26.244-.118.427-.296.61-.533.427-.474.854-.89 1.281-1.304-.366-.297-.671-.593-1.037-.89a32.892 32.892 0 0 0-2.745-1.6Z" fill="#E32340"/><path d="M105.042 28.575c.366.297.671.593 1.037.89.061-.12.183-.178.244-.238-.427-.237-.854-.415-1.281-.652Z" fill="#E6453B"/><path d="M105.042 28.575c.427.238.854.415 1.281.652l.061-.059c.061-.118.244-.118.305-.237s.122-.237.183-.415c0-.06 0-.118.061-.178l.366-1.956-2.257 2.193Z" fill="#EB7032"/><path d="M98.637 27.686c.55-.593 1.098-1.186 1.586-1.779-.549-.118-1.098-.237-1.647-.296.122.296.305.534.244.89-.06.355-.122.77-.183 1.185Z" fill="#E32340"/><path d="M98.576 25.552c.55.118 1.098.237 1.647.296-.67-1.067-1.403-2.134-2.074-3.201v.059c-.06.296-.122.652-.244.949 0 .118 0 .177.122.177.244.119.488.297.793.415.122.06.122.119 0 .238l-.427.415c.061.296.122.474.183.652ZM101.809 28.042c.122-.356.244-.712.427-1.067-.671-.356-1.342-.771-2.013-1.127.549.77 1.098 1.482 1.586 2.194Z" fill="#D61D43"/><path d="M102.236 27.034c.61-1.6 1.22-3.142 1.891-4.743-.61.415-1.159.89-1.769 1.304-.671.771-1.403 1.542-2.074 2.312.61.356 1.281.712 1.952 1.127Z" fill="#E32340"/><path d="M98.759 30.532c.488-1.542.976-3.083 1.525-4.684a41.322 41.322 0 0 0-1.586 1.779c-.122.652-.183 1.363-.305 2.015 0 .06 0 .178.06.238.062.237.184.474.306.652ZM100.589 24.781l-.366 1.067c.671-.77 1.403-1.541 2.074-2.312-.549.415-1.098.83-1.708 1.245Z" fill="#E6453B"/><path d="M100.223 32.073c.549-1.364 1.037-2.668 1.586-4.031-.549-.712-1.037-1.482-1.586-2.194a202.983 202.983 0 0 1-1.525 4.684c.244.474.55.889.854 1.304.061.06.122.119.244.178.183 0 .305.059.427.059ZM100.284 25.907l.366-1.067c-.061.06-.122.06-.183.119-.488-1.008-.976-1.956-1.464-2.964-.183.118-.305.177-.488.296-.122.119-.183.237-.305.296l-.06.06c.731 1.126 1.402 2.193 2.134 3.26Z" fill="#E32340"/><path d="M98.515 22.291c.183-.119.305-.178.488-.297 0-.059-.061-.118-.061-.118-.183.118-.305.296-.427.415Z" fill="#E32144"/><path d="M104.676 7.944c-2.074-.296-4.148-.652-6.222-.948.61.889 1.22 1.719 1.83 2.608a9.955 9.955 0 0 0 1.098-.593l.366-.178 2.928-.889Z" fill="#5EC4E7"/><path d="M103.822 4.98c-1.586.178-3.233.296-4.819.474a4.256 4.256 0 0 0-.61.475l-.183.177c.061.297.183.653.244.949a199.678 199.678 0 0 1 5.368-2.075Z" fill="#1EA8B0"/><path d="M103.822 4.98c.854.83 1.647 1.66 2.501 2.43-.305-1.007-.61-2.015-.976-3.023-.488.237-.976.415-1.525.593Z" fill="#5EC4E7"/><path d="M98.454 6.996c-.06-.297-.183-.652-.244-.949-.183.119-.366.297-.549.474.305.119.55.297.793.475ZM106.323 7.47c-.854-.83-1.647-1.66-2.501-2.43-1.769.651-3.599 1.363-5.368 2.015 2.074.296 4.148.652 6.222.949.488-.178 1.037-.297 1.525-.475.061-.059.122-.059.122-.059Z" fill="#08A7CD"/><path d="M100.284 9.604c-.61-.89-1.22-1.72-1.83-2.608-.366 1.245-.732 2.43-1.098 3.675.061.06.122.178.183.237.183-.059.366-.118.55-.118.731-.474 1.463-.83 2.195-1.186Z" fill="#08A7CD"/><path d="M98.454 6.996c-.244-.178-.488-.356-.793-.475a.84.84 0 0 1-.244.178c-.305.237-.61.534-.915.771.061.711.122 1.423.122 2.194.244.355.488.652.671 1.007.427-1.245.793-2.49 1.159-3.675Z" fill="#5EC4E7"/><path d="M96.685 9.664c-.061-.712-.061-1.423-.122-2.194-.305.237-.549.474-.854.711.305.534.61 1.008.976 1.483ZM103.822 4.98c.305-.652.61-1.364.915-2.016-.061-.178-.183-.355-.244-.533-.244 0-.305.059-.549.118-.122 0-.732.356-.793.356-.305.178-.549.356-.854.534.488.533 1.037 1.067 1.525 1.54Z" fill="#1EA8B0"/><path d="M103.822 4.98c-.488-.534-1.037-1.008-1.525-1.482a95.821 95.821 0 0 0-2.805 1.72c-.123.058-.306.177-.428.295 1.586-.237 3.172-.355 4.758-.533ZM104.798 2.964c-.305.652-.61 1.364-.915 2.016.488-.178 1.037-.356 1.525-.593-.244-.474-.427-.948-.61-1.423Z" fill="#08A7CD"/><path d="M98.088 10.73c-.183.06-.366.119-.549.119 0 .06.061.06.061.119.183-.06.305-.178.488-.238Z" fill="#2FB5D2"/><path d="M105.225 10.078c.549-.118 1.098-.296 1.647-.415a24.193 24.193 0 0 0-.488-2.015c-.366.77-.732 1.6-1.159 2.43ZM106.811 12.568c-.549-.83-1.037-1.6-1.586-2.43-.244.533-.549 1.126-.793 1.66.793.237 1.586.474 2.379.77Z" fill="#08A7CD"/><path d="M106.933 9.663c-.549.119-1.098.297-1.647.415v.06c.549.83 1.037 1.6 1.586 2.43.183.06.427.119.61.178-.183-1.067-.366-2.075-.549-3.083Z" fill="#5EC4E7"/><path d="M98.576 16.066c-.305-.296-.61-.533-.915-.83 1.22-.178 2.379-.356 3.599-.533-.915.474-1.83.889-2.684 1.363Z" fill="#08A7CD"/></svg>