<svg width="154" height="70" fill="none" xmlns="http://www.w3.org/2000/svg"><path d="M19.446 26.054c-2.686 0-4.244 1.207-4.99 2.01-.09-.714-.563-1.63-2.415-1.63H8v4.155h1.648c.271 0 .361.09.361.358v19.01h4.787V42.319c.745.67 2.167 1.608 4.402 1.608 4.673 0 7.947-3.664 7.947-8.936.023-5.34-3.093-8.936-7.699-8.936Zm-.97 13.74c-2.574 0-3.748-2.436-3.748-4.715 0-3.574 1.964-4.847 3.815-4.847 2.258 0 3.793 1.92 3.793 4.803-.022 3.306-1.964 4.758-3.86 4.758Z" fill="#201E38"/><path d="M33.602 39.056V28.98c0-1.698-.835-2.525-2.528-2.525h-4.29v4.155h1.648c.271 0 .362.09.362.358v10.03c0 1.72.812 2.525 2.528 2.525h4.29V39.39h-1.648c-.249.022-.362-.09-.362-.335Z" fill="#201E38"/><path d="M46.11 26.054c-2.687 0-4.245 1.207-5.013 2.01-.09-.714-.564-1.63-2.415-1.63h-4.019v4.155h1.648c.271 0 .361.09.361.358v19.01h4.832V42.319c.745.67 2.19 1.608 4.402 1.608 4.674 0 7.947-3.664 7.947-8.936 0-5.34-3.115-8.936-7.744-8.936Zm-.971 13.74c-2.574 0-3.748-2.436-3.748-4.715 0-3.574 1.964-4.847 3.815-4.847 2.258 0 3.793 1.92 3.793 4.803 0 3.306-1.941 4.758-3.86 4.758ZM62.861 26.054c-5.17 0-8.76 3.686-8.76 8.936 0 5.183 3.884 8.936 9.257 8.936 4.222 0 6.796-2.48 6.908-2.57l.204-.178-2.077-3.418-.316.29c-.023.023-1.92 1.743-4.425 1.743-2.394 0-4.155-1.452-4.584-3.73h11.357l.022-.313c0-.045.113-1.05.113-1.542 0-4.87-3.093-8.154-7.699-8.154Zm-3.612 6.479c.52-1.676 1.829-2.636 3.612-2.636 1.445 0 2.551 1.094 2.755 2.636h-6.367ZM87.99 39.056v-16.51c0-1.697-.836-2.524-2.552-2.524h-4.29v4.156h1.649c.27 0 .361.089.361.357v2.994c-.7-.626-2.077-1.453-4.47-1.453-4.65 0-7.902 3.686-7.902 8.936 0 5.34 3.116 8.936 7.721 8.936 2.642 0 4.177-1.206 4.922-2.055.09.737.587 1.676 2.37 1.676h4.155v-4.133H88.35c-.271-.023-.361-.134-.361-.38Zm-8.557.737c-2.28 0-3.748-1.876-3.748-4.803 0-2.837 1.535-4.736 3.816-4.736 2.596 0 3.748 2.368 3.748 4.714 0 3.574-1.965 4.825-3.816 4.825ZM100.633 26.21c-1.987 0-3.838 1.14-4.922 2.95v-.38c0-1.542-.858-2.346-2.551-2.346h-4.11v4.155H90.7c.27 0 .361.09.361.358v12.577h4.786v-6.836c0-.894.113-1.765.339-2.57.722-2.367 2.641-3.194 4.177-3.194.542 0 .948.067.948.067l.406.067v-4.713l-.293-.045c0-.023-.407-.09-.79-.09ZM108.534 39.056V28.98c0-1.698-.835-2.525-2.529-2.525h-3.883v4.155h1.242c.271 0 .361.09.361.358v10.03c0 1.72.813 2.525 2.529 2.525h4.289V39.39h-1.648c-.248.022-.361-.09-.361-.335Z" fill="#201E38"/><path d="M126.618 26.456h-2.551c-1.49 0-2.303.514-2.777 1.765l-3.116 8.623c-.113.313-.203.67-.293 1.028a13.974 13.974 0 0 0-.316-1.028l-3.116-8.623c-.474-1.273-1.242-1.765-2.777-1.765h-2.709v4.155h.7c.384 0 .496.134.587.358l4.831 12.577h5.396l4.831-12.577c.091-.224.204-.358.587-.358h.745v-4.155h-.022ZM134.881 26.054c-5.17 0-8.76 3.686-8.76 8.936 0 5.183 3.883 8.936 9.257 8.936 4.221 0 6.795-2.48 6.908-2.57l.203-.178-2.077-3.418-.316.29c-.022.023-1.919 1.743-4.402 1.743-2.393 0-4.154-1.452-4.583-3.73h11.356l.022-.313c0-.045.091-1.05.091-1.542 0-4.87-3.093-8.154-7.699-8.154Zm-3.612 6.479c.519-1.676 1.828-2.636 3.612-2.636 1.445 0 2.551 1.094 2.754 2.636h-6.366ZM33.263 20h-4.267v4.446h4.267V20ZM108.218 20h-4.267v4.446h4.267V20ZM142.489 26.456h.632v1.698h.475v-1.698h.632v-.402h-1.739v.402ZM146.102 26.054l-.474 1.452-.497-1.452h-.654v2.1h.429V26.68h.022l.519 1.474h.362l.519-1.474v1.474h.429v-2.1h-.655Z" fill="#201E38"/></svg>