<svg width="18" height="18" fill="none" xmlns="http://www.w3.org/2000/svg"><path d="m9.273 16.303.69-.295-.69.295ZM1.697 8.727l-.296.69.296-.69ZM1.58 7.051l.369.654-.369-.654ZM8 4l.278.696L8 4Zm9-3 .727.182a.75.75 0 0 0-.909-.91L17 1Zm-3 9-.696-.279L14 10Zm-3.051 6.419.653.368-.653-.368Zm-.987-.411L7.69 10.705l-1.378.59L8.583 16.6l1.38-.591ZM7.295 10.31 1.992 8.038l-.59 1.379 5.303 2.272.59-1.378ZM1.95 7.705a53.432 53.432 0 0 1 6.328-3.009l-.557-1.392a54.927 54.927 0 0 0-6.508 3.094l.737 1.307Zm6.328-3.009a82.777 82.777 0 0 1 6.317-2.23 68.126 68.126 0 0 1 2.414-.694 23.136 23.136 0 0 1 .163-.042l.008-.002h.002L17 1l-.182-.728h-.001l-.003.001-.01.003-.036.01-.14.035a69.564 69.564 0 0 0-2.474.712 84.26 84.26 0 0 0-6.433 2.27l.557 1.393ZM17 1l-.728-.182V.82l-.002.008-.008.032c-.008.03-.02.073-.034.131a68.03 68.03 0 0 1-.694 2.413 82.794 82.794 0 0 1-2.23 6.317l1.392.557a84.278 84.278 0 0 0 2.27-6.432 69.623 69.623 0 0 0 .712-2.474 29.095 29.095 0 0 0 .046-.176l.003-.01v-.003L17 1Zm-3.696 8.721a53.437 53.437 0 0 1-3.009 6.33l1.307.736a54.936 54.936 0 0 0 3.094-6.508l-1.392-.558ZM8.584 16.6c.54 1.262 2.303 1.456 3.018.188l-1.307-.737a.187.187 0 0 1-.075.08.155.155 0 0 1-.084.016c-.06-.004-.131-.04-.174-.138l-1.379.59ZM1.991 8.038c-.099-.043-.134-.114-.138-.174a.156.156 0 0 1 .016-.084.188.188 0 0 1 .08-.075l-.737-1.307c-1.268.715-1.075 2.477.188 3.019l.591-1.38ZM16.47.47l-10 10 1.06 1.06 10-10L16.47.47Z" fill="#fff"/></svg>