<svg width="24" height="24" fill="none" xmlns="http://www.w3.org/2000/svg"><path d="M1 19H.25c0 .414.336.75.75.75V19Zm2 .75a.75.75 0 0 0 0-1.5v1.5Zm1.187-4.898a.75.75 0 1 0-.374-1.452l.374 1.452Zm1.563-3.316a.75.75 0 1 0 .5-1.414l-.5 1.414Zm.5-5.658a.75.75 0 0 0-.5-1.414l.5 1.414ZM23 19v.75a.75.75 0 0 0 .75-.75H23Zm-2-.75a.75.75 0 0 0 0 1.5v-1.5Zm-.813-4.85a.75.75 0 1 0-.374 1.452l.374-1.452ZM18.25 4.464a.75.75 0 1 0-.5 1.414l.5-1.414Zm-.5 5.658a.75.75 0 1 0 .5 1.414l-.5-1.414ZM18 19v.75a.75.75 0 0 0 .75-.75H18ZM6 19h-.75c0 .414.336.75.75.75V19ZM.25 18v1h1.5v-1H.25ZM1 19.75h2v-1.5H1v1.5ZM1.75 18a3.252 3.252 0 0 1 2.437-3.148L3.813 13.4A4.752 4.752 0 0 0 .25 18h1.5Zm1.5-10a3.751 3.751 0 0 0 2.5 3.536l.5-1.414A2.251 2.251 0 0 1 4.75 8h-1.5Zm2.5-3.536A3.751 3.751 0 0 0 3.25 8h1.5c0-.978.625-1.813 1.5-2.122l-.5-1.414ZM22.25 18v1h1.5v-1h-1.5Zm.75.25h-2v1.5h2v-1.5Zm.75-.25a4.752 4.752 0 0 0-3.563-4.6l-.374 1.452A3.252 3.252 0 0 1 22.25 18h1.5Zm-6-12.122c.875.31 1.5 1.144 1.5 2.122h1.5a3.751 3.751 0 0 0-2.5-3.536l-.5 1.414ZM19.25 8c0 .979-.625 1.813-1.5 2.122l.5 1.414A3.751 3.751 0 0 0 20.75 8h-1.5ZM10 14.75h4v-1.5h-4v1.5ZM17.25 18v1h1.5v-1h-1.5Zm-10.5 1v-1h-1.5v1h1.5ZM14 14.75A3.25 3.25 0 0 1 17.25 18h1.5A4.75 4.75 0 0 0 14 13.25v1.5Zm-4-1.5A4.75 4.75 0 0 0 5.25 18h1.5A3.25 3.25 0 0 1 10 14.75v-1.5Zm8 5H6v1.5h12v-1.5ZM14.25 8A2.25 2.25 0 0 1 12 10.25v1.5A3.75 3.75 0 0 0 15.75 8h-1.5ZM12 10.25A2.25 2.25 0 0 1 9.75 8h-1.5A3.75 3.75 0 0 0 12 11.75v-1.5ZM9.75 8A2.25 2.25 0 0 1 12 5.75v-1.5A3.75 3.75 0 0 0 8.25 8h1.5ZM12 5.75A2.25 2.25 0 0 1 14.25 8h1.5A3.75 3.75 0 0 0 12 4.25v1.5Z" fill="url('#paint0_linear_575_17545')"/><defs><linearGradient id="paint0_linear_575_17545" x1="-.467" y1="6.425" x2="10.004" y2="25.964" gradientUnits="userSpaceOnUse"><stop stop-color="#D61544"/><stop offset="1" stop-color="#F07E3D"/></linearGradient></defs></svg>