<svg width="25" height="24" fill="none" xmlns="http://www.w3.org/2000/svg"><path d="M15.5 9.75a.75.75 0 0 0 0-1.5v1.5Zm-2-1.5a.75.75 0 0 0 0 1.5v-1.5Zm1.152-3.341a.75.75 0 0 0-1.061-1.06l1.06 1.06Zm-3.182 1.06a.75.75 0 0 0 1.06 1.061l-1.06-1.06ZM8.75 5a.75.75 0 0 0 1.5 0h-1.5Zm1.5-2a.75.75 0 0 0-1.5 0h1.5ZM6.47 7.03a.75.75 0 1 0 1.06-1.06L6.47 7.03ZM5.409 3.848A.75.75 0 0 0 4.35 4.91l1.06-1.06ZM5.5 9.75a.75.75 0 0 0 0-1.5v1.5Zm-2-1.5a.75.75 0 0 0 0 1.5v-1.5Zm4.03 3.78a.75.75 0 1 0-1.06-1.06l1.06 1.06Zm-3.182 1.061a.75.75 0 0 0 1.061 1.06l-1.06-1.06ZM8.75 15a.75.75 0 0 0 1.5 0h-1.5Zm1.5-2a.75.75 0 0 0-1.5 0h1.5Zm9.72 7.53a.75.75 0 1 0 1.06-1.06l-1.06 1.06Zm-6.94-9.06a.75.75 0 1 0-1.06 1.06l1.06-1.06Zm2.47-3.22h-2v1.5h2v-1.5Zm-1.909-4.402L11.47 5.97l1.06 1.06 2.122-2.121-1.061-1.06ZM10.25 5V3h-1.5v2h1.5Zm-2.72.97L5.41 3.848 4.35 4.91l2.12 2.121L7.53 5.97ZM5.5 8.25h-2v1.5h2v-1.5Zm.97 2.72L4.348 13.09l1.061 1.06 2.121-2.12-1.06-1.061ZM10.25 15v-2h-1.5v2h1.5Zm10.78 4.47-8-8-1.06 1.06 8 8 1.06-1.06Z" fill="url('#paint0_linear_579_13013')"/><defs><linearGradient id="paint0_linear_579_13013" x1="2.367" y1="4.73" x2="17.414" y2="22.599" gradientUnits="userSpaceOnUse"><stop stop-color="#D61544"/><stop offset="1" stop-color="#F07E3D"/></linearGradient></defs></svg>