<svg width="40" height="40" fill="none" xmlns="http://www.w3.org/2000/svg"><rect width="40" height="40" rx="15" fill="url('#paint0_linear_603_13168')"/><path d="M20 29a9 9 0 1 0 0-18 9 9 0 0 0 0 18Z" fill="#fff"/><path fill-rule="evenodd" clip-rule="evenodd" d="M15.069 19.903a600.344 600.344 0 0 1 5.245-2.263c2.496-1.042 3.02-1.222 3.357-1.23.075 0 .24.015.353.105.09.075.112.173.127.248.015.075.03.232.015.352-.135 1.424-.72 4.878-1.02 6.467-.127.674-.374.9-.614.922-.524.045-.921-.345-1.424-.675-.794-.517-1.236-.839-2.008-1.349-.892-.584-.315-.906.195-1.43.135-.136 2.435-2.234 2.48-2.421.008-.023.008-.113-.044-.158-.053-.045-.128-.03-.188-.015-.082.015-1.341.855-3.792 2.51-.36.248-.682.368-.974.36-.322-.007-.937-.18-1.401-.33-.562-.18-1.012-.277-.974-.591.022-.165.247-.33.667-.502Z" fill="url('#paint1_linear_603_13168')"/><defs><linearGradient id="paint0_linear_603_13168" x1="-2.667" y1="4.07" x2="32.739" y2="46.114" gradientUnits="userSpaceOnUse"><stop stop-color="#D61544"/><stop offset="1" stop-color="#F07E3D"/></linearGradient><linearGradient id="paint1_linear_603_13168" x1="13.748" y1="17.234" x2="20.574" y2="27.018" gradientUnits="userSpaceOnUse"><stop stop-color="#D61544"/><stop offset="1" stop-color="#F07E3D"/></linearGradient></defs></svg>