<svg width="154" height="70" fill="none" xmlns="http://www.w3.org/2000/svg"><path d="M58.105 25c-1.407 0-2.557 1.102-2.557 2.45v14.884c0 1.347 1.15 2.45 2.557 2.45 1.406 0 2.556-1.103 2.556-2.45V27.51C60.725 26.102 59.575 25 58.105 25Z" fill="url('#paint0_linear_631_14552')"/><path d="M32.153 25H16.621C15.15 25 14 26.102 14 27.511s1.15 2.512 2.557 2.512h5.177v12.372c0 1.348 1.15 2.45 2.557 2.45 1.406 0 2.557-1.102 2.557-2.45V30.022h5.177c1.407 0 2.557-1.102 2.557-2.45.192-1.47-.959-2.572-2.429-2.572Z" fill="url('#paint1_linear_631_14552')"/><path d="M129.055 25c-5.689 0-10.355 4.471-10.355 9.923 0 5.45 4.666 9.922 10.355 9.922s10.355-4.471 10.355-9.922c0-5.452-4.666-9.923-10.355-9.923Zm0 14.884c-2.876 0-5.177-2.205-5.177-4.961 0-2.696 2.301-4.962 5.177-4.962 2.813 0 5.178 2.205 5.178 4.962-.064 2.756-2.365 4.96-5.178 4.96Z" fill="url('#paint2_linear_631_14552')"/><path d="m96.84 25.735-5.434 5.206-5.433-5.206c-1.022-.98-2.62-.98-3.707 0-1.023.98-1.023 2.511 0 3.553l5.433 5.206 1.087 1.041v6.86c0 1.348 1.15 2.45 2.557 2.45 1.406 0 2.556-1.102 2.556-2.45v-6.86l1.087-1.041 5.433-5.206c1.023-.98 1.023-2.512 0-3.553-.895-.919-2.493-.919-3.58 0Z" fill="url('#paint3_linear_631_14552')"/><defs><linearGradient id="paint0_linear_631_14552" x1="56.502" y1="44.784" x2="62.192" y2="44.039" gradientUnits="userSpaceOnUse"><stop stop-color="#1E1627"/><stop offset="1" stop-color="#201E38"/></linearGradient><linearGradient id="paint1_linear_631_14552" x1="17.842" y1="44.845" x2="36.104" y2="35.247" gradientUnits="userSpaceOnUse"><stop stop-color="#1E1627"/><stop offset="1" stop-color="#201E38"/></linearGradient><linearGradient id="paint2_linear_631_14552" x1="122.562" y1="44.845" x2="140.878" y2="35.169" gradientUnits="userSpaceOnUse"><stop stop-color="#1E1627"/><stop offset="1" stop-color="#201E38"/></linearGradient><linearGradient id="paint3_linear_631_14552" x1="85.17" y1="44.845" x2="102.955" y2="35.913" gradientUnits="userSpaceOnUse"><stop stop-color="#1E1627"/><stop offset="1" stop-color="#201E38"/></linearGradient></defs></svg>