<svg width="154" height="70" fill="none" xmlns="http://www.w3.org/2000/svg"><path fill-rule="evenodd" clip-rule="evenodd" d="M101.146 40.671c-1.32 0-2.31-.328-2.97-1.315-1.484-1.972-1.154-5.425.99-6.575 2.969-1.644 6.104 1.315 5.114 5.26-.165.493-.33.986-.66 1.48l-.165.164c-.495.493-1.32.986-2.309.986Zm28.042-14.959c0 .165 0 .33.33.33h3.959v-4.11h-4.289v3.78Zm0 18.247c0 .164 0 .329.33.329h3.959V29h-4.289v14.959ZM64.69 39.027c0 4.932 4.124 6.247 7.588 5.096.66-.164.825-.328 1.32-.657 0-.329-.165-.493-.33-.822l-.825-2.466c-1.98 1.15-3.629.822-3.629-1.808v-5.59h3.3c.164 0 .33 0 .33-.328V29.33h-3.63v-3.617h-4.289l.165 13.315Zm11.547-1.479c0 3.78 1.815 6.904 5.939 6.904 3.134 0 3.464-.986 4.783-1.808v1.644h3.96V29h-4.29v7.726c0 1.973-.99 3.78-2.969 3.78-.99 0-1.814 0-2.31-.821-.329-.493-.659-1.315-.659-2.137V29h-4.289l-.165 8.548Zm38.435-.986c0-3.946 3.794-5.26 6.103-3.288 1.98 1.644 1.485 7.397-2.144 7.397-2.639 0-3.959-1.644-3.959-4.11Zm-4.289 0c0 2.465.99 4.931 2.31 6.082 1.649 1.48 2.804 1.808 5.278 1.808 2.474 0 3.299-1.315 3.959-1.808v3.452c0 2.301.495 3.616 1.98 5.096.494.493 1.484 1.315 2.144 1.48V29h-4.124v1.48c-.495-.33-.66-.658-1.485-1.151-3.958-1.973-10.062.657-10.062 7.233Zm-10.722 7.89c1.32 0 1.979 0 3.134-.493.825-.329.99-.822 1.65-1.15v5.26c0 1.808 2.309 4.438 4.289 4.931V29h-3.959v1.644c-.495-.329-.99-1.315-2.805-1.644-3.629-.822-7.258.986-8.412 4.603-1.155 3.452-.165 7.726 2.804 9.698.66.493 2.144 1.151 3.299 1.151Z" fill="#201E38"/><path fill-rule="evenodd" clip-rule="evenodd" d="M51.989 42.808c1.32 3.288 3.299 5.425 5.773 8.055 0 0-5.608-.822-10.062-2.466 1.485-1.808 2.97-3.616 4.289-5.589ZM35.659 27.85c.659 0 1.154.494 1.154 1.151s-.495 1.15-1.155 1.15-1.154-.492-1.154-1.15c.165-.657.66-1.15 1.154-1.15Zm-5.774-5.753c1.32-.165 2.474-.329 3.299-.165 2.64.165 4.949 1.48 6.103 2.466.99.822 2.145 2.466 2.145 2.466s2.474-.986 6.103-3.616c3.63-2.63 6.268-6.247 6.268-6.247s2.475 6.74 1.155 14.301c-.66 3.452-1.65 6.411-2.804 8.713-1.485 2.63-3.464 5.26-5.444 7.561l-.33.33c-.33-.165-.66-.33-.99-.33-5.278-2.301-8.412-5.918-11.216-10.52-1.32-2.137-2.475-4.603-3.134-7.398-.66-2.3-1.155-4.931-1.155-7.561Z" fill="url('#paint0_linear_631_14549')"/><path fill-rule="evenodd" clip-rule="evenodd" d="M21.966 37.384s-2.474-4.439.495-9.863c1.65-2.96 4.124-4.603 6.269-5.26 0 2.63.495 5.26 1.154 7.56a27.587 27.587 0 0 0 2.805 6.74c-1.485-.821-3.3-1.643-5.279-1.643-4.124.164-5.444 2.466-5.444 2.466Z" fill="#FF9544"/><defs><linearGradient id="paint0_linear_631_14549" x1="29.854" y1="33.778" x2="57.639" y2="33.778" gradientUnits="userSpaceOnUse"><stop stop-color="#3465F1"/><stop offset="1" stop-color="#6B13F6"/></linearGradient></defs></svg>