<svg width="40" height="40" fill="none" xmlns="http://www.w3.org/2000/svg"><rect width="40" height="40" rx="15" fill="url('#paint0_linear_603_14394')"/><path d="M29 14.776a7.23 7.23 0 0 1-2.121.596 3.778 3.778 0 0 0 1.624-2.095 7.29 7.29 0 0 1-2.346.919A3.645 3.645 0 0 0 23.462 13c-2.384 0-4.136 2.281-3.598 4.649-3.068-.158-5.789-1.665-7.61-3.956-.968 1.702-.502 3.928 1.142 5.056a3.608 3.608 0 0 1-1.672-.474c-.04 1.754 1.185 3.396 2.961 3.76a3.611 3.611 0 0 1-1.668.065c.47 1.505 1.834 2.6 3.45 2.63A7.294 7.294 0 0 1 11 26.299 10.267 10.267 0 0 0 16.661 28c6.856 0 10.73-5.938 10.496-11.264A7.627 7.627 0 0 0 29 14.776Z" fill="#fff"/><defs><linearGradient id="paint0_linear_603_14394" x1="-2.667" y1="4.07" x2="32.739" y2="46.114" gradientUnits="userSpaceOnUse"><stop stop-color="#D61544"/><stop offset="1" stop-color="#F07E3D"/></linearGradient></defs></svg>